<?xml version="1.0" standalone="no"?>
<!DOCTYPE svg PUBLIC "-//W3C//DTD SVG 1.1//EN" "http://www.w3.org/Graphics/SVG/1.1/DTD/svg11.dtd" >
<svg>
<metadata>
Created by FontForge 20120731 at Tue Apr 25 12:31:04 2017
 By www-data
Copyright The Monotype Corporation. All rights reserved.
</metadata>
<defs>
<font id="CenturyGothicProCyr-Regular" horiz-adv-x="332" >
  <font-face 
    font-family="Century Gothic Pro Cyr"
    font-weight="400"
    font-stretch="normal"
    units-per-em="1000"
    panose-1="2 11 5 2 2 2 2 2 2 4"
    ascent="736"
    descent="-264"
    x-height="531"
    cap-height="718"
    bbox="-170 -230 1153 970"
    underline-thickness="50"
    underline-position="-50"
    stemh="66"
    stemv="72"
    unicode-range="U+0020-FB04"
  />
<missing-glyph horiz-adv-x="500" 
d="M12 0v665h475v-665h-475zM88 618l162 -243l161 243h-323zM60 575v-484c0 -1 161 242 161 242zM440 575l-162 -242l162 -243v485zM411 48l-161 242l-162 -242h323z" />
    <glyph glyph-name="fi" unicode="fi" horiz-adv-x="487" 
d="M109 531v35c0 124 61 185 160 185c88 0 145 -57 150 -134h-69c-9 44 -35 68 -82 68c-67 0 -87 -45 -87 -119v-35h109v-60h-109v-471h-72v471h-68v60h68zM351 0v531h68v-531h-68z" />
    <glyph glyph-name="fl" unicode="fl" horiz-adv-x="483" 
d="M179 531h109v-60h-109v-471h-72v471h-69v60h69v35c0 28 1 43 7 70c17 71 74 114 149 114c59 0 106 -27 133 -74c17 -30 21 -71 21 -121v-555h-72v557c0 67 -8 131 -83 131c-63 0 -83 -48 -83 -123v-34z" />
    <glyph glyph-name="f_f" unicode="ff" horiz-adv-x="571" 
d="M347 473h-170v-473h-69v473h-69v58h69v24c0 50 5 87 16 110c23 48 68 85 143 85c42 0 76 -12 102 -35c22 23 53 35 94 35c26 0 55 -5 88 -14v-67c-27 11 -52 17 -73 17c-48 0 -62 -19 -62 -83v-72h111v-58h-111v-473h-69v473zM177 555v-24h170v86c-8 45 -35 68 -81 68
c-22 0 -40 -5 -53 -15s-22 -22 -28 -36c-5 -14 -8 -40 -8 -79z" />
    <glyph glyph-name="f_f_i" unicode="ffi" horiz-adv-x="727" 
d="M350 471h-170v-471h-70v471h-69v60h69v24c0 51 6 88 17 111c23 48 69 84 142 84c50 0 90 -17 119 -51c29 34 69 51 120 51c91 0 147 -61 151 -133h-70c-9 45 -36 68 -81 68c-20 0 -37 -5 -51 -14c-27 -17 -38 -39 -38 -116v-24h110v-60h-110v-471h-69v471zM180 555v-24
h170v24c0 18 1 35 2 51c-8 53 -36 79 -84 79c-22 0 -40 -5 -53 -15s-22 -22 -27 -37c-5 -14 -8 -40 -8 -78zM589 0v531h70v-531h-70z" />
    <glyph glyph-name="f_f_l" unicode="ffl" horiz-adv-x="720" 
d="M347 471h-170v-471h-70v471h-69v60h69v24c0 51 5 88 16 111c23 47 68 84 143 84c50 0 89 -17 118 -50c30 33 69 50 117 50c37 0 67 -10 92 -29s42 -40 49 -63c8 -23 12 -62 12 -117v-541h-70v544c0 40 -2 68 -6 84c-7 33 -36 59 -77 59c-20 0 -37 -6 -51 -17
c-13 -11 -22 -24 -27 -39c-4 -15 -6 -43 -6 -82v-18h109v-60h-109v-471h-70v471zM177 555v-24h170v18c0 23 0 42 1 57c-6 53 -34 79 -83 79c-22 0 -40 -5 -53 -15s-22 -22 -27 -37c-5 -14 -8 -40 -8 -78z" />
    <glyph glyph-name=".notdef" horiz-adv-x="500" 
d="M12 0v665h475v-665h-475zM88 618l162 -243l161 243h-323zM60 575v-484c0 -1 161 242 161 242zM440 575l-162 -242l162 -243v485zM411 48l-161 242l-162 -242h323z" />
    <glyph glyph-name="space" unicode=" " horiz-adv-x="277" 
 />
    <glyph glyph-name="exclam" unicode="!" horiz-adv-x="295" 
d="M112 736h69v-556h-69v556zM147 108c32 0 60 -27 60 -61s-27 -61 -60 -61c-34 0 -60 28 -60 61s27 61 60 61z" />
    <glyph glyph-name="quotedbl" unicode="&#x22;" horiz-adv-x="309" 
d="M286 736l-11 -226h-50l-11 226h72zM96 736l-11 -226h-50l-11 226h72z" />
    <glyph glyph-name="numbersign" unicode="#" horiz-adv-x="720" 
d="M490 294h112v-53h-121l-35 -241h-54l35 241h-163l-37 -241h-54l37 241h-120v53h128l25 163h-123v53h131l34 229h53l-34 -229h163l33 229h54l-33 -229h109v-53h-117zM434 294l25 163h-163l-24 -163h162z" />
    <glyph glyph-name="dollar" unicode="$" horiz-adv-x="554" 
d="M259 718v50h64v-53c60 -11 103 -35 147 -97l-53 -43c-27 41 -53 61 -94 70v-243c111 -59 200 -108 200 -228c0 -90 -63 -174 -200 -192v-153h-64v153c-94 8 -171 42 -224 129l52 39c44 -59 103 -93 172 -100v302c-94 46 -178 84 -178 194c0 81 57 159 178 172zM259 428
v222c-73 -6 -108 -50 -108 -102c0 -50 35 -86 108 -120zM323 326v-274c78 11 130 60 130 120c0 67 -49 111 -130 154z" />
    <glyph glyph-name="percent" unicode="%" horiz-adv-x="775" 
d="M617 750h58l-523 -800h-65l476 729c-67 -16 -138 -21 -213 -21c-4 0 -15 1 -19 1c19 -26 30 -52 30 -92c0 -84 -67 -169 -171 -169c-97 0 -167 77 -167 168c0 103 85 170 168 170c38 0 83 -22 197 -22c108 0 179 22 229 36zM192 674c-59 0 -107 -48 -107 -107
c0 -71 54 -107 107 -107c54 0 107 36 107 107c0 54 -53 107 -107 107zM415 148c0 113 85 169 169 169c85 0 169 -56 169 -169c0 -85 -84 -169 -169 -169c-93 0 -169 76 -169 169zM691 148c0 66 -61 107 -118 107c-49 0 -96 -31 -96 -107c0 -59 48 -106 107 -106
s107 47 107 106z" />
    <glyph glyph-name="ampersand" unicode="&#x26;" horiz-adv-x="757" 
d="M539 96c-84 -63 -156 -113 -267 -113c-119 0 -183 77 -183 166c0 95 69 162 172 244c-57 68 -92 114 -92 169c0 76 71 129 159 129c93 0 157 -56 157 -130c0 -61 -46 -115 -124 -181c120 -128 182 -187 184 -189c32 27 63 53 87 75l48 -52c-25 -22 -53 -47 -84 -72
c47 -50 95 -94 136 -142h-100c-49 53 -81 83 -93 96zM308 338c-91 -69 -149 -122 -149 -185c0 -51 48 -104 120 -104c66 0 132 40 212 97c-51 52 -114 113 -183 192zM317 434c64 50 98 95 98 128c0 35 -38 63 -89 63c-43 0 -87 -24 -87 -64c0 -28 27 -70 78 -127z" />
    <glyph glyph-name="quoteright" unicode="&#x2019;" horiz-adv-x="351" 
d="M211 736v-94c0 -76 -12 -117 -41 -174l-38 22c15 30 28 54 34 112h-43v134h88z" />
    <glyph glyph-name="parenleft" unicode="(" horiz-adv-x="369" 
d="M284 -208h-75c-49 116 -80 278 -80 451c0 182 34 357 100 507h79c-63 -128 -104 -308 -104 -499c0 -174 29 -338 80 -459z" />
    <glyph glyph-name="parenright" unicode=")" horiz-adv-x="369" 
d="M84 750h75c48 -115 78 -276 78 -450c0 -182 -33 -358 -98 -508h-79c63 128 107 307 107 499c0 175 -32 338 -83 459z" />
    <glyph glyph-name="asterisk" unicode="*" horiz-adv-x="425" 
d="M196 591l-16 145h64l-14 -145l120 86l32 -54l-135 -61l135 -60l-32 -56l-120 85l14 -145h-64l16 145l-121 -85l-32 56l137 60l-137 61l32 54z" />
    <glyph glyph-name="plus" unicode="+" horiz-adv-x="606" 
d="M56 393h214v212h68v-212h212v-67h-212v-212h-68v212h-214v67z" />
    <glyph glyph-name="comma" unicode="," horiz-adv-x="277" 
d="M63 -64l82 196l65 -31l-99 -185z" />
    <glyph glyph-name="hyphen" unicode="-" 
d="M32 240v60h269v-60h-269z" />
    <glyph glyph-name="period" unicode="." horiz-adv-x="277" 
d="M151 108c32 0 60 -27 60 -61s-27 -61 -60 -61c-34 0 -60 28 -60 61s27 61 60 61z" />
    <glyph glyph-name="slash" unicode="/" horiz-adv-x="437" 
d="M333 736h75l-298 -834h-75z" />
    <glyph glyph-name="zero" unicode="0" horiz-adv-x="554" 
d="M31 360c0 50 2 101 12 151c28 144 115 225 232 225c90 0 169 -54 211 -152c28 -64 36 -138 36 -224s-9 -161 -36 -225c-42 -98 -121 -153 -211 -153c-80 0 -146 38 -190 111c-42 69 -54 157 -54 267zM101 359c0 -99 8 -175 41 -230c31 -52 82 -81 134 -81
c104 0 179 100 179 311c0 210 -74 311 -179 311c-53 0 -103 -31 -134 -83c-33 -55 -41 -130 -41 -228z" />
    <glyph glyph-name="one" unicode="1" horiz-adv-x="554" 
d="M255 648h-113l43 70h142v-718h-72v648z" />
    <glyph glyph-name="two" unicode="2" horiz-adv-x="554" 
d="M30 0l275 296c84 91 133 146 133 224c0 83 -68 150 -155 150c-91 0 -158 -67 -167 -177h-69c4 140 105 243 239 243c130 0 222 -96 222 -216c0 -98 -58 -166 -143 -258l-179 -192h332v-70h-488z" />
    <glyph glyph-name="three" unicode="3" horiz-adv-x="554" 
d="M401 551c0 61 -53 115 -131 115c-70 0 -110 -39 -138 -114h-73c27 123 110 184 210 184c116 0 207 -83 207 -185c0 -61 -31 -111 -92 -147c85 -35 131 -111 131 -190c0 -120 -95 -232 -244 -232c-124 0 -210 71 -236 210h71c24 -91 73 -140 166 -140
c105 0 173 74 173 157c0 53 -30 102 -80 129c-41 22 -84 25 -130 27v66c114 7 166 54 166 120z" />
    <glyph glyph-name="four" unicode="4" horiz-adv-x="554" 
d="M26 167l400 569h15v-499h87v-70h-87v-167h-72v167h-343zM158 237h211v298z" />
    <glyph glyph-name="five" unicode="5" horiz-adv-x="554" 
d="M181 718h311v-70h-256l-35 -194c18 5 44 13 84 13c135 0 227 -101 227 -233c0 -138 -96 -251 -252 -251c-122 0 -204 81 -219 191h74c18 -88 85 -125 150 -125c92 0 172 78 172 188c0 97 -66 164 -169 164c-56 0 -105 -19 -153 -39z" />
    <glyph glyph-name="six" unicode="6" horiz-adv-x="554" 
d="M149 411l219 325l58 -38l-193 -294c17 6 39 13 73 13c119 0 204 -98 204 -214c0 -134 -106 -221 -224 -221c-130 0 -218 104 -218 217c0 70 30 136 81 212zM289 354c-83 0 -151 -68 -151 -151s68 -151 151 -151s151 68 151 151s-67 151 -151 151z" />
    <glyph glyph-name="seven" unicode="7" horiz-adv-x="554" 
d="M72 648v70h455l-384 -736l-59 30l332 636h-344z" />
    <glyph glyph-name="eight" unicode="8" horiz-adv-x="554" 
d="M67 549c0 99 92 187 214 187c118 0 205 -88 205 -189c0 -66 -33 -116 -101 -153c87 -44 135 -100 135 -188c0 -114 -83 -223 -244 -223c-157 0 -241 106 -241 217c0 92 52 150 139 194c-72 37 -107 93 -107 155zM278 666c-78 0 -136 -53 -136 -118
c0 -67 67 -124 138 -124c81 0 136 65 136 126c0 55 -47 116 -138 116zM281 358c-103 0 -176 -79 -176 -160c0 -79 65 -149 172 -149c105 0 173 73 173 156c0 76 -71 153 -169 153z" />
    <glyph glyph-name="nine" unicode="9" horiz-adv-x="554" 
d="M410 307l-218 -325l-59 38l194 294c-20 -6 -44 -13 -74 -13c-119 0 -203 97 -203 214c0 133 104 221 223 221c130 0 218 -103 218 -217c0 -69 -30 -136 -81 -212zM270 364c83 0 151 68 151 151s-67 151 -151 151c-83 0 -150 -67 -150 -151c0 -83 67 -151 150 -151z" />
    <glyph glyph-name="colon" unicode=":" horiz-adv-x="277" 
d="M151 108c32 0 60 -27 60 -61s-27 -61 -60 -61c-34 0 -60 28 -60 61s27 61 60 61zM151 545c32 0 60 -27 60 -61s-27 -61 -60 -61c-34 0 -60 28 -60 61s27 61 60 61z" />
    <glyph glyph-name="semicolon" unicode=";" horiz-adv-x="277" 
d="M152 545c33 0 60 -27 60 -61s-27 -61 -60 -61s-60 27 -60 61s27 61 60 61zM63 -64l82 196l65 -31l-99 -185z" />
    <glyph glyph-name="less" unicode="&#x3c;" horiz-adv-x="606" 
d="M146 358l409 -188v-72l-504 229v64l504 230v-72z" />
    <glyph glyph-name="equal" unicode="=" horiz-adv-x="606" 
d="M56 500h494v-67h-494v67zM56 285h494v-67h-494v67z" />
    <glyph glyph-name="greater" unicode="&#x3e;" horiz-adv-x="606" 
d="M51 98v72l410 188l-410 191v72l504 -230v-64z" />
    <glyph glyph-name="question" unicode="?" horiz-adv-x="591" 
d="M405 327h72c-5 -114 -76 -172 -177 -172c-105 0 -174 62 -174 142c0 62 38 103 108 131c134 55 197 73 197 139c0 60 -57 103 -133 103c-84 0 -141 -49 -144 -147h-71c1 136 88 213 214 213c130 0 204 -75 204 -168c0 -108 -94 -141 -222 -192c-52 -21 -78 -44 -78 -79
c0 -36 36 -72 99 -72c69 0 98 34 105 102zM297 108c32 0 60 -27 60 -61s-27 -61 -60 -61c-34 0 -60 28 -60 61s27 61 60 61z" />
    <glyph glyph-name="at" unicode="@" horiz-adv-x="867" 
d="M431 560c69 0 101 -29 128 -72l13 67h52l-56 -319c-1 -4 -3 -15 -3 -20c0 -16 11 -24 26 -24c41 0 171 74 171 235c0 162 -137 282 -316 282c-201 0 -341 -154 -341 -336c0 -195 149 -343 349 -343c118 0 186 52 251 117h52c-72 -90 -150 -160 -302 -160
c-218 0 -388 166 -388 377c0 219 164 388 382 388c189 0 351 -138 351 -314c0 -201 -171 -289 -252 -289c-40 0 -56 19 -57 54c-23 -29 -64 -49 -106 -49c-90 0 -162 67 -162 177c0 118 81 229 208 229zM409 209c80 0 127 88 127 188c0 59 -34 111 -98 111
c-87 0 -145 -82 -145 -168c0 -79 47 -131 116 -131z" />
    <glyph glyph-name="A" unicode="A" horiz-adv-x="740" 
d="M364 718h17l335 -718h-77l-113 236h-310l-112 -236h-80zM494 306l-122 260l-124 -260h246z" />
    <glyph glyph-name="B" unicode="B" horiz-adv-x="574" 
d="M286 0h-197v718h152c151 0 220 -74 220 -175c0 -63 -30 -117 -92 -151c100 -34 151 -96 151 -186c0 -107 -83 -206 -234 -206zM161 648v-231h48c54 0 96 7 126 27c32 21 51 59 51 99c0 64 -48 105 -131 105h-94zM161 347v-277h87c31 0 62 5 86 7c48 4 111 56 111 128
c0 47 -26 91 -70 115c-42 23 -98 27 -165 27h-49z" />
    <glyph glyph-name="C" unicode="C" horiz-adv-x="813" 
d="M756 585l-57 -43c-63 83 -153 124 -256 124c-170 0 -313 -126 -313 -309c0 -178 136 -308 317 -308c100 0 185 41 252 119l57 -43c-74 -93 -183 -142 -314 -142c-240 0 -387 169 -387 380c0 212 164 373 387 373c132 0 243 -52 314 -151z" />
    <glyph glyph-name="D" unicode="D" horiz-adv-x="744" 
d="M87 0v718h177c79 0 152 -4 223 -33c129 -52 206 -176 206 -334c0 -205 -124 -351 -355 -351h-251zM159 70h106c136 0 226 12 290 90c41 50 63 115 63 190c0 73 -20 138 -60 190c-68 89 -170 108 -326 108h-73v-578z" />
    <glyph glyph-name="E" unicode="E" horiz-adv-x="536" 
d="M88 0v718h410v-70h-338v-225h338v-70h-338v-283h338v-70h-410z" />
    <glyph glyph-name="F" unicode="F" horiz-adv-x="485" 
d="M87 0v718h360v-70h-288v-225h288v-70h-288v-353h-72z" />
    <glyph glyph-name="G" unicode="G" horiz-adv-x="872" 
d="M513 345h310c-1 -228 -146 -362 -361 -362c-249 0 -405 178 -405 376c0 203 158 377 394 377c132 0 233 -48 329 -139l-55 -52c-81 79 -179 121 -272 121c-172 0 -321 -132 -321 -305c0 -165 139 -312 332 -312c136 0 258 81 278 226h-229v70z" />
    <glyph glyph-name="H" unicode="H" horiz-adv-x="683" 
d="M87 0v718h72v-301h366v301h72v-718h-72v347h-366v-347h-72z" />
    <glyph glyph-name="I" unicode="I" horiz-adv-x="226" 
d="M77 0v718h72v-718h-72z" />
    <glyph glyph-name="J" unicode="J" horiz-adv-x="482" 
d="M42 58l38 57c53 -38 98 -66 141 -66c30 0 57 14 75 38c23 31 26 72 26 123v508h72v-510c0 -75 -7 -133 -45 -175c-29 -32 -76 -50 -128 -50c-71 0 -124 29 -179 75z" />
    <glyph glyph-name="K" unicode="K" horiz-adv-x="591" 
d="M88 0v718h72v-269l287 269h97l-345 -322l372 -396h-95l-316 335v-335h-72z" />
    <glyph glyph-name="L" unicode="L" horiz-adv-x="463" 
d="M88 0v718h72v-648h276v-70h-348z" />
    <glyph glyph-name="M" unicode="M" horiz-adv-x="919" 
d="M125 0h-70l102 718h12l292 -589l289 589h12l102 -718h-70l-70 514l-254 -514h-18l-258 518z" />
    <glyph glyph-name="N" unicode="N" horiz-adv-x="740" 
d="M161 0h-72v718h15l476 -550v550h72v-718h-16l-475 543v-543z" />
    <glyph glyph-name="O" unicode="O" horiz-adv-x="869" 
d="M429 736c218 0 384 -163 384 -377c0 -211 -165 -377 -378 -377c-221 0 -379 173 -379 374c0 214 166 380 373 380zM433 666c-158 0 -302 -126 -302 -310c0 -177 140 -304 302 -304c168 0 305 128 305 308c0 182 -146 306 -305 306z" />
    <glyph glyph-name="P" unicode="P" horiz-adv-x="592" 
d="M87 0v718h166c75 0 131 -5 166 -18c73 -28 118 -92 118 -173c0 -68 -32 -125 -83 -157s-125 -36 -224 -36h-71v-334h-72zM286 648h-127v-244c41 -1 82 0 119 0c62 0 110 4 142 30c25 20 42 57 42 93c0 37 -18 73 -45 94c-32 24 -75 27 -131 27z" />
    <glyph glyph-name="Q" unicode="Q" horiz-adv-x="871" 
d="M708 -57l-73 93c-60 -37 -125 -54 -199 -54c-221 0 -379 173 -379 374c0 210 161 380 377 380c210 0 380 -160 380 -377c0 -114 -41 -203 -124 -281l106 -135h-88zM517 297l128 -163c63 61 94 137 94 226c0 182 -146 306 -304 306c-160 0 -303 -128 -303 -310
c0 -178 142 -304 302 -304c56 0 111 14 156 41l-161 204h88z" />
    <glyph glyph-name="R" unicode="R" horiz-adv-x="607" 
d="M91 0v718h165c75 0 132 -5 167 -18c74 -28 118 -92 118 -173c0 -36 -5 -57 -21 -89c-37 -75 -109 -104 -228 -104l259 -334h-89l-258 334h-41v-334h-72zM310 648h-147v-244c40 0 81 -1 119 -1c62 0 110 6 141 31c26 21 43 56 43 93c0 70 -48 121 -156 121z" />
    <glyph glyph-name="S" unicode="S" horiz-adv-x="498" 
d="M421 619l-58 -45c-39 51 -73 88 -132 88c-62 0 -97 -44 -97 -91c0 -39 23 -80 64 -111c135 -100 234 -169 234 -285c0 -101 -85 -193 -202 -193c-99 0 -164 55 -217 152l61 37c43 -79 95 -119 150 -119c75 0 133 55 133 122c0 79 -74 124 -237 256c-34 27 -61 84 -61 138
c0 99 77 168 174 168c88 0 141 -53 188 -117z" />
    <glyph glyph-name="T" unicode="T" horiz-adv-x="426" 
d="M178 648h-162v70h394v-70h-160v-648h-72v648z" />
    <glyph glyph-name="U" unicode="U" horiz-adv-x="655" 
d="M494 262v456h72v-467c0 -169 -91 -269 -238 -269s-238 100 -238 269v467h72v-456c0 -56 0 -106 38 -153c31 -39 74 -57 128 -57s97 18 128 57c38 47 38 97 38 153z" />
    <glyph glyph-name="V" unicode="V" horiz-adv-x="702" 
d="M341 0l-308 718h78l238 -555l242 555h78l-312 -718h-16z" />
    <glyph glyph-name="W" unicode="W" horiz-adv-x="960" 
d="M250 0l-203 718h74l146 -517l206 517h15l203 -517l149 517h73l-206 -718h-14l-212 543l-218 -543h-13z" />
    <glyph glyph-name="X" unicode="X" horiz-adv-x="609" 
d="M263 370l-213 348h84l172 -280l173 280h83l-214 -348l228 -370h-84l-186 301l-188 -301h-84z" />
    <glyph glyph-name="Y" unicode="Y" horiz-adv-x="592" 
d="M262 0v343l-231 375h83l184 -296l181 296h83l-228 -375v-343h-72z" />
    <glyph glyph-name="Z" unicode="Z" horiz-adv-x="480" 
d="M329 648h-270v70h379l-300 -648h285v-70h-396z" />
    <glyph glyph-name="bracketleft" unicode="[" horiz-adv-x="351" 
d="M143 -194v930h163v-70h-95v-794h95v-66h-163z" />
    <glyph glyph-name="backslash" unicode="\" horiz-adv-x="605" 
d="M32 736h75l465 -834h-74z" />
    <glyph glyph-name="bracketright" unicode="]" horiz-adv-x="351" 
d="M209 736v-930h-164v70h96v794h-96v66h164z" />
    <glyph glyph-name="asciicircum" unicode="^" horiz-adv-x="672" 
d="M59 178l249 540h57l249 -540h-64l-215 465l-213 -465h-63z" />
    <glyph glyph-name="underscore" unicode="_" horiz-adv-x="500" 
d="M-6 -124v48h512v-48h-512z" />
    <glyph glyph-name="quoteleft" unicode="&#x2018;" horiz-adv-x="351" 
d="M140 468v95c0 80 15 120 42 173l37 -21c-16 -32 -29 -58 -34 -113h43v-134h-88z" />
    <glyph glyph-name="a" unicode="a" horiz-adv-x="683" 
d="M538 434v97h67v-531h-67v91c-58 -70 -131 -104 -214 -104c-155 0 -272 129 -272 280s120 278 274 278c86 0 159 -37 212 -111zM332 479c-122 0 -210 -100 -210 -214c0 -115 90 -216 209 -216c109 0 212 82 212 214c0 123 -92 216 -211 216z" />
    <glyph glyph-name="b" unicode="b" horiz-adv-x="682" 
d="M149 98v-98h-68v736h68v-296c58 70 130 105 213 105c155 0 273 -129 273 -280c0 -150 -120 -279 -275 -279c-86 0 -157 38 -211 112zM355 52c123 0 210 101 210 215c0 115 -91 216 -210 216c-109 0 -211 -81 -211 -214c0 -123 91 -217 211 -217z" />
    <glyph glyph-name="c" unicode="c" horiz-adv-x="647" 
d="M537 142l55 -35c-52 -79 -142 -120 -249 -120c-175 0 -292 126 -292 274c0 156 122 284 297 284c102 0 195 -42 244 -124l-55 -34c-47 62 -112 92 -192 92c-135 0 -224 -99 -224 -213c0 -116 88 -217 225 -217c77 0 141 31 191 93z" />
    <glyph glyph-name="d" unicode="d" horiz-adv-x="685" 
d="M539 0v91c-58 -70 -131 -104 -214 -104c-155 0 -272 129 -272 280s120 278 274 278c86 0 159 -37 212 -111v302h68v-736h-68zM333 479c-122 0 -210 -100 -210 -214c0 -115 90 -216 209 -216c109 0 211 82 211 214c0 123 -91 216 -210 216z" />
    <glyph glyph-name="e" unicode="e" horiz-adv-x="650" 
d="M599 260h-478c3 -122 86 -211 200 -211c111 0 164 63 203 127l57 -30c-54 -106 -137 -159 -253 -159c-176 0 -277 135 -277 277c0 145 107 281 273 281c151 0 273 -109 275 -285zM128 320h396c-28 110 -107 159 -199 159c-95 0 -166 -51 -197 -159z" />
    <glyph glyph-name="f" unicode="f" horiz-adv-x="314" 
d="M108 531v83c0 86 21 137 108 137c29 0 56 -8 78 -15v-67c-16 7 -37 16 -64 16c-56 0 -54 -34 -54 -82v-72h112v-60h-112v-471h-68v471h-70v60h70z" />
    <glyph glyph-name="g" unicode="g" horiz-adv-x="673" 
d="M603 531v-423c0 -87 -5 -159 -48 -218c-45 -61 -124 -97 -225 -97c-153 0 -227 62 -274 165h74c40 -70 102 -103 196 -103c88 0 153 32 185 90c20 37 23 75 23 116v40c-53 -67 -130 -101 -213 -101c-147 0 -272 112 -272 269c0 158 131 276 272 276
c94 0 157 -40 213 -106v92h69zM332 479c-119 0 -213 -91 -213 -214c0 -106 75 -199 215 -199c116 0 203 80 203 204c0 128 -95 209 -205 209z" />
    <glyph glyph-name="h" unicode="h" horiz-adv-x="610" 
d="M76 0v736h68v-300c55 72 120 109 199 109c115 0 196 -81 196 -240v-305h-68v289c0 125 -38 194 -141 194c-57 0 -104 -25 -140 -72c-39 -51 -46 -103 -46 -188v-223h-68z" />
    <glyph glyph-name="i" unicode="i" horiz-adv-x="200" 
d="M67 0v531h68v-531h-68zM100 750c31 0 57 -25 57 -56s-26 -57 -57 -57s-56 26 -56 57c0 32 26 56 56 56z" />
    <glyph glyph-name="j" unicode="j" horiz-adv-x="203" 
d="M69 -80v611h68v-611c0 -85 -30 -129 -91 -129c-30 0 -56 9 -77 17v62c12 -6 28 -13 49 -13c32 0 51 21 51 63zM102 750c31 0 57 -25 57 -56s-26 -57 -57 -57s-56 26 -56 57s25 56 56 56z" />
    <glyph glyph-name="k" unicode="k" horiz-adv-x="502" 
d="M77 0v736h68v-419l245 214h101l-291 -253l308 -278h-97l-266 239v-239h-68z" />
    <glyph glyph-name="l" unicode="l" horiz-adv-x="200" 
d="M66 0v736h68v-736h-68z" />
    <glyph glyph-name="m" unicode="m" horiz-adv-x="938" 
d="M505 232v-232h-68v272c0 41 -4 75 -5 99c-3 58 -50 108 -120 108c-47 0 -94 -23 -124 -62c-38 -49 -45 -112 -45 -192v-225h-68v531h68v-91c47 68 106 105 182 105c81 0 139 -42 168 -128c47 85 117 128 195 128c110 0 181 -79 181 -230v-315h-68v290c0 39 -5 70 -6 90
c-3 47 -48 99 -120 99c-66 0 -124 -40 -151 -108c-17 -43 -19 -90 -19 -139z" />
    <glyph glyph-name="n" unicode="n" horiz-adv-x="610" 
d="M144 531v-95c55 72 121 109 199 109c116 0 197 -80 197 -247v-298h-68v289c0 125 -39 194 -142 194c-57 0 -104 -25 -140 -72c-40 -52 -46 -104 -46 -188v-223h-68v531h68z" />
    <glyph glyph-name="o" unicode="o" horiz-adv-x="655" 
d="M328 545c159 0 277 -129 277 -281c0 -151 -117 -278 -277 -278s-277 127 -277 278c0 152 118 281 277 281zM328 479c-114 0 -207 -98 -207 -216c0 -116 87 -211 207 -211c119 0 207 95 207 211c0 118 -94 216 -207 216z" />
    <glyph glyph-name="p" unicode="p" horiz-adv-x="682" 
d="M145 531v-97c53 74 126 111 211 111c155 0 275 -127 275 -278s-117 -280 -273 -280c-83 0 -155 34 -213 104v-285h-68v725h68zM351 479c-119 0 -211 -93 -211 -216c0 -132 102 -214 211 -214c118 0 210 100 210 216c0 114 -88 214 -210 214z" />
    <glyph glyph-name="q" unicode="q" horiz-adv-x="682" 
d="M538 434v97h68v-725h-68v285c-58 -70 -131 -104 -214 -104c-155 0 -272 129 -272 280s120 278 274 278c86 0 159 -37 212 -111zM332 479c-122 0 -210 -100 -210 -214c0 -115 90 -216 209 -216c109 0 211 82 211 214c0 123 -91 216 -210 216z" />
    <glyph glyph-name="r" unicode="r" horiz-adv-x="301" 
d="M121 531v-77c40 58 83 91 137 91c31 0 47 -10 61 -18l-36 -58c-8 4 -21 10 -36 10c-50 0 -95 -43 -115 -116c-9 -34 -11 -89 -11 -161v-202h-72v531h72z" />
    <glyph glyph-name="s" unicode="s" horiz-adv-x="388" 
d="M26 62l43 49c34 -38 71 -59 111 -59c52 0 98 38 98 88c0 31 -18 60 -44 74c-122 68 -184 97 -184 190c0 84 65 141 146 141c58 0 102 -28 147 -72l-44 -45c-32 31 -64 51 -107 51c-44 0 -80 -31 -80 -71c0 -27 17 -57 41 -71c122 -71 190 -98 190 -194
c0 -83 -64 -157 -160 -157c-59 0 -119 27 -157 76z" />
    <glyph glyph-name="t" unicode="t" horiz-adv-x="339" 
d="M137 531v198h68v-198h109v-60h-109v-471h-68v471h-94v60h94z" />
    <glyph glyph-name="u" unicode="u" horiz-adv-x="608" 
d="M462 272v259h72v-275c0 -179 -81 -269 -233 -269s-234 90 -234 269v275h72v-259c0 -56 0 -102 15 -134c25 -54 80 -85 147 -85c49 0 92 18 120 47c42 45 41 96 41 172z" />
    <glyph glyph-name="v" unicode="v" horiz-adv-x="554" 
d="M271 0l-245 531h73l178 -386l176 386h73l-243 -531h-12z" />
    <glyph glyph-name="w" unicode="w" horiz-adv-x="831" 
d="M230 0l-226 531h71l162 -385l170 385h12l171 -385l165 385h71l-230 -531h-13l-169 380l-170 -380h-14z" />
    <glyph glyph-name="x" unicode="x" horiz-adv-x="480" 
d="M197 279l-182 252h82l141 -196l141 196h81l-181 -252l204 -279h-83l-162 223l-160 -223h-82z" />
    <glyph glyph-name="y" unicode="y" horiz-adv-x="536" 
d="M237 40l-218 491h72l183 -409l177 409h73l-317 -725h-72z" />
    <glyph glyph-name="z" unicode="z" horiz-adv-x="425" 
d="M32 471v60h391l-301 -471h291v-60h-409l301 471h-273z" />
    <glyph glyph-name="braceleft" unicode="{" horiz-adv-x="351" 
d="M37 209v80c108 3 102 101 102 251c0 87 21 142 73 166c28 13 55 12 81 12h27v-76h-15c-66 0 -84 -14 -84 -101v-72c0 -134 -25 -183 -103 -220c84 -35 103 -104 103 -221v-71c0 -87 18 -101 84 -101h15v-76h-27c-25 0 -52 -2 -81 12c-52 24 -73 78 -73 165
c0 150 6 249 -102 252z" />
    <glyph glyph-name="bar" unicode="|" horiz-adv-x="672" 
d="M302 -194v930h69v-930h-69z" />
    <glyph glyph-name="braceright" unicode="}" horiz-adv-x="351" 
d="M32 718h27c36 0 70 0 103 -26c37 -29 51 -79 51 -152c0 -150 -6 -248 102 -251v-80c-108 -3 -102 -101 -102 -252c0 -87 -21 -141 -73 -165c-28 -13 -54 -12 -81 -12h-27v76h15c66 0 84 15 84 101v71c0 117 18 186 102 221c-78 37 -102 86 -102 220v72
c0 86 -18 101 -84 101h-15v76z" />
    <glyph glyph-name="asciitilde" unicode="~" horiz-adv-x="606" 
d="M55 310v78c43 25 81 47 124 47c85 0 183 -81 248 -81c36 0 71 23 124 55v-79c-44 -25 -83 -46 -123 -46c-86 0 -183 77 -245 77c-39 0 -79 -22 -128 -51z" />
    <glyph glyph-name="exclamdown" unicode="&#xa1;" horiz-adv-x="295" 
d="M183 -208h-69v557h69v-557zM147 543c33 0 60 -28 60 -62s-28 -60 -60 -60c-33 0 -60 26 -60 60c0 33 26 62 60 62z" />
    <glyph glyph-name="cent" unicode="&#xa2;" horiz-adv-x="554" 
d="M404 529l65 125l59 -29l-64 -125c15 -10 33 -22 56 -46l-41 -52c-10 10 -22 21 -47 37l-192 -373c20 -8 42 -15 70 -15c55 0 102 23 150 61l44 -51c-51 -46 -123 -76 -193 -76c-41 0 -75 11 -102 20l-74 -144l-57 30l74 148c-67 60 -102 128 -102 222
c0 159 110 284 265 284c33 0 62 -6 89 -16zM184 102l189 367c-15 5 -34 10 -59 10c-105 0 -194 -80 -194 -214c0 -72 21 -123 64 -163z" />
    <glyph glyph-name="sterling" unicode="&#xa3;" horiz-adv-x="554" 
d="M130 -18c-53 0 -102 29 -102 92c0 65 52 113 109 113c30 0 52 -10 70 -19c1 15 3 35 3 53c0 41 -8 88 -22 128h-139v63h124c-17 61 -36 113 -36 163c0 88 77 161 177 161c95 0 159 -62 169 -187h-66c-2 74 -37 121 -101 121c-60 0 -109 -34 -109 -98c0 -41 11 -71 17 -89
l22 -71h156v-63h-140c7 -24 18 -61 18 -129c0 -25 0 -54 -10 -91c53 -45 111 -74 134 -74c34 0 48 38 52 113h69v-9c0 -96 -41 -177 -113 -177c-44 0 -109 29 -166 78c-27 -52 -66 -78 -116 -78zM188 101c-16 10 -33 20 -55 20s-38 -16 -38 -37s14 -36 33 -36
c28 0 46 21 60 53z" />
    <glyph glyph-name="fraction" unicode="&#x2044;" horiz-adv-x="166" 
d="M-116 -18h-54l451 754h54z" />
    <glyph glyph-name="yen" unicode="&#xa5;" horiz-adv-x="554" 
d="M276 424l166 294h81l-204 -359h174v-57h-181v-75h181v-57h-181v-170h-72v170h-180v57h180v75h-180v57h172l-202 359h82z" />
    <glyph glyph-name="florin" unicode="&#x192;" horiz-adv-x="554" 
d="M324 574l-20 -143h112l-8 -60h-113l-53 -347c-23 -148 -68 -231 -156 -231c-31 0 -52 11 -70 23l9 60c14 -11 28 -21 54 -21c54 0 83 55 101 180l49 336h-69l8 60h69l24 156c7 43 15 74 19 91c6 29 45 73 94 73c32 0 59 -14 86 -33l-9 -65c-23 22 -46 36 -67 36
c-44 0 -52 -57 -60 -115z" />
    <glyph glyph-name="section" unicode="&#xa7;" horiz-adv-x="615" 
d="M104 595c0 94 73 156 181 156c107 0 174 -61 185 -168h-71c-7 63 -50 98 -113 98c-68 0 -112 -37 -112 -88c0 -137 313 -171 313 -339c0 -61 -47 -126 -139 -144c69 -43 105 -105 105 -165c0 -90 -76 -154 -179 -154c-106 0 -181 63 -195 142h72c19 -53 64 -76 118 -76
c66 0 114 36 114 87c0 140 -319 183 -319 357c0 59 41 121 126 146c-51 37 -86 78 -86 148zM247 410c-67 -10 -113 -49 -113 -106c0 -51 39 -93 156 -155c80 10 127 54 127 106c0 56 -55 87 -170 155z" />
    <glyph glyph-name="currency" unicode="&#xa4;" horiz-adv-x="614" 
d="M527 174c-13 -13 -24 -25 -36 -37c-23 22 -45 44 -67 66c-32 -25 -73 -40 -117 -40c-34 0 -80 9 -118 40l-66 -66c-13 12 -24 24 -36 37c22 21 45 43 67 64c-23 32 -39 72 -39 116s14 86 39 116c-22 22 -45 43 -67 65c12 13 23 25 36 37l66 -66c41 30 84 40 118 40
c37 0 84 -13 116 -40c22 22 45 44 68 66c12 -12 23 -24 36 -37c-23 -22 -46 -43 -68 -65c28 -35 40 -77 40 -116c0 -43 -15 -82 -40 -116c22 -21 45 -43 68 -64zM448 355c0 83 -71 140 -140 140c-82 0 -142 -65 -142 -140c0 -76 63 -142 141 -142c77 0 141 65 141 142z" />
    <glyph glyph-name="quotesingle" unicode="'" horiz-adv-x="198" 
d="M135 736l-11 -226h-50l-11 226h72z" />
    <glyph glyph-name="quotedblleft" unicode="&#x201c;" horiz-adv-x="502" 
d="M100 468v95c0 80 15 120 42 173l37 -21c-16 -32 -29 -58 -34 -113h43v-134h-88zM318 468v95c0 81 15 121 41 173l38 -21c-15 -30 -29 -55 -35 -113h44v-134h-88z" />
    <glyph glyph-name="guillemotleft" unicode="&#xab;" horiz-adv-x="425" 
d="M119 531h72l-109 -266l109 -265h-72l-109 265zM342 531h72l-109 -266l109 -265h-72l-109 265z" />
    <glyph glyph-name="guilsinglleft" unicode="&#x2039;" horiz-adv-x="251" 
d="M145 531h72l-109 -266l109 -265h-72l-109 265z" />
    <glyph glyph-name="guilsinglright" unicode="&#x203a;" horiz-adv-x="251" 
d="M106 0h-72l109 266l-109 265h72l109 -265z" />
    <glyph glyph-name="endash" unicode="&#x2013;" horiz-adv-x="500" 
d="M-6 248v63h512v-63h-512z" />
    <glyph glyph-name="dagger" unicode="&#x2020;" horiz-adv-x="553" 
d="M253 513l-14 223h73l-12 -223l176 11v-73l-176 12l14 -616h-75l14 616l-176 -12v73z" />
    <glyph glyph-name="daggerdbl" unicode="&#x2021;" horiz-adv-x="553" 
d="M253 563l-13 173h73l-12 -173l175 12v-72l-175 12l12 -223l-12 -221l175 10v-73l-175 14l12 -175h-73l13 175l-175 -14v73l175 -10l-13 221l13 223l-175 -12v72z" />
    <glyph glyph-name="periodcentered" unicode="&#xb7;" horiz-adv-x="277" 
d="M138 421c32 0 60 -28 60 -62s-27 -60 -60 -60c-34 0 -60 27 -60 60s27 62 60 62z" />
    <glyph glyph-name="paragraph" unicode="&#xb6;" horiz-adv-x="564" 
d="M294 -113h-58v458h-25c-79 0 -165 70 -165 195c0 113 63 199 203 199h250v-37h-41v-815h-58v815h-106v-815z" />
    <glyph glyph-name="bullet" unicode="&#x2022;" horiz-adv-x="606" 
d="M303 514c82 0 150 -67 150 -150c0 -82 -66 -150 -150 -150s-150 68 -150 150c0 83 67 150 150 150z" />
    <glyph glyph-name="quotesinglbase" unicode="&#x201a;" horiz-adv-x="354" 
d="M213 134v-94c0 -76 -12 -117 -41 -174l-38 21c15 31 28 56 34 113h-43v134h88z" />
    <glyph glyph-name="quotedblbase" unicode="&#x201e;" horiz-adv-x="502" 
d="M403 134v-94c0 -77 -14 -118 -42 -174l-38 21c15 31 29 57 34 113h-42v134h88zM185 134v-94c0 -77 -13 -118 -41 -174l-38 21c15 30 28 55 34 113h-43v134h88z" />
    <glyph glyph-name="quotedblright" unicode="&#x201d;" horiz-adv-x="484" 
d="M394 736v-94c0 -76 -13 -117 -42 -174l-38 22c15 31 29 56 34 112h-42v134h88zM176 736v-94c0 -76 -12 -117 -41 -174l-38 22c15 30 28 54 34 112h-43v134h88z" />
    <glyph glyph-name="guillemotright" unicode="&#xbb;" horiz-adv-x="425" 
d="M306 0h-73l109 266l-109 265h73l108 -265zM82 0h-72l109 266l-109 265h72l109 -265z" />
    <glyph glyph-name="ellipsis" unicode="&#x2026;" horiz-adv-x="1000" 
d="M501 108c32 0 60 -27 60 -61s-27 -61 -60 -61s-60 28 -60 61s27 61 60 61zM167 108c32 0 60 -27 60 -61s-27 -61 -60 -61c-34 0 -60 28 -60 61s27 61 60 61zM834 108c33 0 60 -27 60 -61s-27 -61 -60 -61s-60 27 -60 61s28 61 60 61z" />
    <glyph glyph-name="perthousand" unicode="&#x2030;" horiz-adv-x="1174" 
d="M618 750h58l-523 -800h-65l476 729c-67 -16 -138 -21 -213 -21c-4 0 -15 1 -19 1c19 -26 30 -52 30 -92c0 -84 -67 -169 -171 -169c-97 0 -167 77 -167 168c0 103 85 170 168 170c38 0 83 -22 197 -22c108 0 179 22 229 36zM193 674c-59 0 -107 -48 -107 -107
c0 -71 54 -107 107 -107c54 0 107 36 107 107c0 54 -53 107 -107 107zM416 148c0 113 85 169 169 169c85 0 169 -56 169 -169c0 -85 -84 -169 -169 -169c-93 0 -169 76 -169 169zM692 148c0 66 -61 107 -118 107c-49 0 -96 -31 -96 -107c0 -59 48 -106 107 -106
s107 47 107 106zM806 148c0 113 85 169 169 169c85 0 169 -56 169 -169c0 -85 -84 -169 -169 -169c-93 0 -169 76 -169 169zM1082 148c0 66 -61 107 -118 107c-49 0 -96 -31 -96 -107c0 -59 48 -106 107 -106s107 47 107 106z" />
    <glyph glyph-name="questiondown" unicode="&#xbf;" horiz-adv-x="591" 
d="M186 201h-72c5 114 77 171 178 171c104 0 174 -60 174 -141c0 -63 -39 -103 -109 -131c-134 -55 -197 -72 -197 -138c0 -60 57 -100 133 -100c84 0 141 45 144 143h71c-1 -136 -88 -213 -214 -213c-131 0 -204 76 -204 168c0 108 94 142 222 193c52 21 79 44 79 79
c0 36 -36 74 -99 74c-68 0 -99 -36 -106 -105zM295 543c33 0 60 -28 60 -62s-28 -60 -60 -60s-60 26 -60 60s27 62 60 62z" />
    <glyph glyph-name="grave" unicode="`" horiz-adv-x="378" 
d="M54 781h105l107 -151h-68z" />
    <glyph glyph-name="acute" unicode="&#xb4;" horiz-adv-x="375" 
d="M114 630l107 151h105l-145 -151h-67z" />
    <glyph glyph-name="circumflex" unicode="&#x2c6;" horiz-adv-x="502" 
d="M74 628l145 125h68l142 -125h-89l-86 74l-89 -74h-91z" />
    <glyph glyph-name="tilde" unicode="&#x2dc;" horiz-adv-x="439" 
d="M290 704c27 0 51 11 74 24l34 -47c-33 -24 -63 -43 -110 -43c-64 0 -93 41 -139 41c-32 0 -53 -18 -77 -35l-32 50c30 32 67 47 110 47c56 0 95 -37 140 -37z" />
    <glyph glyph-name="macron" unicode="&#xaf;" horiz-adv-x="485" 
d="M74 663v60h337v-60h-337z" />
    <glyph glyph-name="breve" unicode="&#x2d8;" horiz-adv-x="453" 
d="M337 745h62c-14 -57 -71 -103 -171 -103c-94 0 -158 40 -175 103h64c23 -35 59 -51 111 -51c51 0 80 12 109 51z" />
    <glyph glyph-name="dotaccent" unicode="&#x2d9;" horiz-adv-x="222" 
d="M111 741c31 0 56 -26 56 -57s-25 -56 -56 -56s-57 25 -57 56s26 57 57 57z" />
    <glyph glyph-name="dieresis" unicode="&#xa8;" horiz-adv-x="369" 
d="M85 741c31 0 56 -26 56 -57s-25 -56 -56 -56s-57 25 -57 56s26 57 57 57zM284 741c31 0 56 -26 56 -57s-25 -56 -56 -56s-57 25 -57 56s26 57 57 57z" />
    <glyph glyph-name="ring" unicode="&#x2da;" 
d="M167 820c56 0 101 -44 101 -101c0 -56 -45 -102 -101 -102s-102 46 -102 102s45 101 102 101zM167 778c-34 1 -59 -26 -59 -59c0 -34 28 -59 59 -59c33 0 59 27 59 59c1 33 -27 59 -59 59z" />
    <glyph glyph-name="cedilla" unicode="&#xb8;" horiz-adv-x="324" 
d="M139 -99l13 99h43l-8 -58c7 1 10 2 17 2c30 0 57 -19 57 -52c0 -44 -42 -78 -112 -78c-27 0 -55 5 -81 15l11 34c18 -6 38 -10 58 -10c42 0 66 11 66 32c0 12 -12 21 -30 21c-10 0 -25 -3 -34 -5z" />
    <glyph glyph-name="hungarumlaut" unicode="&#x2dd;" horiz-adv-x="552" 
d="M126 630l107 151h105l-145 -151h-67zM280 630l107 151h105l-144 -151h-68z" />
    <glyph glyph-name="ogonek" unicode="&#x2db;" horiz-adv-x="302" 
d="M251 -145l-5 -42c-14 -3 -29 -4 -42 -4c-84 0 -111 49 -111 87c0 39 20 77 58 104h53c-36 -31 -59 -59 -59 -93c0 -27 20 -55 72 -55c11 0 25 2 34 3z" />
    <glyph glyph-name="caron" unicode="&#x2c7;" horiz-adv-x="502" 
d="M429 753l-145 -125h-68l-142 125h88l86 -74l90 74h91z" />
    <glyph glyph-name="emdash" unicode="&#x2014;" horiz-adv-x="1000" 
d="M-6 248v63h1012v-63h-1012z" />
    <glyph glyph-name="AE" unicode="&#xc6;" horiz-adv-x="992" 
d="M237 236l-152 -236h-84l464 718h444v-70h-338v-224h338v-70h-338v-284h338v-70h-410v236h-262zM499 303v332l-216 -332h216z" />
    <glyph glyph-name="ordfeminine" unicode="&#xaa;" horiz-adv-x="369" 
d="M269 728h56v-332h-56v46c-26 -34 -62 -54 -101 -54c-78 0 -140 78 -140 175c0 96 63 173 141 173c40 0 73 -19 100 -56v48zM178 684c-53 0 -93 -56 -93 -123s41 -121 93 -121c47 0 94 43 94 120c0 71 -42 124 -94 124z" />
    <glyph glyph-name="Lslash" unicode="&#x141;" horiz-adv-x="517" 
d="M215 718v-299l129 108v-86l-129 -108v-263h276v-70h-348v273l-99 -82v85l99 82v360h72z" />
    <glyph glyph-name="Oslash" unicode="&#xd8;" horiz-adv-x="868" 
d="M784 707l-74 -87c64 -65 103 -157 103 -260c0 -211 -164 -378 -378 -378c-80 0 -149 19 -213 62l-80 -94l-52 42l80 95c-74 71 -114 166 -114 269c0 210 161 380 378 380c84 0 159 -23 228 -72l71 85zM662 563l-393 -463c50 -32 104 -48 164 -48c167 0 305 128 305 308
c0 79 -26 147 -76 203zM217 142l396 466c-53 38 -117 58 -180 58c-158 0 -302 -126 -302 -310c0 -85 28 -154 86 -214z" />
    <glyph glyph-name="OE" unicode="&#x152;" horiz-adv-x="1194" 
d="M743 0v139c-76 -96 -160 -157 -306 -157c-229 0 -380 182 -380 374c0 214 169 380 381 380c113 0 226 -53 305 -157v139h410v-70h-339v-224h339v-70h-339v-284h339v-70h-410zM435 666c-160 0 -303 -138 -303 -305c0 -169 133 -309 309 -309c171 0 303 140 303 308
c0 181 -153 306 -309 306z" />
    <glyph glyph-name="ordmasculine" unicode="&#xba;" horiz-adv-x="369" 
d="M184 736c90 0 158 -79 158 -175c0 -95 -68 -173 -158 -173c-91 0 -157 78 -157 173c0 96 67 175 157 175zM185 684c-53 0 -101 -55 -101 -124c0 -67 44 -120 101 -120s100 53 100 120c0 69 -47 124 -100 124z" />
    <glyph glyph-name="ae" unicode="&#xe6;" horiz-adv-x="1157" 
d="M545 434v97h62v-96c58 69 112 110 214 110c159 0 276 -121 276 -274v-12h-478c3 -113 86 -210 209 -210c86 0 148 41 194 125l58 -29c-49 -103 -145 -158 -257 -158c-96 0 -162 37 -216 108v-95h-62v98c-58 -72 -119 -112 -213 -112c-150 0 -274 124 -274 282
c0 160 128 277 272 277c92 0 156 -40 215 -111zM335 479c-113 0 -207 -88 -207 -214c0 -123 92 -213 209 -213c113 0 210 86 210 213c0 136 -98 214 -212 214zM623 319h399c-28 112 -109 160 -198 160c-84 0 -174 -49 -201 -160z" />
    <glyph glyph-name="dotlessi" unicode="&#x131;" horiz-adv-x="200" 
d="M67 0v531h68v-531h-68z" />
    <glyph glyph-name="lslash" unicode="&#x142;" horiz-adv-x="300" 
d="M184 736v-262l98 63v-68l-98 -63v-406h-68v362l-90 -58v68l90 58v306h68z" />
    <glyph glyph-name="oslash" unicode="&#xf8;" horiz-adv-x="653" 
d="M599 517l-60 -71c42 -51 65 -115 65 -182c0 -152 -117 -278 -277 -278c-53 0 -102 13 -146 40l-57 -66l-43 35l55 66c-56 55 -86 126 -86 203c0 153 118 281 276 281c64 0 124 -20 172 -58l57 66zM492 392l-267 -315c32 -17 64 -25 102 -25c120 0 207 94 207 210
c0 46 -15 91 -42 130zM180 112l273 321c-37 29 -81 46 -126 46c-113 0 -207 -98 -207 -216c0 -56 23 -113 60 -151z" />
    <glyph glyph-name="oe" unicode="&#x153;" horiz-adv-x="1138" 
d="M810 545c160 0 273 -129 273 -269c0 -3 -1 -14 -1 -17h-476c9 -141 100 -208 207 -208c85 0 156 42 195 125l58 -30c-59 -109 -137 -161 -255 -161c-135 0 -194 71 -240 136c-59 -89 -141 -136 -239 -136c-155 0 -277 126 -277 283c0 165 135 277 277 277
c106 0 180 -51 239 -141c57 90 128 141 239 141zM329 479c-114 0 -204 -96 -204 -214c0 -123 97 -214 209 -214c108 0 204 85 204 212c0 119 -89 216 -209 216zM612 319h396c-28 107 -105 160 -197 160c-89 0 -168 -48 -199 -160z" />
    <glyph glyph-name="germandbls" unicode="&#xdf;" horiz-adv-x="554" 
d="M242 447h15c92 0 150 56 150 123c0 68 -54 114 -120 114c-71 0 -130 -52 -136 -119c-2 -23 -3 -51 -3 -74v-491h-68v499c0 67 5 118 25 153c36 62 99 98 180 98c116 0 192 -75 192 -176c0 -81 -53 -150 -159 -165c27 -4 56 -7 94 -33c59 -40 92 -102 92 -177
c0 -118 -79 -213 -205 -213c-39 0 -67 4 -101 24v65c28 -13 57 -23 91 -23c81 0 145 58 145 149c0 94 -62 166 -192 170v76z" />
    <glyph glyph-name="logicalnot" unicode="&#xac;" horiz-adv-x="606" 
d="M56 500h495v-282h-68v215h-427v67z" />
    <glyph glyph-name="mu" unicode="&#xb5;" horiz-adv-x="608" 
d="M453 0v58c-36 -45 -81 -70 -148 -70c-64 0 -111 23 -148 68v-250h-68v725h68v-293c0 -37 2 -69 13 -93c24 -50 78 -83 137 -83c67 0 124 45 140 114c6 26 6 42 6 69v286h68v-531h-68z" />
    <glyph glyph-name="trademark" unicode="&#x2122;" horiz-adv-x="1000" 
d="M844 739h116v-421h-72v347l-158 -347h-48l-152 347v-347h-72v421h118l130 -292zM6 739h370v-67h-149v-354h-72v354h-149v67z" />
    <glyph glyph-name="Eth" unicode="&#xd0;" horiz-adv-x="790" 
d="M105 0v326h-88v67h88v325h206c79 0 152 -4 223 -33c129 -52 206 -177 206 -334c0 -204 -124 -351 -355 -351h-280zM362 326h-189v-256h139c137 0 226 12 291 90c42 50 62 115 62 190c0 74 -19 138 -59 190c-69 88 -172 108 -328 108h-105v-255h189v-67z" />
    <glyph glyph-name="onehalf" unicode="&#xbd;" horiz-adv-x="831" 
d="M51 679l35 48h92v-369h-54v321h-73zM173 -18h-54l451 754h54zM478 0l175 158c48 44 77 70 77 106c0 37 -37 67 -86 67c-52 0 -88 -29 -93 -87h-51c1 84 67 135 147 135c81 0 136 -53 136 -115c0 -51 -34 -85 -86 -132l-92 -84h184v-48h-311z" />
    <glyph glyph-name="plusminus" unicode="&#xb1;" horiz-adv-x="606" 
d="M57 79h494v-67h-494v67zM57 446h214v212h68v-212h212v-67h-212v-212h-68v212h-214v67z" />
    <glyph glyph-name="Thorn" unicode="&#xde;" horiz-adv-x="592" 
d="M87 0v718h72v-167h71c95 0 160 -7 189 -18c73 -29 118 -93 118 -174c0 -68 -32 -125 -83 -157s-125 -36 -224 -36h-71v-166h-72zM286 481h-127v-244c41 -1 82 -1 119 -1c62 0 110 4 142 30c25 21 42 57 42 93c0 37 -18 73 -45 94c-32 24 -75 28 -131 28z" />
    <glyph glyph-name="onequarter" unicode="&#xbc;" horiz-adv-x="831" 
d="M56 679l35 48h92v-369h-54v321h-73zM199 -18h-54l451 754h54zM478 83l265 305v-257h51v-48h-51v-83h-54v83h-211zM584 131h105v120z" />
    <glyph glyph-name="divide" unicode="&#xf7;" horiz-adv-x="606" 
d="M255 491v99h98v-99h-98zM255 128v100h98v-100h-98zM57 326v67h494v-67h-494z" />
    <glyph glyph-name="brokenbar" unicode="&#xa6;" horiz-adv-x="672" 
d="M371 116v-310h-69v310h69zM371 736v-310h-69v310h69z" />
    <glyph glyph-name="degree" unicode="&#xb0;" horiz-adv-x="400" 
d="M369 569c0 -100 -81 -169 -168 -169c-96 0 -169 79 -169 164c0 109 85 172 169 172c89 0 168 -69 168 -167zM311 567c0 65 -46 117 -111 117c-57 0 -110 -48 -110 -119c0 -59 52 -113 108 -113c70 0 113 57 113 115z" />
    <glyph glyph-name="thorn" unicode="&#xfe;" horiz-adv-x="682" 
d="M77 -194v930h69v-302c53 74 125 111 210 111c155 0 275 -127 275 -278s-117 -281 -273 -281c-83 0 -154 35 -212 105v-285h-69zM351 479c-119 0 -211 -93 -211 -216c0 -132 102 -214 211 -214c118 0 210 100 210 216c0 114 -88 214 -210 214z" />
    <glyph glyph-name="threequarters" unicode="&#xbe;" horiz-adv-x="831" 
d="M252 638c0 26 -29 50 -72 50s-62 -23 -77 -57h-55c18 71 66 105 132 105c74 0 128 -45 128 -98c0 -29 -16 -53 -44 -72c44 -21 67 -56 67 -95c0 -61 -56 -122 -150 -122c-79 0 -132 39 -147 118h53c12 -44 38 -70 94 -70c59 0 96 34 96 71c0 47 -46 68 -124 71v46
c66 3 99 22 99 53zM252 -18h-53l450 754h55zM508 83l265 305v-257h52v-48h-52v-83h-54v83h-211zM614 131h105v120z" />
    <glyph glyph-name="registered" unicode="&#xae;" horiz-adv-x="747" 
d="M221 165v419h176c28 0 56 0 76 -7c45 -15 73 -57 73 -107c0 -58 -23 -76 -53 -96c37 -18 48 -38 48 -95v-47c0 -40 15 -55 22 -67h-74c-7 27 -9 47 -10 62l-3 51c-3 45 -15 62 -66 62h-121v-175h-68zM395 524h-106v-124h118c48 0 72 19 72 62c0 57 -39 62 -84 62z
M738 372c0 -204 -167 -363 -364 -363c-201 0 -365 160 -365 363c0 196 158 364 365 364c203 0 364 -166 364 -364zM687 372c0 170 -138 316 -313 316s-315 -143 -315 -316c0 -178 145 -315 315 -315s313 139 313 315z" />
    <glyph glyph-name="minus" unicode="&#x2212;" horiz-adv-x="606" 
d="M56 326v67h494v-67h-494z" />
    <glyph glyph-name="eth" unicode="&#xf0;" horiz-adv-x="655" 
d="M206 636l85 35c-29 25 -61 50 -81 65h96c16 -12 34 -25 50 -38l80 33l25 -52l-57 -23c134 -130 201 -258 201 -379c0 -163 -116 -291 -280 -291c-151 0 -274 122 -274 281c0 165 132 277 268 277c54 0 91 -16 122 -31c-47 64 -82 95 -104 115l-106 -44zM332 481
c-107 0 -211 -79 -211 -212c0 -129 96 -217 206 -217c113 0 208 87 208 215c0 127 -88 214 -203 214z" />
    <glyph glyph-name="multiply" unicode="&#xd7;" horiz-adv-x="606" 
d="M510 521l-162 -162l162 -162l-45 -45l-162 162l-162 -162l-45 45l162 162l-162 162l45 45l162 -162l162 162z" />
    <glyph glyph-name="copyright" unicode="&#xa9;" horiz-adv-x="747" 
d="M489 325h63c-12 -100 -78 -166 -181 -166c-108 0 -188 73 -188 219c0 131 82 216 193 216c99 0 167 -52 176 -144h-63c-13 54 -47 82 -111 82c-81 0 -129 -61 -129 -159c0 -105 48 -162 127 -162c57 0 102 37 113 114zM738 373c0 -202 -164 -362 -364 -362
s-365 161 -365 362c0 202 164 363 365 363c200 0 364 -160 364 -363zM687 373c0 174 -140 315 -313 315c-174 0 -315 -141 -315 -315s142 -314 315 -314c172 0 313 140 313 314z" />
    <glyph glyph-name="Aacute" unicode="&#xc1;" horiz-adv-x="740" 
d="M364 718h17l335 -718h-77l-113 236h-310l-112 -236h-80zM494 306l-122 260l-124 -260h246zM296 780l107 151h105l-145 -151h-67z" />
    <glyph glyph-name="Acircumflex" unicode="&#xc2;" horiz-adv-x="740" 
d="M364 718h17l335 -718h-77l-113 236h-310l-112 -236h-80zM494 306l-122 260l-124 -260h246zM193 778l145 125h68l142 -125h-89l-86 74l-89 -74h-91z" />
    <glyph glyph-name="Adieresis" unicode="&#xc4;" horiz-adv-x="740" 
d="M364 718h17l335 -718h-77l-113 236h-310l-112 -236h-80zM494 306l-122 260l-124 -260h246zM270 891c31 0 56 -26 56 -57s-25 -56 -56 -56s-57 25 -57 56s26 57 57 57zM469 891c31 0 56 -26 56 -57s-25 -56 -56 -56s-57 25 -57 56s26 57 57 57z" />
    <glyph glyph-name="Agrave" unicode="&#xc0;" horiz-adv-x="740" 
d="M364 718h17l335 -718h-77l-113 236h-310l-112 -236h-80zM494 306l-122 260l-124 -260h246zM235 931h105l107 -151h-68z" />
    <glyph glyph-name="Aring" unicode="&#xc5;" horiz-adv-x="740" 
d="M364 718h17l335 -718h-77l-113 236h-310l-112 -236h-80zM494 306l-122 260l-124 -260h246zM371 970c56 0 101 -44 101 -101c0 -56 -45 -102 -101 -102s-102 46 -102 102s45 101 102 101zM371 928c-34 1 -59 -26 -59 -59c0 -34 28 -59 59 -59c33 0 59 27 59 59
c1 33 -27 59 -59 59z" />
    <glyph glyph-name="Atilde" unicode="&#xc3;" horiz-adv-x="740" 
d="M364 718h17l335 -718h-77l-113 236h-310l-112 -236h-80zM494 306l-122 260l-124 -260h246zM441 854c27 0 51 11 74 24l34 -47c-33 -24 -63 -43 -110 -43c-64 0 -93 41 -139 41c-32 0 -53 -18 -77 -35l-32 50c30 32 67 47 110 47c56 0 95 -37 140 -37z" />
    <glyph glyph-name="Ccedilla" unicode="&#xc7;" horiz-adv-x="813" 
d="M383 -99l11 85c-212 20 -339 180 -339 377c0 212 164 373 387 373c132 0 243 -52 314 -151l-57 -43c-63 83 -153 124 -256 124c-170 0 -313 -126 -313 -309c0 -178 136 -308 317 -308c100 0 185 41 252 119l57 -43c-74 -93 -183 -142 -314 -142h-6l-5 -41c7 1 10 2 17 2
c30 0 57 -19 57 -52c0 -44 -42 -78 -112 -78c-27 0 -55 5 -81 15l11 34c18 -6 38 -10 58 -10c42 0 66 11 66 32c0 12 -12 21 -30 21c-10 0 -25 -3 -34 -5z" />
    <glyph glyph-name="Eacute" unicode="&#xc9;" horiz-adv-x="536" 
d="M88 0v718h410v-70h-338v-225h338v-70h-338v-283h338v-70h-410zM225 780l107 151h105l-145 -151h-67z" />
    <glyph glyph-name="Ecircumflex" unicode="&#xca;" horiz-adv-x="536" 
d="M88 0v718h410v-70h-338v-225h338v-70h-338v-283h338v-70h-410zM121 778l145 125h68l142 -125h-89l-86 74l-89 -74h-91z" />
    <glyph glyph-name="Edieresis" unicode="&#xcb;" horiz-adv-x="536" 
d="M88 0v718h410v-70h-338v-225h338v-70h-338v-283h338v-70h-410zM199 891c31 0 56 -26 56 -57s-25 -56 -56 -56s-57 25 -57 56s26 57 57 57zM398 891c31 0 56 -26 56 -57s-25 -56 -56 -56s-57 25 -57 56s26 57 57 57z" />
    <glyph glyph-name="Egrave" unicode="&#xc8;" horiz-adv-x="536" 
d="M88 0v718h410v-70h-338v-225h338v-70h-338v-283h338v-70h-410zM153 931h105l107 -151h-68z" />
    <glyph glyph-name="Iacute" unicode="&#xcd;" horiz-adv-x="226" 
d="M77 0v718h72v-718h-72zM41 780l107 151h105l-145 -151h-67z" />
    <glyph glyph-name="Icircumflex" unicode="&#xce;" horiz-adv-x="226" 
d="M77 0v718h72v-718h-72zM-63 778l145 125h68l142 -125h-89l-86 74l-89 -74h-91z" />
    <glyph glyph-name="Idieresis" unicode="&#xcf;" horiz-adv-x="226" 
d="M77 0v718h72v-718h-72zM15 891c31 0 56 -26 56 -57s-25 -56 -56 -56s-57 25 -57 56s26 57 57 57zM214 891c31 0 56 -26 56 -57s-25 -56 -56 -56s-57 25 -57 56s26 57 57 57z" />
    <glyph glyph-name="Igrave" unicode="&#xcc;" horiz-adv-x="226" 
d="M77 0v718h72v-718h-72zM-21 931h105l107 -151h-68z" />
    <glyph glyph-name="Ntilde" unicode="&#xd1;" horiz-adv-x="740" 
d="M161 0h-72v718h15l476 -550v550h72v-718h-16l-475 543v-543zM441 854c27 0 51 11 74 24l34 -47c-33 -24 -63 -43 -110 -43c-64 0 -93 41 -139 41c-32 0 -53 -18 -77 -35l-32 50c30 32 67 47 110 47c56 0 95 -37 140 -37z" />
    <glyph glyph-name="Oacute" unicode="&#xd3;" horiz-adv-x="869" 
d="M429 736c218 0 384 -163 384 -377c0 -211 -165 -377 -378 -377c-221 0 -379 173 -379 374c0 214 166 380 373 380zM433 666c-158 0 -302 -126 -302 -310c0 -177 140 -304 302 -304c168 0 305 128 305 308c0 182 -146 306 -305 306zM361 780l107 151h105l-145 -151h-67z
" />
    <glyph glyph-name="Ocircumflex" unicode="&#xd4;" horiz-adv-x="869" 
d="M429 736c218 0 384 -163 384 -377c0 -211 -165 -377 -378 -377c-221 0 -379 173 -379 374c0 214 166 380 373 380zM433 666c-158 0 -302 -126 -302 -310c0 -177 140 -304 302 -304c168 0 305 128 305 308c0 182 -146 306 -305 306zM257 778l145 125h68l142 -125h-89
l-86 74l-89 -74h-91z" />
    <glyph glyph-name="Odieresis" unicode="&#xd6;" horiz-adv-x="869" 
d="M429 736c218 0 384 -163 384 -377c0 -211 -165 -377 -378 -377c-221 0 -379 173 -379 374c0 214 166 380 373 380zM433 666c-158 0 -302 -126 -302 -310c0 -177 140 -304 302 -304c168 0 305 128 305 308c0 182 -146 306 -305 306zM335 891c31 0 56 -26 56 -57
s-25 -56 -56 -56s-57 25 -57 56s26 57 57 57zM534 891c31 0 56 -26 56 -57s-25 -56 -56 -56s-57 25 -57 56s26 57 57 57z" />
    <glyph glyph-name="Ograve" unicode="&#xd2;" horiz-adv-x="869" 
d="M429 736c218 0 384 -163 384 -377c0 -211 -165 -377 -378 -377c-221 0 -379 173 -379 374c0 214 166 380 373 380zM433 666c-158 0 -302 -126 -302 -310c0 -177 140 -304 302 -304c168 0 305 128 305 308c0 182 -146 306 -305 306zM299 931h105l107 -151h-68z" />
    <glyph glyph-name="Otilde" unicode="&#xd5;" horiz-adv-x="869" 
d="M429 736c218 0 384 -163 384 -377c0 -211 -165 -377 -378 -377c-221 0 -379 173 -379 374c0 214 166 380 373 380zM433 666c-158 0 -302 -126 -302 -310c0 -177 140 -304 302 -304c168 0 305 128 305 308c0 182 -146 306 -305 306zM505 854c27 0 51 11 74 24l34 -47
c-33 -24 -63 -43 -110 -43c-64 0 -93 41 -139 41c-32 0 -53 -18 -77 -35l-32 50c30 32 67 47 110 47c56 0 95 -37 140 -37z" />
    <glyph glyph-name="Scaron" unicode="&#x160;" horiz-adv-x="498" 
d="M421 619l-58 -45c-39 51 -73 88 -132 88c-62 0 -97 -44 -97 -91c0 -39 23 -80 64 -111c135 -100 234 -169 234 -285c0 -101 -85 -193 -202 -193c-99 0 -164 55 -217 152l61 37c43 -79 95 -119 150 -119c75 0 133 55 133 122c0 79 -74 124 -237 256c-34 27 -61 84 -61 138
c0 99 77 168 174 168c88 0 141 -53 188 -117zM428 903l-145 -125h-68l-142 125h88l86 -74l90 74h91z" />
    <glyph glyph-name="Uacute" unicode="&#xda;" horiz-adv-x="655" 
d="M494 262v456h72v-467c0 -169 -91 -269 -238 -269s-238 100 -238 269v467h72v-456c0 -56 0 -106 38 -153c31 -39 74 -57 128 -57s97 18 128 57c38 47 38 97 38 153zM254 780l107 151h105l-145 -151h-67z" />
    <glyph glyph-name="Ucircumflex" unicode="&#xdb;" horiz-adv-x="655" 
d="M494 262v456h72v-467c0 -169 -91 -269 -238 -269s-238 100 -238 269v467h72v-456c0 -56 0 -106 38 -153c31 -39 74 -57 128 -57s97 18 128 57c38 47 38 97 38 153zM151 778l145 125h68l142 -125h-89l-86 74l-89 -74h-91z" />
    <glyph glyph-name="Udieresis" unicode="&#xdc;" horiz-adv-x="655" 
d="M494 262v456h72v-467c0 -169 -91 -269 -238 -269s-238 100 -238 269v467h72v-456c0 -56 0 -106 38 -153c31 -39 74 -57 128 -57s97 18 128 57c38 47 38 97 38 153zM228 891c31 0 56 -26 56 -57s-25 -56 -56 -56s-57 25 -57 56s26 57 57 57zM427 891c31 0 56 -26 56 -57
s-25 -56 -56 -56s-57 25 -57 56s26 57 57 57z" />
    <glyph glyph-name="Ugrave" unicode="&#xd9;" horiz-adv-x="655" 
d="M494 262v456h72v-467c0 -169 -91 -269 -238 -269s-238 100 -238 269v467h72v-456c0 -56 0 -106 38 -153c31 -39 74 -57 128 -57s97 18 128 57c38 47 38 97 38 153zM193 931h105l107 -151h-68z" />
    <glyph glyph-name="Yacute" unicode="&#xdd;" horiz-adv-x="592" 
d="M262 0v343l-231 375h83l184 -296l181 296h83l-228 -375v-343h-72zM222 780l107 151h105l-145 -151h-67z" />
    <glyph glyph-name="Ydieresis" unicode="&#x178;" horiz-adv-x="592" 
d="M262 0v343l-231 375h83l184 -296l181 296h83l-228 -375v-343h-72zM196 891c31 0 56 -26 56 -57s-25 -56 -56 -56s-57 25 -57 56s26 57 57 57zM395 891c31 0 56 -26 56 -57s-25 -56 -56 -56s-57 25 -57 56s26 57 57 57z" />
    <glyph glyph-name="Zcaron" unicode="&#x17d;" horiz-adv-x="480" 
d="M329 648h-270v70h379l-300 -648h285v-70h-396zM419 903l-145 -125h-68l-142 125h88l86 -74l90 74h91z" />
    <glyph glyph-name="aacute" unicode="&#xe1;" horiz-adv-x="683" 
d="M538 434v97h67v-531h-67v91c-58 -70 -131 -104 -214 -104c-155 0 -272 129 -272 280s120 278 274 278c86 0 159 -37 212 -111zM332 479c-122 0 -210 -100 -210 -214c0 -115 90 -216 209 -216c109 0 212 82 212 214c0 123 -92 216 -211 216zM268 630l107 151h105
l-145 -151h-67z" />
    <glyph glyph-name="acircumflex" unicode="&#xe2;" horiz-adv-x="683" 
d="M538 434v97h67v-531h-67v91c-58 -70 -131 -104 -214 -104c-155 0 -272 129 -272 280s120 278 274 278c86 0 159 -37 212 -111zM332 479c-122 0 -210 -100 -210 -214c0 -115 90 -216 209 -216c109 0 212 82 212 214c0 123 -92 216 -211 216zM165 628l145 125h68l142 -125
h-89l-86 74l-89 -74h-91z" />
    <glyph glyph-name="adieresis" unicode="&#xe4;" horiz-adv-x="683" 
d="M538 434v97h67v-531h-67v91c-58 -70 -131 -104 -214 -104c-155 0 -272 129 -272 280s120 278 274 278c86 0 159 -37 212 -111zM332 479c-122 0 -210 -100 -210 -214c0 -115 90 -216 209 -216c109 0 212 82 212 214c0 123 -92 216 -211 216zM242 741c31 0 56 -26 56 -57
s-25 -56 -56 -56s-57 25 -57 56s26 57 57 57zM441 741c31 0 56 -26 56 -57s-25 -56 -56 -56s-57 25 -57 56s26 57 57 57z" />
    <glyph glyph-name="agrave" unicode="&#xe0;" horiz-adv-x="683" 
d="M538 434v97h67v-531h-67v91c-58 -70 -131 -104 -214 -104c-155 0 -272 129 -272 280s120 278 274 278c86 0 159 -37 212 -111zM332 479c-122 0 -210 -100 -210 -214c0 -115 90 -216 209 -216c109 0 212 82 212 214c0 123 -92 216 -211 216zM207 781h105l107 -151h-68z
" />
    <glyph glyph-name="aring" unicode="&#xe5;" horiz-adv-x="683" 
d="M538 434v97h67v-531h-67v91c-58 -70 -131 -104 -214 -104c-155 0 -272 129 -272 280s120 278 274 278c86 0 159 -37 212 -111zM332 479c-122 0 -210 -100 -210 -214c0 -115 90 -216 209 -216c109 0 212 82 212 214c0 123 -92 216 -211 216zM343 820
c56 0 101 -44 101 -101c0 -56 -45 -102 -101 -102s-102 46 -102 102s45 101 102 101zM343 778c-34 1 -59 -26 -59 -59c0 -34 28 -59 59 -59c33 0 59 27 59 59c1 33 -27 59 -59 59z" />
    <glyph glyph-name="atilde" unicode="&#xe3;" horiz-adv-x="683" 
d="M538 434v97h67v-531h-67v91c-58 -70 -131 -104 -214 -104c-155 0 -272 129 -272 280s120 278 274 278c86 0 159 -37 212 -111zM332 479c-122 0 -210 -100 -210 -214c0 -115 90 -216 209 -216c109 0 212 82 212 214c0 123 -92 216 -211 216zM412 704c27 0 51 11 74 24
l34 -47c-33 -24 -63 -43 -110 -43c-64 0 -93 41 -139 41c-32 0 -53 -18 -77 -35l-32 50c30 32 67 47 110 47c56 0 95 -37 140 -37z" />
    <glyph glyph-name="ccedilla" unicode="&#xe7;" horiz-adv-x="647" 
d="M300 -99l11 88c-157 13 -260 133 -260 272c0 156 122 284 297 284c102 0 195 -42 244 -124l-55 -34c-47 62 -112 92 -192 92c-135 0 -224 -99 -224 -213c0 -116 88 -217 225 -217c77 0 141 31 191 93l55 -35c-50 -77 -136 -117 -238 -120l-6 -45c7 1 10 2 17 2
c30 0 57 -19 57 -52c0 -44 -42 -78 -112 -78c-27 0 -55 5 -81 15l11 34c18 -6 38 -10 58 -10c42 0 66 11 66 32c0 12 -12 21 -30 21c-10 0 -25 -3 -34 -5z" />
    <glyph glyph-name="eacute" unicode="&#xe9;" horiz-adv-x="650" 
d="M599 260h-478c3 -122 86 -211 200 -211c111 0 164 63 203 127l57 -30c-54 -106 -137 -159 -253 -159c-176 0 -277 135 -277 277c0 145 107 281 273 281c151 0 273 -109 275 -285zM128 320h396c-28 110 -107 159 -199 159c-95 0 -166 -51 -197 -159zM251 630l107 151h105
l-145 -151h-67z" />
    <glyph glyph-name="ecircumflex" unicode="&#xea;" horiz-adv-x="650" 
d="M599 260h-478c3 -122 86 -211 200 -211c111 0 164 63 203 127l57 -30c-54 -106 -137 -159 -253 -159c-176 0 -277 135 -277 277c0 145 107 281 273 281c151 0 273 -109 275 -285zM128 320h396c-28 110 -107 159 -199 159c-95 0 -166 -51 -197 -159zM148 628l145 125h68
l142 -125h-89l-86 74l-89 -74h-91z" />
    <glyph glyph-name="edieresis" unicode="&#xeb;" horiz-adv-x="650" 
d="M599 260h-478c3 -122 86 -211 200 -211c111 0 164 63 203 127l57 -30c-54 -106 -137 -159 -253 -159c-176 0 -277 135 -277 277c0 145 107 281 273 281c151 0 273 -109 275 -285zM128 320h396c-28 110 -107 159 -199 159c-95 0 -166 -51 -197 -159zM226 741
c31 0 56 -26 56 -57s-25 -56 -56 -56s-57 25 -57 56s26 57 57 57zM425 741c31 0 56 -26 56 -57s-25 -56 -56 -56s-57 25 -57 56s26 57 57 57z" />
    <glyph glyph-name="egrave" unicode="&#xe8;" horiz-adv-x="650" 
d="M599 260h-478c3 -122 86 -211 200 -211c111 0 164 63 203 127l57 -30c-54 -106 -137 -159 -253 -159c-176 0 -277 135 -277 277c0 145 107 281 273 281c151 0 273 -109 275 -285zM128 320h396c-28 110 -107 159 -199 159c-95 0 -166 -51 -197 -159zM190 781h105l107 -151
h-68z" />
    <glyph glyph-name="iacute" unicode="&#xed;" horiz-adv-x="200" 
d="M67 0v531h68v-531h-68zM28 630l107 151h105l-145 -151h-67z" />
    <glyph glyph-name="icircumflex" unicode="&#xee;" horiz-adv-x="200" 
d="M67 0v531h68v-531h-68zM-76 628l145 125h68l142 -125h-89l-86 74l-89 -74h-91z" />
    <glyph glyph-name="idieresis" unicode="&#xef;" horiz-adv-x="200" 
d="M67 0v531h68v-531h-68zM2 741c31 0 56 -26 56 -57s-25 -56 -56 -56s-57 25 -57 56s26 57 57 57zM201 741c31 0 56 -26 56 -57s-25 -56 -56 -56s-57 25 -57 56s26 57 57 57z" />
    <glyph glyph-name="igrave" unicode="&#xec;" horiz-adv-x="200" 
d="M67 0v531h68v-531h-68zM-34 781h105l107 -151h-68z" />
    <glyph glyph-name="ntilde" unicode="&#xf1;" horiz-adv-x="610" 
d="M144 531v-95c55 72 121 109 199 109c116 0 197 -80 197 -247v-298h-68v289c0 125 -39 194 -142 194c-57 0 -104 -25 -140 -72c-40 -52 -46 -104 -46 -188v-223h-68v531h68zM376 704c27 0 51 11 74 24l34 -47c-33 -24 -63 -43 -110 -43c-64 0 -93 41 -139 41
c-32 0 -53 -18 -77 -35l-32 50c30 32 67 47 110 47c56 0 95 -37 140 -37z" />
    <glyph glyph-name="oacute" unicode="&#xf3;" horiz-adv-x="655" 
d="M328 545c159 0 277 -129 277 -281c0 -151 -117 -278 -277 -278s-277 127 -277 278c0 152 118 281 277 281zM328 479c-114 0 -207 -98 -207 -216c0 -116 87 -211 207 -211c119 0 207 95 207 211c0 118 -94 216 -207 216zM254 630l107 151h105l-145 -151h-67z" />
    <glyph glyph-name="ocircumflex" unicode="&#xf4;" horiz-adv-x="655" 
d="M328 545c159 0 277 -129 277 -281c0 -151 -117 -278 -277 -278s-277 127 -277 278c0 152 118 281 277 281zM328 479c-114 0 -207 -98 -207 -216c0 -116 87 -211 207 -211c119 0 207 95 207 211c0 118 -94 216 -207 216zM151 628l145 125h68l142 -125h-89l-86 74l-89 -74
h-91z" />
    <glyph glyph-name="odieresis" unicode="&#xf6;" horiz-adv-x="655" 
d="M328 545c159 0 277 -129 277 -281c0 -151 -117 -278 -277 -278s-277 127 -277 278c0 152 118 281 277 281zM328 479c-114 0 -207 -98 -207 -216c0 -116 87 -211 207 -211c119 0 207 95 207 211c0 118 -94 216 -207 216zM228 741c31 0 56 -26 56 -57s-25 -56 -56 -56
s-57 25 -57 56s26 57 57 57zM427 741c31 0 56 -26 56 -57s-25 -56 -56 -56s-57 25 -57 56s26 57 57 57z" />
    <glyph glyph-name="ograve" unicode="&#xf2;" horiz-adv-x="655" 
d="M328 545c159 0 277 -129 277 -281c0 -151 -117 -278 -277 -278s-277 127 -277 278c0 152 118 281 277 281zM328 479c-114 0 -207 -98 -207 -216c0 -116 87 -211 207 -211c119 0 207 95 207 211c0 118 -94 216 -207 216zM193 781h105l107 -151h-68z" />
    <glyph glyph-name="otilde" unicode="&#xf5;" horiz-adv-x="655" 
d="M328 545c159 0 277 -129 277 -281c0 -151 -117 -278 -277 -278s-277 127 -277 278c0 152 118 281 277 281zM328 479c-114 0 -207 -98 -207 -216c0 -116 87 -211 207 -211c119 0 207 95 207 211c0 118 -94 216 -207 216zM398 704c27 0 51 11 74 24l34 -47
c-33 -24 -63 -43 -110 -43c-64 0 -93 41 -139 41c-32 0 -53 -18 -77 -35l-32 50c30 32 67 47 110 47c56 0 95 -37 140 -37z" />
    <glyph glyph-name="scaron" unicode="&#x161;" horiz-adv-x="388" 
d="M26 62l43 49c34 -38 71 -59 111 -59c52 0 98 38 98 88c0 31 -18 60 -44 74c-122 68 -184 97 -184 190c0 84 65 141 146 141c58 0 102 -28 147 -72l-44 -45c-32 31 -64 51 -107 51c-44 0 -80 -31 -80 -71c0 -27 17 -57 41 -71c122 -71 190 -98 190 -194
c0 -83 -64 -157 -160 -157c-59 0 -119 27 -157 76zM373 753l-145 -125h-68l-142 125h88l86 -74l90 74h91z" />
    <glyph glyph-name="uacute" unicode="&#xfa;" horiz-adv-x="608" 
d="M462 272v259h72v-275c0 -179 -81 -269 -233 -269s-234 90 -234 269v275h72v-259c0 -56 0 -102 15 -134c25 -54 80 -85 147 -85c49 0 92 18 120 47c42 45 41 96 41 172zM231 630l107 151h105l-145 -151h-67z" />
    <glyph glyph-name="ucircumflex" unicode="&#xfb;" horiz-adv-x="608" 
d="M462 272v259h72v-275c0 -179 -81 -269 -233 -269s-234 90 -234 269v275h72v-259c0 -56 0 -102 15 -134c25 -54 80 -85 147 -85c49 0 92 18 120 47c42 45 41 96 41 172zM127 628l145 125h68l142 -125h-89l-86 74l-89 -74h-91z" />
    <glyph glyph-name="udieresis" unicode="&#xfc;" horiz-adv-x="608" 
d="M462 272v259h72v-275c0 -179 -81 -269 -233 -269s-234 90 -234 269v275h72v-259c0 -56 0 -102 15 -134c25 -54 80 -85 147 -85c49 0 92 18 120 47c42 45 41 96 41 172zM205 741c31 0 56 -26 56 -57s-25 -56 -56 -56s-57 25 -57 56s26 57 57 57zM404 741
c31 0 56 -26 56 -57s-25 -56 -56 -56s-57 25 -57 56s26 57 57 57z" />
    <glyph glyph-name="ugrave" unicode="&#xf9;" horiz-adv-x="608" 
d="M462 272v259h72v-275c0 -179 -81 -269 -233 -269s-234 90 -234 269v275h72v-259c0 -56 0 -102 15 -134c25 -54 80 -85 147 -85c49 0 92 18 120 47c42 45 41 96 41 172zM169 781h105l107 -151h-68z" />
    <glyph glyph-name="yacute" unicode="&#xfd;" horiz-adv-x="536" 
d="M237 40l-218 491h72l183 -409l177 409h73l-317 -725h-72zM195 630l107 151h105l-145 -151h-67z" />
    <glyph glyph-name="ydieresis" unicode="&#xff;" horiz-adv-x="536" 
d="M237 40l-218 491h72l183 -409l177 409h73l-317 -725h-72zM169 741c31 0 56 -26 56 -57s-25 -56 -56 -56s-57 25 -57 56s26 57 57 57zM368 741c31 0 56 -26 56 -57s-25 -56 -56 -56s-57 25 -57 56s26 57 57 57z" />
    <glyph glyph-name="zcaron" unicode="&#x17e;" horiz-adv-x="425" 
d="M32 471v60h391l-301 -471h291v-60h-409l301 471h-273zM391 753l-145 -125h-68l-142 125h88l86 -74l90 74h91z" />
    <glyph glyph-name="oneeighth" unicode="&#x215b;" horiz-adv-x="831" 
d="M192 -18h-53l450 754h55zM74 679l36 48h91v-369h-54v321h-73zM737 202c47 -22 71 -54 71 -95c0 -61 -53 -116 -144 -116c-47 0 -82 12 -107 35c-24 24 -36 50 -36 78c0 43 25 75 74 98c-35 18 -53 44 -53 78c0 53 56 98 125 98c35 0 64 -10 87 -30s35 -43 35 -70
c0 -33 -17 -58 -52 -76zM734 280c0 29 -26 50 -69 50c-37 0 -69 -20 -69 -51s34 -56 70 -56c37 0 68 25 68 57zM754 107c0 40 -38 70 -87 70c-48 0 -91 -29 -91 -73s40 -65 89 -65c51 0 89 28 89 68z" />
    <glyph glyph-name="threeeighths" unicode="&#x215c;" horiz-adv-x="831" 
d="M84 631h-54c17 70 61 105 132 105c35 0 65 -10 90 -29s38 -42 38 -70s-15 -52 -44 -71c45 -21 67 -53 67 -94c0 -33 -14 -62 -42 -87c-27 -24 -63 -36 -108 -36c-83 0 -132 39 -147 118h53c11 -47 43 -70 95 -70c59 0 95 34 95 71c0 36 -27 70 -124 71v46
c57 0 99 20 99 53c0 27 -31 50 -71 50c-37 0 -64 -19 -79 -57zM217 -18h-54l451 754h54zM737 202c47 -22 71 -54 71 -95c0 -61 -53 -116 -144 -116c-45 0 -80 11 -105 34s-38 50 -38 79c0 43 24 75 73 98c-35 18 -52 44 -52 78c0 53 56 98 125 98c35 0 64 -10 87 -30
s34 -43 34 -70c0 -33 -17 -58 -51 -76zM734 280c0 29 -26 50 -69 50c-39 0 -69 -20 -69 -51s34 -56 70 -56c37 0 68 25 68 57zM754 107c0 40 -38 70 -87 70c-48 0 -92 -29 -92 -73s41 -65 90 -65c51 0 89 28 89 68z" />
    <glyph glyph-name="fiveeighths" unicode="&#x215d;" horiz-adv-x="831" 
d="M217 -18h-54l451 754h54zM104 727h195v-47h-153l-18 -84c14 3 28 5 43 5c84 0 139 -54 139 -122c0 -35 -14 -66 -42 -92c-27 -25 -64 -38 -111 -38c-80 0 -131 48 -136 103h55c9 -37 36 -55 83 -55c52 0 96 36 96 84c0 43 -37 72 -94 72c-26 0 -59 -5 -98 -15zM737 202
c47 -22 71 -54 71 -95c0 -61 -53 -116 -144 -116c-47 0 -83 12 -107 35c-24 24 -36 50 -36 78c0 43 24 75 73 98c-35 18 -52 44 -52 78c0 53 56 98 125 98c34 0 63 -10 86 -30c23 -19 35 -43 35 -70c0 -33 -17 -58 -51 -76zM734 280c0 29 -26 50 -69 50
c-39 0 -69 -20 -69 -51s34 -56 70 -56c37 0 68 25 68 57zM754 107c0 40 -38 70 -87 70c-48 0 -92 -29 -92 -73s41 -65 90 -65c51 0 89 28 89 68z" />
    <glyph glyph-name="seveneighths" unicode="&#x215e;" horiz-adv-x="831" 
d="M180 -18h-54l451 754h54zM40 680v47h282l-232 -378l-44 20l189 311h-195zM737 202c47 -22 71 -54 71 -95c0 -61 -53 -116 -144 -116c-47 0 -82 12 -107 35c-24 24 -36 50 -36 78c0 43 25 75 74 98c-35 18 -53 44 -53 78c0 53 56 98 125 98c34 0 63 -10 86 -30
c24 -19 36 -43 36 -70c0 -33 -17 -58 -52 -76zM734 280c0 29 -26 50 -69 50c-37 0 -69 -20 -69 -51s34 -56 70 -56c37 0 68 25 68 57zM754 107c0 40 -39 70 -87 70s-92 -29 -92 -73s41 -65 90 -65c51 0 89 28 89 68z" />
    <glyph glyph-name="onethird" unicode="&#x2153;" horiz-adv-x="831" 
d="M192 -18h-53l450 754h55zM74 679l36 48h91v-369h-54v321h-73zM734 280c0 26 -29 50 -72 50s-62 -23 -77 -57h-55c18 71 66 105 132 105c74 0 128 -45 128 -98c0 -29 -16 -53 -44 -72c44 -21 67 -56 67 -95c0 -61 -56 -122 -150 -122c-79 0 -132 39 -147 118h53
c12 -44 38 -70 94 -70c59 0 96 34 96 71c0 47 -46 68 -124 71v46c66 3 99 22 99 53z" />
    <glyph glyph-name="twothirds" unicode="&#x2154;" horiz-adv-x="831" 
d="M227 -18h-53l450 754h55zM734 280c0 26 -29 50 -72 50s-62 -23 -77 -57h-55c18 71 66 105 132 105c74 0 128 -45 128 -98c0 -29 -16 -53 -44 -72c44 -21 67 -56 67 -95c0 -61 -56 -122 -150 -122c-79 0 -132 39 -147 118h53c12 -44 38 -70 94 -70c59 0 96 34 96 71
c0 47 -46 68 -124 71v46c66 3 99 22 99 53zM21 358l175 158c48 43 77 70 77 106s-37 66 -86 66c-52 0 -88 -28 -93 -86h-52c1 84 67 134 147 134c82 0 137 -51 137 -113c0 -51 -34 -86 -86 -133l-93 -84h185v-48h-311z" />
    <glyph glyph-name="one.superior" unicode="&#xb9;" 
d="M74 679l35 48h92v-369h-54v321h-73z" />
    <glyph glyph-name="two.superior" unicode="&#xb2;" 
d="M3 358l175 158c48 43 77 70 77 106s-37 66 -86 66c-52 0 -88 -28 -93 -86h-52c1 84 67 134 147 134c82 0 137 -51 137 -113c0 -51 -34 -86 -86 -133l-93 -84h185v-48h-311z" />
    <glyph glyph-name="three.superior" unicode="&#xb3;" 
d="M234 638c0 26 -29 50 -72 50s-62 -23 -77 -57h-55c18 71 66 105 132 105c74 0 128 -45 128 -98c0 -29 -16 -53 -44 -72c44 -21 67 -56 67 -95c0 -61 -56 -122 -150 -122c-79 0 -132 39 -147 118h53c12 -44 38 -70 94 -70c59 0 96 34 96 71c0 47 -46 68 -124 71v46
c66 3 99 22 99 53z" />
    <glyph glyph-name="Abreve" unicode="&#x102;" horiz-adv-x="740" 
d="M364 718h17l335 -718h-77l-113 236h-310l-112 -236h-80zM494 306l-122 260l-124 -260h246zM483 895h62c-14 -57 -71 -103 -171 -103c-94 0 -158 40 -175 103h64c23 -35 59 -51 111 -51c51 0 80 12 109 51z" />
    <glyph glyph-name="Amacron" unicode="&#x100;" horiz-adv-x="740" 
d="M364 718h17l335 -718h-77l-113 236h-310l-112 -236h-80zM494 306l-122 260l-124 -260h246zM196 813v60h337v-60h-337z" />
    <glyph glyph-name="Aogonek" unicode="&#x104;" horiz-adv-x="740" 
d="M751 -145l-5 -42c-14 -3 -29 -4 -42 -4c-84 0 -111 49 -111 87c0 39 20 77 58 104h-12l-113 236h-310l-112 -236h-80l340 718h17l335 -718h-12c-36 -31 -59 -59 -59 -93c0 -27 20 -55 72 -55c11 0 25 2 34 3zM494 306l-122 260l-124 -260h246z" />
    <glyph glyph-name="AEacute" unicode="&#x1fc;" horiz-adv-x="992" 
d="M237 236l-152 -236h-84l464 718h444v-70h-338v-224h338v-70h-338v-284h338v-70h-410v236h-262zM499 303v332l-216 -332h216zM520 780l107 151h105l-145 -151h-67z" />
    <glyph glyph-name="Cacute" unicode="&#x106;" horiz-adv-x="813" 
d="M756 585l-57 -43c-63 83 -153 124 -256 124c-170 0 -313 -126 -313 -309c0 -178 136 -308 317 -308c100 0 185 41 252 119l57 -43c-74 -93 -183 -142 -314 -142c-240 0 -387 169 -387 380c0 212 164 373 387 373c132 0 243 -52 314 -151zM364 780l107 151h105l-145 -151
h-67z" />
    <glyph glyph-name="Ccaron" unicode="&#x10c;" horiz-adv-x="813" 
d="M756 585l-57 -43c-63 83 -153 124 -256 124c-170 0 -313 -126 -313 -309c0 -178 136 -308 317 -308c100 0 185 41 252 119l57 -43c-74 -93 -183 -142 -314 -142c-240 0 -387 169 -387 380c0 212 164 373 387 373c132 0 243 -52 314 -151zM623 903l-145 -125h-68l-142 125
h88l86 -74l90 74h91z" />
    <glyph glyph-name="Ccircumflex" unicode="&#x108;" horiz-adv-x="813" 
d="M756 585l-57 -43c-63 83 -153 124 -256 124c-170 0 -313 -126 -313 -309c0 -178 136 -308 317 -308c100 0 185 41 252 119l57 -43c-74 -93 -183 -142 -314 -142c-240 0 -387 169 -387 380c0 212 164 373 387 373c132 0 243 -52 314 -151zM266 778l145 125h68l142 -125
h-89l-86 74l-89 -74h-91z" />
    <glyph glyph-name="Cdotaccent" unicode="&#x10a;" horiz-adv-x="813" 
d="M756 585l-57 -43c-63 83 -153 124 -256 124c-170 0 -313 -126 -313 -309c0 -178 136 -308 317 -308c100 0 185 41 252 119l57 -43c-74 -93 -183 -142 -314 -142c-240 0 -387 169 -387 380c0 212 164 373 387 373c132 0 243 -52 314 -151zM441 891c31 0 56 -26 56 -57
s-25 -56 -56 -56s-57 25 -57 56s26 57 57 57z" />
    <glyph glyph-name="Dcaron" unicode="&#x10e;" horiz-adv-x="744" 
d="M87 0v718h177c79 0 152 -4 223 -33c129 -52 206 -176 206 -334c0 -205 -124 -351 -355 -351h-251zM159 70h106c136 0 226 12 290 90c41 50 63 115 63 190c0 73 -20 138 -60 190c-68 89 -170 108 -326 108h-73v-578zM496 903l-145 -125h-68l-142 125h88l86 -74l90 74h91z
" />
    <glyph glyph-name="Dcroat" unicode="&#x110;" horiz-adv-x="790" 
d="M105 0v326h-88v67h88v325h206c79 0 152 -4 223 -33c129 -52 206 -177 206 -334c0 -204 -124 -351 -355 -351h-280zM362 326h-189v-256h139c137 0 226 12 291 90c42 50 62 115 62 190c0 74 -19 138 -59 190c-69 88 -172 108 -328 108h-105v-255h189v-67z" />
    <glyph glyph-name="Ebreve" unicode="&#x114;" horiz-adv-x="536" 
d="M88 0v718h410v-70h-338v-225h338v-70h-338v-283h338v-70h-410zM402 895h62c-14 -57 -71 -103 -171 -103c-94 0 -158 40 -175 103h64c23 -35 59 -51 111 -51c51 0 80 12 109 51z" />
    <glyph glyph-name="Ecaron" unicode="&#x11a;" horiz-adv-x="536" 
d="M88 0v718h410v-70h-338v-225h338v-70h-338v-283h338v-70h-410zM473 903l-145 -125h-68l-142 125h88l86 -74l90 74h91z" />
    <glyph glyph-name="Edotaccent" unicode="&#x116;" horiz-adv-x="536" 
d="M88 0v718h410v-70h-338v-225h338v-70h-338v-283h338v-70h-410zM295 891c31 0 56 -26 56 -57s-25 -56 -56 -56s-57 25 -57 56s26 57 57 57z" />
    <glyph glyph-name="Emacron" unicode="&#x112;" horiz-adv-x="536" 
d="M88 0v718h410v-70h-338v-225h338v-70h-338v-283h338v-70h-410zM114 813v60h337v-60h-337z" />
    <glyph glyph-name="Eng" unicode="&#x14a;" horiz-adv-x="777" 
d="M258 74l52 44c33 -45 76 -68 127 -68c61 0 111 30 150 89c39 60 59 134 59 222c0 89 -25 163 -76 220c-51 58 -113 87 -187 87c-89 0 -172 -50 -224 -122v-546h-72v718h72v-87c64 70 142 105 234 105c97 0 175 -37 236 -110s92 -163 92 -271c0 -109 -27 -199 -82 -269
c-54 -69 -122 -104 -204 -104c-71 0 -130 31 -177 92z" />
    <glyph glyph-name="Eogonek" unicode="&#x118;" horiz-adv-x="536" 
d="M88 0v718h410v-70h-338v-225h338v-70h-338v-283h338v-70h-44c-36 -31 -59 -59 -59 -93c0 -27 20 -55 72 -55c11 0 25 2 34 3l-5 -42c-14 -3 -29 -4 -42 -4c-84 0 -111 49 -111 87c0 39 20 77 58 104h-313z" />
    <glyph glyph-name="Gbreve" unicode="&#x11e;" horiz-adv-x="872" 
d="M513 345h310c-1 -228 -146 -362 -361 -362c-249 0 -405 178 -405 376c0 203 158 377 394 377c132 0 233 -48 329 -139l-55 -52c-81 79 -179 121 -272 121c-172 0 -321 -132 -321 -305c0 -165 139 -312 332 -312c136 0 258 81 278 226h-229v70zM563 895h62
c-14 -57 -71 -103 -171 -103c-94 0 -158 40 -175 103h64c23 -35 59 -51 111 -51c51 0 80 12 109 51z" />
    <glyph glyph-name="Gcircumflex" unicode="&#x11c;" horiz-adv-x="872" 
d="M513 345h310c-1 -228 -146 -362 -361 -362c-249 0 -405 178 -405 376c0 203 158 377 394 377c132 0 233 -48 329 -139l-55 -52c-81 79 -179 121 -272 121c-172 0 -321 -132 -321 -305c0 -165 139 -312 332 -312c136 0 258 81 278 226h-229v70zM272 778l145 125h68
l142 -125h-89l-86 74l-89 -74h-91z" />
    <glyph glyph-name="Gcommaaccent" unicode="&#x122;" horiz-adv-x="872" 
d="M513 345h310c-1 -228 -146 -362 -361 -362c-249 0 -405 178 -405 376c0 203 158 377 394 377c132 0 233 -48 329 -139l-55 -52c-81 79 -179 121 -272 121c-172 0 -321 -132 -321 -305c0 -165 139 -312 332 -312c136 0 258 81 278 226h-229v70zM409 -101l6 39
c15 5 30 7 46 7c51 0 77 -18 77 -53c0 -45 -44 -78 -112 -78c-21 0 -44 4 -71 11l11 35c22 -5 39 -7 50 -7c43 0 64 11 64 32c0 14 -12 21 -36 21c-9 0 -20 -2 -35 -7z" />
    <glyph glyph-name="Gdotaccent" unicode="&#x120;" horiz-adv-x="872" 
d="M513 345h310c-1 -228 -146 -362 -361 -362c-249 0 -405 178 -405 376c0 203 158 377 394 377c132 0 233 -48 329 -139l-55 -52c-81 79 -179 121 -272 121c-172 0 -321 -132 -321 -305c0 -165 139 -312 332 -312c136 0 258 81 278 226h-229v70zM452 891
c31 0 56 -26 56 -57s-25 -56 -56 -56s-57 25 -57 56s26 57 57 57z" />
    <glyph glyph-name="Hbar" unicode="&#x126;" horiz-adv-x="683" 
d="M159 718v-113h365v113h72v-113h65v-67h-65v-538h-72v347h-365v-347h-72v538h-65v67h65v113h72zM524 538h-365v-121h365v121z" />
    <glyph glyph-name="Hcircumflex" unicode="&#x124;" horiz-adv-x="683" 
d="M87 0v718h72v-301h366v301h72v-718h-72v347h-366v-347h-72zM164 778l145 125h68l142 -125h-89l-86 74l-89 -74h-91z" />
    <glyph glyph-name="Ibreve" unicode="&#x12c;" horiz-adv-x="226" 
d="M77 0v718h72v-718h-72zM229 895h62c-14 -57 -71 -103 -171 -103c-94 0 -158 40 -175 103h64c23 -35 59 -51 111 -51c51 0 80 12 109 51z" />
    <glyph glyph-name="IJ" unicode="&#x132;" horiz-adv-x="708" 
d="M77 0v718h72v-718h-72zM258 58l38 57c53 -38 98 -66 141 -66c30 0 57 14 75 38c23 31 26 72 26 123v508h72v-510c0 -75 -7 -133 -45 -175c-29 -32 -76 -50 -128 -50c-71 0 -124 29 -179 75z" />
    <glyph glyph-name="Imacron" unicode="&#x12a;" horiz-adv-x="226" 
d="M77 0v718h72v-718h-72zM-56 813v60h337v-60h-337z" />
    <glyph glyph-name="Iogonek" unicode="&#x12e;" horiz-adv-x="226" 
d="M77 0v718h72v-718h-5c-36 -31 -59 -59 -59 -93c0 -27 20 -55 72 -55c11 0 25 2 34 3l-5 -42c-14 -3 -29 -4 -42 -4c-84 0 -111 49 -111 87c0 39 20 77 58 104h-14z" />
    <glyph glyph-name="Itilde" unicode="&#x128;" horiz-adv-x="226" 
d="M77 0v718h72v-718h-72zM194 854c27 0 51 11 74 24l34 -47c-33 -24 -63 -43 -110 -43c-64 0 -93 41 -139 41c-32 0 -53 -18 -77 -35l-32 50c30 32 67 47 110 47c56 0 95 -37 140 -37z" />
    <glyph glyph-name="Jcircumflex" unicode="&#x134;" horiz-adv-x="482" 
d="M42 58l38 57c53 -38 98 -66 141 -66c30 0 57 14 75 38c23 31 26 72 26 123v508h72v-510c0 -75 -7 -133 -45 -175c-29 -32 -76 -50 -128 -50c-71 0 -124 29 -179 75zM184 778l145 125h68l142 -125h-89l-86 74l-89 -74h-91z" />
    <glyph glyph-name="Kcommaaccent" unicode="&#x136;" horiz-adv-x="591" 
d="M88 0v718h72v-269l287 269h97l-345 -322l372 -396h-95l-316 335v-335h-72zM259 -101l6 39c15 5 30 7 46 7c51 0 77 -18 77 -53c0 -45 -44 -78 -112 -78c-21 0 -44 4 -71 11l11 35c22 -5 39 -7 50 -7c43 0 64 11 64 32c0 14 -12 21 -36 21c-9 0 -20 -2 -35 -7z" />
    <glyph glyph-name="Lacute" unicode="&#x139;" horiz-adv-x="463" 
d="M88 0v718h72v-648h276v-70h-348zM163 780l107 151h105l-145 -151h-67z" />
    <glyph glyph-name="Lcaron" unicode="&#x13d;" horiz-adv-x="463" 
d="M88 0v718h72v-648h276v-70h-348zM276 490c15 29 24 54 28 74c5 21 7 48 7 83v71h-75v-114h37c-2 -29 -12 -61 -29 -95z" />
    <glyph glyph-name="Lcommaaccent" unicode="&#x13b;" horiz-adv-x="463" 
d="M88 0v718h72v-648h276v-70h-348zM209 -101l6 39c15 5 30 7 46 7c51 0 77 -18 77 -53c0 -45 -44 -78 -112 -78c-21 0 -44 4 -71 11l11 35c22 -5 39 -7 50 -7c43 0 64 11 64 32c0 14 -12 21 -36 21c-9 0 -20 -2 -35 -7z" />
    <glyph glyph-name="Ldot" unicode="&#x13f;" horiz-adv-x="463" 
d="M88 0v718h72v-648h276v-70h-348zM290 449c32 0 60 -28 60 -62s-27 -60 -60 -60c-34 0 -60 27 -60 60s27 62 60 62z" />
    <glyph glyph-name="Nacute" unicode="&#x143;" horiz-adv-x="740" 
d="M161 0h-72v718h15l476 -550v550h72v-718h-16l-475 543v-543zM341 780l107 151h105l-145 -151h-67z" />
    <glyph glyph-name="Ncaron" unicode="&#x147;" horiz-adv-x="740" 
d="M161 0h-72v718h15l476 -550v550h72v-718h-16l-475 543v-543zM548 903l-145 -125h-68l-142 125h88l86 -74l90 74h91z" />
    <glyph glyph-name="Ncommaaccent" unicode="&#x145;" horiz-adv-x="740" 
d="M161 0h-72v718h15l476 -550v550h72v-718h-16l-475 543v-543zM334 -101l6 39c15 5 30 7 46 7c51 0 77 -18 77 -53c0 -45 -44 -78 -112 -78c-21 0 -44 4 -71 11l11 35c22 -5 39 -7 50 -7c43 0 64 11 64 32c0 14 -12 21 -36 21c-9 0 -20 -2 -35 -7z" />
    <glyph glyph-name="Obreve" unicode="&#x14e;" horiz-adv-x="869" 
d="M429 736c218 0 384 -163 384 -377c0 -211 -165 -377 -378 -377c-221 0 -379 173 -379 374c0 214 166 380 373 380zM433 666c-158 0 -302 -126 -302 -310c0 -177 140 -304 302 -304c168 0 305 128 305 308c0 182 -146 306 -305 306zM539 895h62
c-14 -57 -71 -103 -171 -103c-94 0 -158 40 -175 103h64c23 -35 59 -51 111 -51c51 0 80 12 109 51z" />
    <glyph glyph-name="Ohungarumlaut" unicode="&#x150;" horiz-adv-x="869" 
d="M429 736c218 0 384 -163 384 -377c0 -211 -165 -377 -378 -377c-221 0 -379 173 -379 374c0 214 166 380 373 380zM433 666c-158 0 -302 -126 -302 -310c0 -177 140 -304 302 -304c168 0 305 128 305 308c0 182 -146 306 -305 306zM306 780l107 151h105l-145 -151h-67z
M460 780l107 151h105l-144 -151h-68z" />
    <glyph glyph-name="Omacron" unicode="&#x14c;" horiz-adv-x="869" 
d="M429 736c218 0 384 -163 384 -377c0 -211 -165 -377 -378 -377c-221 0 -379 173 -379 374c0 214 166 380 373 380zM433 666c-158 0 -302 -126 -302 -310c0 -177 140 -304 302 -304c168 0 305 128 305 308c0 182 -146 306 -305 306zM263 813v60h337v-60h-337z" />
    <glyph glyph-name="Oslashacute" unicode="&#x1fe;" horiz-adv-x="868" 
d="M784 707l-74 -87c64 -65 103 -157 103 -260c0 -211 -164 -378 -378 -378c-80 0 -149 19 -213 62l-80 -94l-52 42l80 95c-74 71 -114 166 -114 269c0 210 161 380 378 380c84 0 159 -23 228 -72l71 85zM662 563l-393 -463c50 -32 104 -48 164 -48c167 0 305 128 305 308
c0 79 -26 147 -76 203zM217 142l396 466c-53 38 -117 58 -180 58c-158 0 -302 -126 -302 -310c0 -85 28 -154 86 -214zM353 780l107 151h105l-145 -151h-67z" />
    <glyph glyph-name="Racute" unicode="&#x154;" horiz-adv-x="607" 
d="M91 0v718h165c75 0 132 -5 167 -18c74 -28 118 -92 118 -173c0 -36 -5 -57 -21 -89c-37 -75 -109 -104 -228 -104l259 -334h-89l-258 334h-41v-334h-72zM310 648h-147v-244c40 0 81 -1 119 -1c62 0 110 6 141 31c26 21 43 56 43 93c0 70 -48 121 -156 121zM197 780
l107 151h105l-145 -151h-67z" />
    <glyph glyph-name="Rcaron" unicode="&#x158;" horiz-adv-x="607" 
d="M91 0v718h165c75 0 132 -5 167 -18c74 -28 118 -92 118 -173c0 -36 -5 -57 -21 -89c-37 -75 -109 -104 -228 -104l259 -334h-89l-258 334h-41v-334h-72zM310 648h-147v-244c40 0 81 -1 119 -1c62 0 110 6 141 31c26 21 43 56 43 93c0 70 -48 121 -156 121zM445 903
l-145 -125h-68l-142 125h88l86 -74l90 74h91z" />
    <glyph glyph-name="Rcommaaccent" unicode="&#x156;" horiz-adv-x="607" 
d="M91 0v718h165c75 0 132 -5 167 -18c74 -28 118 -92 118 -173c0 -36 -5 -57 -21 -89c-37 -75 -109 -104 -228 -104l259 -334h-89l-258 334h-41v-334h-72zM310 648h-147v-244c40 0 81 -1 119 -1c62 0 110 6 141 31c26 21 43 56 43 93c0 70 -48 121 -156 121zM251 -101l6 39
c15 5 30 7 46 7c51 0 77 -18 77 -53c0 -45 -44 -78 -112 -78c-21 0 -44 4 -71 11l11 35c22 -5 39 -7 50 -7c43 0 64 11 64 32c0 14 -12 21 -36 21c-9 0 -20 -2 -35 -7z" />
    <glyph glyph-name="Sacute" unicode="&#x15a;" horiz-adv-x="498" 
d="M421 619l-58 -45c-39 51 -73 88 -132 88c-62 0 -97 -44 -97 -91c0 -39 23 -80 64 -111c135 -100 234 -169 234 -285c0 -101 -85 -193 -202 -193c-99 0 -164 55 -217 152l61 37c43 -79 95 -119 150 -119c75 0 133 55 133 122c0 79 -74 124 -237 256c-34 27 -61 84 -61 138
c0 99 77 168 174 168c88 0 141 -53 188 -117zM161 780l107 151h105l-145 -151h-67z" />
    <glyph glyph-name="uni015E" unicode="&#x15e;" horiz-adv-x="498" 
d="M196 -99l11 82c-86 8 -146 62 -194 151l61 37c43 -79 95 -119 150 -119c75 0 133 55 133 122c0 79 -74 124 -237 256c-34 27 -61 84 -61 138c0 99 77 168 174 168c88 0 141 -53 188 -117l-58 -45c-39 51 -73 88 -132 88c-62 0 -97 -44 -97 -91c0 -39 23 -80 64 -111
c135 -100 234 -169 234 -285c0 -96 -76 -183 -183 -192l-5 -41c7 1 10 2 17 2c30 0 57 -19 57 -52c0 -44 -42 -78 -112 -78c-27 0 -55 5 -81 15l11 34c18 -6 38 -10 58 -10c42 0 66 11 66 32c0 12 -12 21 -30 21c-10 0 -25 -3 -34 -5z" />
    <glyph glyph-name="Scircumflex" unicode="&#x15c;" horiz-adv-x="498" 
d="M421 619l-58 -45c-39 51 -73 88 -132 88c-62 0 -97 -44 -97 -91c0 -39 23 -80 64 -111c135 -100 234 -169 234 -285c0 -101 -85 -193 -202 -193c-99 0 -164 55 -217 152l61 37c43 -79 95 -119 150 -119c75 0 133 55 133 122c0 79 -74 124 -237 256c-34 27 -61 84 -61 138
c0 99 77 168 174 168c88 0 141 -53 188 -117zM53 778l145 125h68l142 -125h-89l-86 74l-89 -74h-91z" />
    <glyph glyph-name="uni0218" unicode="&#x218;" horiz-adv-x="498" 
d="M421 619l-58 -45c-39 51 -73 88 -132 88c-62 0 -97 -44 -97 -91c0 -39 23 -80 64 -111c135 -100 234 -169 234 -285c0 -101 -85 -193 -202 -193c-99 0 -164 55 -217 152l61 37c43 -79 95 -119 150 -119c75 0 133 55 133 122c0 79 -74 124 -237 256c-34 27 -61 84 -61 138
c0 99 77 168 174 168c88 0 141 -53 188 -117zM177 -101l6 39c15 5 30 7 46 7c51 0 77 -18 77 -53c0 -45 -44 -78 -112 -78c-21 0 -44 4 -71 11l11 35c22 -5 39 -7 50 -7c43 0 64 11 64 32c0 14 -12 21 -36 21c-9 0 -20 -2 -35 -7z" />
    <glyph glyph-name="Tbar" unicode="&#x166;" horiz-adv-x="426" 
d="M250 648v-269h137v-67h-137v-312h-73v312h-137v67h137v269h-161v70h394v-70h-160z" />
    <glyph glyph-name="Tcaron" unicode="&#x164;" horiz-adv-x="426" 
d="M178 648h-162v70h394v-70h-160v-648h-72v648zM396 903l-145 -125h-68l-142 125h88l86 -74l90 74h91z" />
    <glyph glyph-name="Tcommaaccent" unicode="&#x162;" horiz-adv-x="426" 
d="M178 648h-162v70h394v-70h-160v-648h-72v648zM173 -101l6 39c15 5 30 7 46 7c51 0 77 -18 77 -53c0 -45 -44 -78 -112 -78c-21 0 -44 4 -71 11l11 35c22 -5 39 -7 50 -7c43 0 64 11 64 32c0 14 -12 21 -36 21c-9 0 -20 -2 -35 -7z" />
    <glyph glyph-name="Ubreve" unicode="&#x16c;" horiz-adv-x="655" 
d="M494 262v456h72v-467c0 -169 -91 -269 -238 -269s-238 100 -238 269v467h72v-456c0 -56 0 -106 38 -153c31 -39 74 -57 128 -57s97 18 128 57c38 47 38 97 38 153zM441 895h62c-14 -57 -71 -103 -171 -103c-94 0 -158 40 -175 103h64c23 -35 59 -51 111 -51
c51 0 80 12 109 51z" />
    <glyph glyph-name="Uhungarumlaut" unicode="&#x170;" horiz-adv-x="655" 
d="M494 262v456h72v-467c0 -169 -91 -269 -238 -269s-238 100 -238 269v467h72v-456c0 -56 0 -106 38 -153c31 -39 74 -57 128 -57s97 18 128 57c38 47 38 97 38 153zM188 780l107 151h105l-145 -151h-67zM342 780l107 151h105l-144 -151h-68z" />
    <glyph glyph-name="Umacron" unicode="&#x16a;" horiz-adv-x="655" 
d="M494 262v456h72v-467c0 -169 -91 -269 -238 -269s-238 100 -238 269v467h72v-456c0 -56 0 -106 38 -153c31 -39 74 -57 128 -57s97 18 128 57c38 47 38 97 38 153zM164 813v60h337v-60h-337z" />
    <glyph glyph-name="Uogonek" unicode="&#x172;" horiz-adv-x="655" 
d="M426 -145l-5 -42c-14 -3 -29 -4 -42 -4c-84 0 -111 49 -111 87c0 31 13 62 37 87c-133 10 -215 108 -215 268v467h72v-456c0 -56 0 -106 38 -153c31 -39 74 -57 128 -57s97 18 128 57c38 47 38 97 38 153v456h72v-467c0 -156 -78 -253 -205 -267c-26 -25 -41 -49 -41 -77
c0 -27 20 -55 72 -55c11 0 25 2 34 3z" />
    <glyph glyph-name="Uring" unicode="&#x16e;" horiz-adv-x="655" 
d="M494 262v456h72v-467c0 -169 -91 -269 -238 -269s-238 100 -238 269v467h72v-456c0 -56 0 -106 38 -153c31 -39 74 -57 128 -57s97 18 128 57c38 47 38 97 38 153zM330 970c56 0 101 -44 101 -101c0 -56 -45 -102 -101 -102s-102 46 -102 102s45 101 102 101zM330 928
c-34 1 -59 -26 -59 -59c0 -34 28 -59 59 -59c33 0 59 27 59 59c1 33 -27 59 -59 59z" />
    <glyph glyph-name="Utilde" unicode="&#x168;" horiz-adv-x="655" 
d="M494 262v456h72v-467c0 -169 -91 -269 -238 -269s-238 100 -238 269v467h72v-456c0 -56 0 -106 38 -153c31 -39 74 -57 128 -57s97 18 128 57c38 47 38 97 38 153zM394 854c27 0 51 11 74 24l34 -47c-33 -24 -63 -43 -110 -43c-64 0 -93 41 -139 41
c-32 0 -53 -18 -77 -35l-32 50c30 32 67 47 110 47c56 0 95 -37 140 -37z" />
    <glyph glyph-name="Wacute" unicode="&#x1e82;" horiz-adv-x="960" 
d="M250 0l-203 718h74l146 -517l206 517h15l203 -517l149 517h73l-206 -718h-14l-212 543l-218 -543h-13zM402 780l107 151h105l-145 -151h-67z" />
    <glyph glyph-name="Wcircumflex" unicode="&#x174;" horiz-adv-x="960" 
d="M250 0l-203 718h74l146 -517l206 517h15l203 -517l149 517h73l-206 -718h-14l-212 543l-218 -543h-13zM302 778l145 125h68l142 -125h-89l-86 74l-89 -74h-91z" />
    <glyph glyph-name="Wdieresis" unicode="&#x1e84;" horiz-adv-x="960" 
d="M250 0l-203 718h74l146 -517l206 517h15l203 -517l149 517h73l-206 -718h-14l-212 543l-218 -543h-13zM380 891c31 0 56 -26 56 -57s-25 -56 -56 -56s-57 25 -57 56s26 57 57 57zM579 891c31 0 56 -26 56 -57s-25 -56 -56 -56s-57 25 -57 56s26 57 57 57z" />
    <glyph glyph-name="Wgrave" unicode="&#x1e80;" horiz-adv-x="960" 
d="M250 0l-203 718h74l146 -517l206 517h15l203 -517l149 517h73l-206 -718h-14l-212 543l-218 -543h-13zM338 931h105l107 -151h-68z" />
    <glyph glyph-name="Zacute" unicode="&#x179;" horiz-adv-x="480" 
d="M329 648h-270v70h379l-300 -648h285v-70h-396zM179 780l107 151h105l-145 -151h-67z" />
    <glyph glyph-name="Zdotaccent" unicode="&#x17b;" horiz-adv-x="480" 
d="M329 648h-270v70h379l-300 -648h285v-70h-396zM246 891c31 0 56 -26 56 -57s-25 -56 -56 -56s-57 25 -57 56s26 57 57 57z" />
    <glyph glyph-name="abreve" unicode="&#x103;" horiz-adv-x="683" 
d="M538 434v97h67v-531h-67v91c-58 -70 -131 -104 -214 -104c-155 0 -272 129 -272 280s120 278 274 278c86 0 159 -37 212 -111zM332 479c-122 0 -210 -100 -210 -214c0 -115 90 -216 209 -216c109 0 212 82 212 214c0 123 -92 216 -211 216zM452 745h62
c-14 -57 -71 -103 -171 -103c-94 0 -158 40 -175 103h64c23 -35 59 -51 111 -51c51 0 80 12 109 51z" />
    <glyph glyph-name="amacron" unicode="&#x101;" horiz-adv-x="683" 
d="M538 434v97h67v-531h-67v91c-58 -70 -131 -104 -214 -104c-155 0 -272 129 -272 280s120 278 274 278c86 0 159 -37 212 -111zM332 479c-122 0 -210 -100 -210 -214c0 -115 90 -216 209 -216c109 0 212 82 212 214c0 123 -92 216 -211 216zM179 663v60h337v-60h-337z" />
    <glyph glyph-name="aogonek" unicode="&#x105;" horiz-adv-x="683" 
d="M643 -145l-5 -42c-14 -3 -29 -4 -42 -4c-84 0 -111 49 -111 87c0 39 20 77 58 104h-5v91c-58 -70 -131 -104 -214 -104c-155 0 -272 129 -272 280s120 278 274 278c86 0 159 -37 212 -111v97h67v-531h-9c-36 -31 -59 -59 -59 -93c0 -27 20 -55 72 -55c11 0 25 2 34 3z
M332 479c-122 0 -210 -100 -210 -214c0 -115 90 -216 209 -216c109 0 212 82 212 214c0 123 -92 216 -211 216z" />
    <glyph glyph-name="aeacute" unicode="&#x1fd;" horiz-adv-x="1157" 
d="M545 434v97h62v-96c58 69 112 110 214 110c159 0 276 -121 276 -274v-12h-478c3 -113 86 -210 209 -210c86 0 148 41 194 125l58 -29c-49 -103 -145 -158 -257 -158c-96 0 -162 37 -216 108v-95h-62v98c-58 -72 -119 -112 -213 -112c-150 0 -274 124 -274 282
c0 160 128 277 272 277c92 0 156 -40 215 -111zM335 479c-113 0 -207 -88 -207 -214c0 -123 92 -213 209 -213c113 0 210 86 210 213c0 136 -98 214 -212 214zM623 319h399c-28 112 -109 160 -198 160c-84 0 -174 -49 -201 -160zM534 630l107 151h105l-145 -151h-67z" />
    <glyph glyph-name="cacute" unicode="&#x107;" horiz-adv-x="647" 
d="M537 142l55 -35c-52 -79 -142 -120 -249 -120c-175 0 -292 126 -292 274c0 156 122 284 297 284c102 0 195 -42 244 -124l-55 -34c-47 62 -112 92 -192 92c-135 0 -224 -99 -224 -213c0 -116 88 -217 225 -217c77 0 141 31 191 93zM280 630l107 151h105l-145 -151h-67z
" />
    <glyph glyph-name="ccaron" unicode="&#x10d;" horiz-adv-x="647" 
d="M537 142l55 -35c-52 -79 -142 -120 -249 -120c-175 0 -292 126 -292 274c0 156 122 284 297 284c102 0 195 -42 244 -124l-55 -34c-47 62 -112 92 -192 92c-135 0 -224 -99 -224 -213c0 -116 88 -217 225 -217c77 0 141 31 191 93zM523 753l-145 -125h-68l-142 125h88
l86 -74l90 74h91z" />
    <glyph glyph-name="ccircumflex" unicode="&#x109;" horiz-adv-x="647" 
d="M537 142l55 -35c-52 -79 -142 -120 -249 -120c-175 0 -292 126 -292 274c0 156 122 284 297 284c102 0 195 -42 244 -124l-55 -34c-47 62 -112 92 -192 92c-135 0 -224 -99 -224 -213c0 -116 88 -217 225 -217c77 0 141 31 191 93zM174 628l145 125h68l142 -125h-89
l-86 74l-89 -74h-91z" />
    <glyph glyph-name="cdotaccent" unicode="&#x10b;" horiz-adv-x="647" 
d="M537 142l55 -35c-52 -79 -142 -120 -249 -120c-175 0 -292 126 -292 274c0 156 122 284 297 284c102 0 195 -42 244 -124l-55 -34c-47 62 -112 92 -192 92c-135 0 -224 -99 -224 -213c0 -116 88 -217 225 -217c77 0 141 31 191 93zM344 741c31 0 56 -26 56 -57
s-25 -56 -56 -56s-57 25 -57 56s26 57 57 57z" />
    <glyph glyph-name="dcaron" unicode="&#x10f;" horiz-adv-x="685" 
d="M539 0v91c-58 -70 -131 -104 -214 -104c-155 0 -272 129 -272 280s120 278 274 278c86 0 159 -37 212 -111v302h68v-736h-68zM333 479c-122 0 -210 -100 -210 -214c0 -115 90 -216 209 -216c109 0 211 82 211 214c0 123 -91 216 -210 216zM683 508c15 29 24 54 28 74
c5 21 7 48 7 83v71h-75v-114h37c-2 -29 -12 -61 -29 -95z" />
    <glyph glyph-name="dcroat" unicode="&#x111;" horiz-adv-x="685" 
d="M606 736v-86h79v-56h-79v-594h-67v91c-57 -69 -129 -105 -213 -105c-75 0 -140 27 -193 82s-80 121 -80 199c0 77 27 142 80 196c54 55 119 82 195 82c87 0 158 -38 211 -111v160h-149v56h149v86h67zM333 479c-113 5 -213 -101 -211 -214c-2 -115 100 -220 211 -216
c113 -1 215 93 210 214c0 61 -20 113 -61 154c-40 41 -90 62 -149 62z" />
    <glyph glyph-name="ebreve" unicode="&#x115;" horiz-adv-x="650" 
d="M599 260h-478c3 -122 86 -211 200 -211c111 0 164 63 203 127l57 -30c-54 -106 -137 -159 -253 -159c-176 0 -277 135 -277 277c0 145 107 281 273 281c151 0 273 -109 275 -285zM128 320h396c-28 110 -107 159 -199 159c-95 0 -166 -51 -197 -159zM431 745h62
c-14 -57 -71 -103 -171 -103c-94 0 -158 40 -175 103h64c23 -35 59 -51 111 -51c51 0 80 12 109 51z" />
    <glyph glyph-name="ecaron" unicode="&#x11b;" horiz-adv-x="650" 
d="M599 260h-478c3 -122 86 -211 200 -211c111 0 164 63 203 127l57 -30c-54 -106 -137 -159 -253 -159c-176 0 -277 135 -277 277c0 145 107 281 273 281c151 0 273 -109 275 -285zM128 320h396c-28 110 -107 159 -199 159c-95 0 -166 -51 -197 -159zM508 753l-145 -125
h-68l-142 125h88l86 -74l90 74h91z" />
    <glyph glyph-name="edotaccent" unicode="&#x117;" horiz-adv-x="650" 
d="M599 260h-478c3 -122 86 -211 200 -211c111 0 164 63 203 127l57 -30c-54 -106 -137 -159 -253 -159c-176 0 -277 135 -277 277c0 145 107 281 273 281c151 0 273 -109 275 -285zM128 320h396c-28 110 -107 159 -199 159c-95 0 -166 -51 -197 -159zM315 741
c31 0 56 -26 56 -57s-25 -56 -56 -56s-57 25 -57 56s26 57 57 57z" />
    <glyph glyph-name="emacron" unicode="&#x113;" horiz-adv-x="650" 
d="M599 260h-478c3 -122 86 -211 200 -211c111 0 164 63 203 127l57 -30c-54 -106 -137 -159 -253 -159c-176 0 -277 135 -277 277c0 145 107 281 273 281c151 0 273 -109 275 -285zM128 320h396c-28 110 -107 159 -199 159c-95 0 -166 -51 -197 -159zM152 663v60h337v-60
h-337z" />
    <glyph glyph-name="eng" unicode="&#x14b;" horiz-adv-x="610" 
d="M540 273v-353c0 -85 -31 -128 -92 -128c-23 0 -49 6 -76 17v61c17 -9 33 -14 49 -14c13 0 23 3 31 10c16 13 20 25 20 74v313c0 62 -4 107 -11 134c-13 56 -59 95 -131 95c-63 0 -113 -31 -146 -79c-16 -24 -27 -49 -32 -75c-5 -25 -7 -70 -7 -133v-195h-69v531h69v-95
c55 73 121 109 198 109c46 0 85 -13 117 -38s53 -55 64 -90c11 -34 16 -82 16 -144z" />
    <glyph glyph-name="eogonek" unicode="&#x119;" horiz-adv-x="650" 
d="M458 -145l-5 -42c-14 -3 -29 -4 -42 -4c-84 0 -111 49 -111 87c0 33 14 66 42 92c-5 0 -9 -1 -14 -1c-176 0 -277 135 -277 277c0 145 107 281 273 281c151 0 273 -109 275 -285h-478c3 -122 86 -211 200 -211c111 0 164 63 203 127l57 -30c-41 -81 -99 -130 -175 -149
c-33 -30 -54 -57 -54 -90c0 -27 20 -55 72 -55c11 0 25 2 34 3zM128 320h396c-28 110 -107 159 -199 159c-95 0 -166 -51 -197 -159z" />
    <glyph glyph-name="gbreve" unicode="&#x11f;" horiz-adv-x="673" 
d="M603 531v-423c0 -87 -5 -159 -48 -218c-45 -61 -124 -97 -225 -97c-153 0 -227 62 -274 165h74c40 -70 102 -103 196 -103c88 0 153 32 185 90c20 37 23 75 23 116v40c-53 -67 -130 -101 -213 -101c-147 0 -272 112 -272 269c0 158 131 276 272 276
c94 0 157 -40 213 -106v92h69zM332 479c-119 0 -213 -91 -213 -214c0 -106 75 -199 215 -199c116 0 203 80 203 204c0 128 -95 209 -205 209zM463 745h62c-14 -57 -71 -103 -171 -103c-94 0 -158 40 -175 103h64c23 -35 59 -51 111 -51c51 0 80 12 109 51z" />
    <glyph glyph-name="gcircumflex" unicode="&#x11d;" horiz-adv-x="673" 
d="M603 531v-423c0 -87 -5 -159 -48 -218c-45 -61 -124 -97 -225 -97c-153 0 -227 62 -274 165h74c40 -70 102 -103 196 -103c88 0 153 32 185 90c20 37 23 75 23 116v40c-53 -67 -130 -101 -213 -101c-147 0 -272 112 -272 269c0 158 131 276 272 276
c94 0 157 -40 213 -106v92h69zM332 479c-119 0 -213 -91 -213 -214c0 -106 75 -199 215 -199c116 0 203 80 203 204c0 128 -95 209 -205 209zM172 628l145 125h68l142 -125h-89l-86 74l-89 -74h-91z" />
    <glyph glyph-name="gcommaaccent" unicode="&#x123;" horiz-adv-x="673" 
d="M603 531v-423c0 -87 -5 -159 -48 -218c-45 -61 -124 -97 -225 -97c-153 0 -227 62 -274 165h74c40 -70 102 -103 196 -103c88 0 153 32 185 90c20 37 23 75 23 116v40c-53 -67 -130 -101 -213 -101c-147 0 -272 112 -272 269c0 158 131 276 272 276
c94 0 157 -40 213 -106v92h69zM332 479c-119 0 -213 -91 -213 -214c0 -106 75 -199 215 -199c116 0 203 80 203 204c0 128 -95 209 -205 209zM396 768l-69 -147l-55 23l84 139z" />
    <glyph glyph-name="gdotaccent" unicode="&#x121;" horiz-adv-x="673" 
d="M603 531v-423c0 -87 -5 -159 -48 -218c-45 -61 -124 -97 -225 -97c-153 0 -227 62 -274 165h74c40 -70 102 -103 196 -103c88 0 153 32 185 90c20 37 23 75 23 116v40c-53 -67 -130 -101 -213 -101c-147 0 -272 112 -272 269c0 158 131 276 272 276
c94 0 157 -40 213 -106v92h69zM332 479c-119 0 -213 -91 -213 -214c0 -106 75 -199 215 -199c116 0 203 80 203 204c0 128 -95 209 -205 209zM327 741c31 0 56 -26 56 -57s-25 -56 -56 -56s-57 25 -57 56s26 57 57 57z" />
    <glyph glyph-name="hbar" unicode="&#x127;" horiz-adv-x="610" 
d="M145 736v-74h182v-57h-182v-169c55 73 121 109 198 109c47 0 86 -13 118 -39c32 -25 53 -55 63 -90c11 -34 16 -82 16 -143v-273h-69v253c0 62 -3 107 -10 134c-13 56 -59 95 -131 95c-63 0 -113 -31 -146 -79c-16 -24 -27 -49 -32 -75c-5 -25 -7 -70 -7 -133v-195h-69
v605h-74v57h74v74h69z" />
    <glyph glyph-name="hcircumflex" unicode="&#x125;" horiz-adv-x="610" 
d="M76 0v736h68v-300c55 72 120 109 199 109c115 0 196 -81 196 -240v-305h-68v289c0 125 -38 194 -141 194c-57 0 -104 -25 -140 -72c-39 -51 -46 -103 -46 -188v-223h-68zM-60 783l145 125h68l142 -125h-89l-86 74l-89 -74h-91z" />
    <glyph glyph-name="ibreve" unicode="&#x12d;" horiz-adv-x="200" 
d="M67 0v531h68v-531h-68zM209 745h62c-14 -57 -71 -103 -171 -103c-94 0 -158 40 -175 103h64c23 -35 59 -51 111 -51c51 0 80 12 109 51z" />
    <glyph glyph-name="ij" unicode="&#x133;" horiz-adv-x="403" 
d="M67 0v531h68v-531h-68zM100 750c31 0 57 -25 57 -56s-26 -57 -57 -57s-56 26 -56 57c0 32 26 56 56 56zM269 -80v611h68v-611c0 -85 -30 -129 -91 -129c-30 0 -56 9 -77 17v62c12 -6 28 -13 49 -13c32 0 51 21 51 63zM302 750c31 0 57 -25 57 -56s-26 -57 -57 -57
s-56 26 -56 57s25 56 56 56z" />
    <glyph glyph-name="imacron" unicode="&#x12b;" horiz-adv-x="200" 
d="M67 0v531h68v-531h-68zM-74 663v60h337v-60h-337z" />
    <glyph glyph-name="iogonek" unicode="&#x12f;" horiz-adv-x="200" 
d="M67 0v531h68v-531h-6c-36 -31 -59 -59 -59 -93c0 -27 20 -55 72 -55c11 0 25 2 34 3l-5 -42c-14 -3 -29 -4 -42 -4c-84 0 -111 49 -111 87c0 39 20 77 58 104h-9zM100 750c31 0 57 -25 57 -56s-26 -57 -57 -57s-56 26 -56 57c0 32 26 56 56 56z" />
    <glyph glyph-name="itilde" unicode="&#x129;" horiz-adv-x="200" 
d="M67 0v531h68v-531h-68zM164 704c27 0 51 11 74 24l34 -47c-33 -24 -63 -43 -110 -43c-64 0 -93 41 -139 41c-32 0 -53 -18 -77 -35l-32 50c30 32 67 47 110 47c56 0 95 -37 140 -37z" />
    <glyph glyph-name="jcircumflex" unicode="&#x135;" horiz-adv-x="203" 
d="M69 -80v611h68v-611c0 -85 -30 -129 -91 -129c-30 0 -56 9 -77 17v62c12 -6 28 -13 49 -13c32 0 51 21 51 63zM-73 628l145 125h68l142 -125h-89l-86 74l-89 -74h-91z" />
    <glyph glyph-name="kcommaaccent" unicode="&#x137;" horiz-adv-x="502" 
d="M77 0v736h68v-419l245 214h101l-291 -253l308 -278h-97l-266 239v-239h-68zM215 -101l6 39c15 5 30 7 46 7c51 0 77 -18 77 -53c0 -45 -44 -78 -112 -78c-21 0 -44 4 -71 11l11 35c22 -5 39 -7 50 -7c43 0 64 11 64 32c0 14 -12 21 -36 21c-9 0 -20 -2 -35 -7z" />
    <glyph glyph-name="lacute" unicode="&#x13a;" horiz-adv-x="200" 
d="M66 0v736h68v-736h-68zM49 798l107 151h105l-145 -151h-67z" />
    <glyph glyph-name="lcaron" unicode="&#x13e;" horiz-adv-x="200" 
d="M66 0v736h68v-736h-68zM210 508c15 29 24 54 28 74c5 21 7 48 7 83v71h-75v-114h37c-2 -29 -12 -61 -29 -95z" />
    <glyph glyph-name="lcommaaccent" unicode="&#x13c;" horiz-adv-x="200" 
d="M66 0v736h68v-736h-68zM55 -101l6 39c15 5 30 7 46 7c51 0 77 -18 77 -53c0 -45 -44 -78 -112 -78c-21 0 -44 4 -71 11l11 35c22 -5 39 -7 50 -7c43 0 64 11 64 32c0 14 -12 21 -36 21c-9 0 -20 -2 -35 -7z" />
    <glyph glyph-name="ldot" unicode="&#x140;" horiz-adv-x="298" 
d="M66 0v736h68v-736h-68zM254 458c32 0 60 -28 60 -62s-27 -60 -60 -60c-34 0 -60 27 -60 60s27 62 60 62z" />
    <glyph glyph-name="nacute" unicode="&#x144;" horiz-adv-x="610" 
d="M144 531v-95c55 72 121 109 199 109c116 0 197 -80 197 -247v-298h-68v289c0 125 -39 194 -142 194c-57 0 -104 -25 -140 -72c-40 -52 -46 -104 -46 -188v-223h-68v531h68zM249 630l107 151h105l-145 -151h-67z" />
    <glyph glyph-name="ncaron" unicode="&#x148;" horiz-adv-x="610" 
d="M144 531v-95c55 72 121 109 199 109c116 0 197 -80 197 -247v-298h-68v289c0 125 -39 194 -142 194c-57 0 -104 -25 -140 -72c-40 -52 -46 -104 -46 -188v-223h-68v531h68zM499 753l-145 -125h-68l-142 125h88l86 -74l90 74h91z" />
    <glyph glyph-name="ncommaaccent" unicode="&#x146;" horiz-adv-x="610" 
d="M144 531v-95c55 72 121 109 199 109c116 0 197 -80 197 -247v-298h-68v289c0 125 -39 194 -142 194c-57 0 -104 -25 -140 -72c-40 -52 -46 -104 -46 -188v-223h-68v531h68zM250 -101l6 39c15 5 30 7 46 7c51 0 77 -18 77 -53c0 -45 -44 -78 -112 -78c-21 0 -44 4 -71 11
l11 35c22 -5 39 -7 50 -7c43 0 64 11 64 32c0 14 -12 21 -36 21c-9 0 -20 -2 -35 -7z" />
    <glyph glyph-name="obreve" unicode="&#x14f;" horiz-adv-x="655" 
d="M328 545c159 0 277 -129 277 -281c0 -151 -117 -278 -277 -278s-277 127 -277 278c0 152 118 281 277 281zM328 479c-114 0 -207 -98 -207 -216c0 -116 87 -211 207 -211c119 0 207 95 207 211c0 118 -94 216 -207 216zM434 745h62c-14 -57 -71 -103 -171 -103
c-94 0 -158 40 -175 103h64c23 -35 59 -51 111 -51c51 0 80 12 109 51z" />
    <glyph glyph-name="ohungarumlaut" unicode="&#x151;" horiz-adv-x="655" 
d="M328 545c159 0 277 -129 277 -281c0 -151 -117 -278 -277 -278s-277 127 -277 278c0 152 118 281 277 281zM328 479c-114 0 -207 -98 -207 -216c0 -116 87 -211 207 -211c119 0 207 95 207 211c0 118 -94 216 -207 216zM204 630l107 151h105l-145 -151h-67zM358 630
l107 151h105l-144 -151h-68z" />
    <glyph glyph-name="omacron" unicode="&#x14d;" horiz-adv-x="655" 
d="M328 545c159 0 277 -129 277 -281c0 -151 -117 -278 -277 -278s-277 127 -277 278c0 152 118 281 277 281zM328 479c-114 0 -207 -98 -207 -216c0 -116 87 -211 207 -211c119 0 207 95 207 211c0 118 -94 216 -207 216zM156 663v60h337v-60h-337z" />
    <glyph glyph-name="oslashacute" unicode="&#x1ff;" horiz-adv-x="653" 
d="M599 517l-60 -71c42 -51 65 -115 65 -182c0 -152 -117 -278 -277 -278c-53 0 -102 13 -146 40l-57 -66l-43 35l55 66c-56 55 -86 126 -86 203c0 153 118 281 276 281c64 0 124 -20 172 -58l57 66zM492 392l-267 -315c32 -17 64 -25 102 -25c120 0 207 94 207 210
c0 46 -15 91 -42 130zM180 112l273 321c-37 29 -81 46 -126 46c-113 0 -207 -98 -207 -216c0 -56 23 -113 60 -151zM252 630l107 151h105l-145 -151h-67z" />
    <glyph glyph-name="racute" unicode="&#x155;" horiz-adv-x="301" 
d="M121 531v-77c40 58 83 91 137 91c31 0 47 -10 61 -18l-36 -58c-8 4 -21 10 -36 10c-50 0 -95 -43 -115 -116c-9 -34 -11 -89 -11 -161v-202h-72v531h72zM84 630l107 151h105l-145 -151h-67z" />
    <glyph glyph-name="rcaron" unicode="&#x159;" horiz-adv-x="301" 
d="M121 531v-77c40 58 83 91 137 91c31 0 47 -10 61 -18l-36 -58c-8 4 -21 10 -36 10c-50 0 -95 -43 -115 -116c-9 -34 -11 -89 -11 -161v-202h-72v531h72zM336 753l-145 -125h-68l-142 125h88l86 -74l90 74h91z" />
    <glyph glyph-name="rcommaaccent" unicode="&#x157;" horiz-adv-x="301" 
d="M121 531v-77c40 58 83 91 137 91c31 0 47 -10 61 -18l-36 -58c-8 4 -21 10 -36 10c-50 0 -95 -43 -115 -116c-9 -34 -11 -89 -11 -161v-202h-72v531h72zM60 -101l6 39c15 5 30 7 46 7c51 0 77 -18 77 -53c0 -45 -44 -78 -112 -78c-21 0 -44 4 -71 11l11 35
c22 -5 39 -7 50 -7c43 0 64 11 64 32c0 14 -12 21 -36 21c-9 0 -20 -2 -35 -7z" />
    <glyph glyph-name="sacute" unicode="&#x15b;" horiz-adv-x="388" 
d="M26 62l43 49c34 -38 71 -59 111 -59c52 0 98 38 98 88c0 31 -18 60 -44 74c-122 68 -184 97 -184 190c0 84 65 141 146 141c58 0 102 -28 147 -72l-44 -45c-32 31 -64 51 -107 51c-44 0 -80 -31 -80 -71c0 -27 17 -57 41 -71c122 -71 190 -98 190 -194
c0 -83 -64 -157 -160 -157c-59 0 -119 27 -157 76zM120 630l107 151h105l-145 -151h-67z" />
    <glyph glyph-name="uni015F" unicode="&#x15f;" horiz-adv-x="388" 
d="M147 -99l11 87c-50 7 -99 31 -132 74l43 49c34 -38 71 -59 111 -59c52 0 98 38 98 88c0 31 -18 60 -44 74c-122 68 -184 97 -184 190c0 84 65 141 146 141c58 0 102 -28 147 -72l-44 -45c-32 31 -64 51 -107 51c-44 0 -80 -31 -80 -71c0 -27 17 -57 41 -71
c122 -71 190 -98 190 -194c0 -78 -56 -147 -142 -156l-6 -45c7 1 10 2 17 2c30 0 57 -19 57 -52c0 -44 -42 -78 -112 -78c-27 0 -55 5 -81 15l11 34c18 -6 38 -10 58 -10c42 0 66 11 66 32c0 12 -12 21 -30 21c-10 0 -25 -3 -34 -5z" />
    <glyph glyph-name="scircumflex" unicode="&#x15d;" horiz-adv-x="388" 
d="M26 62l43 49c34 -38 71 -59 111 -59c52 0 98 38 98 88c0 31 -18 60 -44 74c-122 68 -184 97 -184 190c0 84 65 141 146 141c58 0 102 -28 147 -72l-44 -45c-32 31 -64 51 -107 51c-44 0 -80 -31 -80 -71c0 -27 17 -57 41 -71c122 -71 190 -98 190 -194
c0 -83 -64 -157 -160 -157c-59 0 -119 27 -157 76zM23 628l145 125h68l142 -125h-89l-86 74l-89 -74h-91z" />
    <glyph glyph-name="uni0219" unicode="&#x219;" horiz-adv-x="388" 
d="M26 62l43 49c34 -38 71 -59 111 -59c52 0 98 38 98 88c0 31 -18 60 -44 74c-122 68 -184 97 -184 190c0 84 65 141 146 141c58 0 102 -28 147 -72l-44 -45c-32 31 -64 51 -107 51c-44 0 -80 -31 -80 -71c0 -27 17 -57 41 -71c122 -71 190 -98 190 -194
c0 -83 -64 -157 -160 -157c-59 0 -119 27 -157 76zM124 -101l6 39c15 5 30 7 46 7c51 0 77 -18 77 -53c0 -45 -44 -78 -112 -78c-21 0 -44 4 -71 11l11 35c22 -5 39 -7 50 -7c43 0 64 11 64 32c0 14 -12 21 -36 21c-9 0 -20 -2 -35 -7z" />
    <glyph glyph-name="tbar" unicode="&#x167;" horiz-adv-x="339" 
d="M205 473v-177h120v-56h-120v-240h-69v240h-105v56h105v177h-94v58h94v198h69v-198h108v-58h-108z" />
    <glyph glyph-name="tcaron" unicode="&#x165;" horiz-adv-x="339" 
d="M289 568l-29 13c17 27 27 52 28 75h-34v80h68v-50c0 -27 -2 -48 -6 -63c-3 -15 -12 -33 -27 -55zM136 531v198h69v-198h108v-58h-108v-473h-69v473h-94v58h94z" />
    <glyph glyph-name="tcommaaccent" unicode="&#x163;" horiz-adv-x="339" 
d="M137 531v198h68v-198h109v-60h-109v-471h-68v471h-94v60h94zM127 -101l6 39c15 5 30 7 46 7c51 0 77 -18 77 -53c0 -45 -44 -78 -112 -78c-21 0 -44 4 -71 11l11 35c22 -5 39 -7 50 -7c43 0 64 11 64 32c0 14 -12 21 -36 21c-9 0 -20 -2 -35 -7z" />
    <glyph glyph-name="ubreve" unicode="&#x16d;" horiz-adv-x="608" 
d="M462 272v259h72v-275c0 -179 -81 -269 -233 -269s-234 90 -234 269v275h72v-259c0 -56 0 -102 15 -134c25 -54 80 -85 147 -85c49 0 92 18 120 47c42 45 41 96 41 172zM408 745h62c-14 -57 -71 -103 -171 -103c-94 0 -158 40 -175 103h64c23 -35 59 -51 111 -51
c51 0 80 12 109 51z" />
    <glyph glyph-name="uhungarumlaut" unicode="&#x171;" horiz-adv-x="608" 
d="M462 272v259h72v-275c0 -179 -81 -269 -233 -269s-234 90 -234 269v275h72v-259c0 -56 0 -102 15 -134c25 -54 80 -85 147 -85c49 0 92 18 120 47c42 45 41 96 41 172zM166 630l107 151h105l-145 -151h-67zM320 630l107 151h105l-144 -151h-68z" />
    <glyph glyph-name="umacron" unicode="&#x16b;" horiz-adv-x="608" 
d="M462 272v259h72v-275c0 -179 -81 -269 -233 -269s-234 90 -234 269v275h72v-259c0 -56 0 -102 15 -134c25 -54 80 -85 147 -85c49 0 92 18 120 47c42 45 41 96 41 172zM138 663v60h337v-60h-337z" />
    <glyph glyph-name="uogonek" unicode="&#x173;" horiz-adv-x="608" 
d="M389 -145l-5 -42c-14 -3 -29 -4 -42 -4c-84 0 -111 49 -111 87c0 34 14 67 43 92c-135 11 -207 100 -207 268v275h72v-259c0 -56 0 -102 15 -134c25 -54 80 -85 147 -85c49 0 92 18 120 47c42 45 41 96 41 172v259h72v-275c0 -168 -71 -257 -206 -268
c-28 -26 -45 -51 -45 -81c0 -27 20 -55 72 -55c11 0 25 2 34 3z" />
    <glyph glyph-name="uring" unicode="&#x16f;" horiz-adv-x="608" 
d="M462 272v259h72v-275c0 -179 -81 -269 -233 -269s-234 90 -234 269v275h72v-259c0 -56 0 -102 15 -134c25 -54 80 -85 147 -85c49 0 92 18 120 47c42 45 41 96 41 172zM300 820c56 0 101 -44 101 -101c0 -56 -45 -102 -101 -102s-102 46 -102 102s45 101 102 101z
M300 778c-34 1 -59 -26 -59 -59c0 -34 28 -59 59 -59c33 0 59 27 59 59c1 33 -27 59 -59 59z" />
    <glyph glyph-name="utilde" unicode="&#x169;" horiz-adv-x="608" 
d="M462 272v259h72v-275c0 -179 -81 -269 -233 -269s-234 90 -234 269v275h72v-259c0 -56 0 -102 15 -134c25 -54 80 -85 147 -85c49 0 92 18 120 47c42 45 41 96 41 172zM369 704c27 0 51 11 74 24l34 -47c-33 -24 -63 -43 -110 -43c-64 0 -93 41 -139 41
c-32 0 -53 -18 -77 -35l-32 50c30 32 67 47 110 47c56 0 95 -37 140 -37z" />
    <glyph glyph-name="wacute" unicode="&#x1e83;" horiz-adv-x="831" 
d="M230 0l-226 531h71l162 -385l170 385h12l171 -385l165 385h71l-230 -531h-13l-169 380l-170 -380h-14zM336 630l107 151h105l-145 -151h-67z" />
    <glyph glyph-name="wcircumflex" unicode="&#x175;" horiz-adv-x="831" 
d="M230 0l-226 531h71l162 -385l170 385h12l171 -385l165 385h71l-230 -531h-13l-169 380l-170 -380h-14zM228 628l145 125h68l142 -125h-89l-86 74l-89 -74h-91z" />
    <glyph glyph-name="wdieresis" unicode="&#x1e85;" horiz-adv-x="831" 
d="M230 0l-226 531h71l162 -385l170 385h12l171 -385l165 385h71l-230 -531h-13l-169 380l-170 -380h-14zM317 741c31 0 56 -26 56 -57s-25 -56 -56 -56s-57 25 -57 56s26 57 57 57zM516 741c31 0 56 -26 56 -57s-25 -56 -56 -56s-57 25 -57 56s26 57 57 57z" />
    <glyph glyph-name="wgrave" unicode="&#x1e81;" horiz-adv-x="831" 
d="M230 0l-226 531h71l162 -385l170 385h12l171 -385l165 385h71l-230 -531h-13l-169 380l-170 -380h-14zM261 781h105l107 -151h-68z" />
    <glyph glyph-name="ycircumflex" unicode="&#x177;" horiz-adv-x="536" 
d="M237 40l-218 491h72l183 -409l177 409h73l-317 -725h-72zM95 628l145 125h68l142 -125h-89l-86 74l-89 -74h-91z" />
    <glyph glyph-name="ygrave" unicode="&#x1ef3;" horiz-adv-x="536" 
d="M237 40l-218 491h72l183 -409l177 409h73l-317 -725h-72zM113 781h105l107 -151h-68z" />
    <glyph glyph-name="zacute" unicode="&#x17a;" horiz-adv-x="425" 
d="M32 471v60h391l-301 -471h291v-60h-409l301 471h-273zM168 630l107 151h105l-145 -151h-67z" />
    <glyph glyph-name="zdotaccent" unicode="&#x17c;" horiz-adv-x="425" 
d="M32 471v60h391l-301 -471h291v-60h-409l301 471h-273zM217 741c31 0 56 -26 56 -57s-25 -56 -56 -56s-57 25 -57 56s26 57 57 57z" />
    <glyph glyph-name="kgreenlandic" unicode="&#x138;" horiz-adv-x="502" 
d="M77 0v531h68v-214l245 214h101l-291 -253l308 -278h-97l-266 239v-239h-68z" />
    <glyph glyph-name="napostrophe" unicode="&#x149;" horiz-adv-x="612" 
d="M79 0v531h68v-95c55 73 122 109 199 109c40 0 75 -10 106 -31c31 -20 53 -47 68 -81s22 -87 22 -160v-273h-68v253c0 61 -3 102 -8 123c-16 71 -61 106 -133 106c-41 0 -79 -14 -112 -41s-54 -61 -64 -102c-7 -26 -10 -74 -10 -144v-195h-68zM13 468l-38 22
c13 25 21 44 25 58s7 32 9 54h-43v134h89v-84c0 -42 -3 -75 -9 -99c-5 -23 -16 -52 -33 -85z" />
    <glyph glyph-name="Delta" unicode="&#x2206;" horiz-adv-x="610" 
d="M587 0h-565v35c82 222 163 443 244 665h80c80 -222 161 -443 241 -665v-35zM507 58c-62 172 -124 345 -186 517c-8 23 -11 40 -16 55h-3c-3 -14 -9 -35 -15 -54c-62 -173 -125 -345 -187 -518h407z" />
    <glyph glyph-name="Omega" unicode="&#x2126;" horiz-adv-x="712" 
d="M661 0h-225v57c62 53 155 147 155 320c0 156 -81 276 -232 276c-142 0 -238 -115 -238 -276c0 -168 88 -263 156 -320v-57h-225v57h156c-65 51 -157 153 -157 328c0 187 126 327 308 327c192 0 302 -134 302 -325c0 -159 -85 -272 -158 -330h158v-57z" />
    <glyph glyph-name="uni03BC" unicode="&#x3bc;" horiz-adv-x="608" 
d="M453 0v58c-36 -45 -81 -70 -148 -70c-64 0 -111 23 -148 68v-250h-68v725h68v-293c0 -37 2 -69 13 -93c24 -50 78 -83 137 -83c67 0 124 45 140 114c6 26 6 42 6 69v286h68v-531h-68z" />
    <glyph glyph-name="pi" unicode="&#x3c0;" horiz-adv-x="655" 
d="M597 54l14 -48c-14 -8 -37 -13 -61 -13c-82 0 -116 56 -116 129v324h-199v-314c0 -54 -5 -100 -14 -132h-68c10 38 15 88 15 135v311c-30 0 -76 -10 -104 -23c-6 17 -13 33 -20 50c27 13 77 27 140 27h426v-54h-108v-318c0 -49 17 -81 64 -81c10 0 21 3 31 7z" />
    <glyph glyph-name="afii10017" unicode="&#x410;" horiz-adv-x="740" 
d="M364 718h17l335 -718h-77l-113 236h-310l-112 -236h-80zM494 306l-122 260l-124 -260h246z" />
    <glyph glyph-name="afii10018" unicode="&#x411;" horiz-adv-x="573" 
d="M284 0h-197v718h360v-70h-288v-231h33c104 0 186 -2 253 -56c46 -37 72 -97 72 -155c0 -107 -82 -206 -233 -206zM208 347h-49v-277h87c31 0 62 5 86 7c46 4 110 52 110 128c0 36 -13 67 -39 92c-45 43 -108 50 -195 50z" />
    <glyph glyph-name="afii10019" unicode="&#x412;" horiz-adv-x="574" 
d="M298 0h-210v718h153c151 0 220 -74 220 -175c0 -63 -30 -117 -92 -151c100 -34 151 -96 151 -186c0 -114 -95 -206 -222 -206zM255 648h-95v-231h49c54 0 96 7 126 27c32 21 51 59 51 99c0 64 -48 105 -131 105zM210 347h-50v-277h88c31 0 62 5 86 7c48 4 111 56 111 128
c0 47 -26 91 -70 115c-42 23 -98 27 -165 27z" />
    <glyph glyph-name="afii10020" unicode="&#x413;" horiz-adv-x="462" 
d="M159 648v-648h-72v718h360v-70h-288z" />
    <glyph glyph-name="afii10050" unicode="&#x490;" horiz-adv-x="405" 
d="M159 648v-648h-72v718h232v105h72v-175h-232z" />
    <glyph glyph-name="afii10021" unicode="&#x414;" horiz-adv-x="748" 
d="M87 0v-107h-72v174h59l281 651h25l298 -651h57v-174h-72v107h-576zM368 570l-213 -503h438z" />
    <glyph glyph-name="afii10022" unicode="&#x415;" horiz-adv-x="536" 
d="M88 0v718h410v-70h-338v-225h338v-70h-338v-283h338v-70h-410z" />
    <glyph glyph-name="afii10024" unicode="&#x416;" horiz-adv-x="935" 
d="M525 353l-22 -19v-334h-72v334l-23 19l-294 -353h-95l343 398l-316 320h97l288 -303v303h72v-303l288 303h97l-316 -320l343 -398h-95z" />
    <glyph glyph-name="afii10025" unicode="&#x417;" horiz-adv-x="581" 
d="M294 347h-62v63h32c97 0 152 47 152 130c0 76 -49 130 -135 130c-62 0 -103 -39 -130 -65l-49 43c63 68 108 88 196 88c74 0 144 -40 175 -98c18 -34 18 -58 18 -96c0 -57 -29 -118 -106 -153c96 -30 142 -99 142 -188c0 -145 -109 -219 -219 -219
c-118 0 -184 26 -260 144l56 32c44 -62 87 -113 183 -113c93 0 165 53 165 154c0 93 -75 148 -158 148z" />
    <glyph glyph-name="afii10026" unicode="&#x418;" horiz-adv-x="740" 
d="M652 718v-718h-75v550l-473 -550h-16v718h72v-560l476 560h16z" />
    <glyph glyph-name="afii10027" unicode="&#x419;" horiz-adv-x="740" 
d="M652 718v-718h-75v548l-473 -548h-16v718h72v-557l476 557h16zM497 860h63c-14 -56 -71 -103 -171 -103c-94 0 -158 40 -175 103h64c23 -35 59 -51 111 -51s80 13 108 51z" />
    <glyph glyph-name="afii10028" unicode="&#x41a;" horiz-adv-x="591" 
d="M88 0v718h72v-298l287 298h97l-316 -320l343 -398h-95l-297 348l-19 -18v-330h-72z" />
    <glyph glyph-name="afii10029" unicode="&#x41b;" horiz-adv-x="740" 
d="M716 0h-77l-267 566l-269 -566h-79l340 718h17z" />
    <glyph glyph-name="afii10030" unicode="&#x41c;" horiz-adv-x="919" 
d="M125 0h-70l102 718h12l292 -589l289 589h12l102 -718h-70l-70 514l-254 -514h-18l-258 518z" />
    <glyph glyph-name="afii10031" unicode="&#x41d;" horiz-adv-x="683" 
d="M87 0v718h72v-301h366v301h72v-718h-72v347h-366v-347h-72z" />
    <glyph glyph-name="afii10032" unicode="&#x41e;" horiz-adv-x="869" 
d="M429 736c218 0 384 -163 384 -377c0 -211 -165 -377 -378 -377c-221 0 -379 173 -379 374c0 214 166 380 373 380zM433 666c-158 0 -302 -126 -302 -310c0 -177 140 -304 302 -304c169 0 305 129 305 308c0 181 -145 306 -305 306z" />
    <glyph glyph-name="afii10033" unicode="&#x41f;" horiz-adv-x="683" 
d="M87 0v718h510v-718h-72v648h-366v-648h-72z" />
    <glyph glyph-name="afii10034" unicode="&#x420;" horiz-adv-x="592" 
d="M87 0v718h166c75 0 131 -5 166 -18c73 -28 117 -92 117 -173c0 -68 -31 -125 -82 -157s-125 -36 -224 -36h-71v-334h-72zM286 648h-127v-244c41 -1 82 0 119 0c62 0 110 4 142 30c25 21 41 57 41 93c0 38 -17 74 -44 94c-32 24 -75 27 -131 27z" />
    <glyph glyph-name="afii10035" unicode="&#x421;" horiz-adv-x="813" 
d="M699 168l57 -43c-74 -93 -183 -142 -314 -142c-240 0 -387 169 -387 380c0 212 164 373 387 373c132 0 243 -52 314 -151l-57 -43c-63 83 -153 124 -256 124c-170 0 -313 -126 -313 -309c0 -178 136 -308 317 -308c100 0 185 41 252 119z" />
    <glyph glyph-name="afii10036" unicode="&#x422;" horiz-adv-x="426" 
d="M178 648h-162v70h394v-70h-160v-648h-72v648z" />
    <glyph glyph-name="afii10037" unicode="&#x423;" horiz-adv-x="646" 
d="M295 139l-262 578h81l217 -488l199 488h79l-273 -644c-25 -59 -73 -91 -135 -91c-77 0 -116 43 -161 91l52 43c46 -44 65 -68 108 -68c52 0 71 33 95 91z" />
    <glyph glyph-name="afii10038" unicode="&#x424;" horiz-adv-x="871" 
d="M400 627v91h72v-91h54c114 0 191 -21 240 -80c31 -37 49 -85 49 -136c0 -114 -82 -195 -199 -203c-21 -1 -46 -3 -67 -3h-77v-205h-72v205h-78c-45 0 -88 2 -124 13c-88 27 -142 100 -142 193c0 51 17 99 48 136c50 59 127 80 240 80h56zM552 557h-80v-282h75
c10 0 26 -1 36 -1c106 0 157 62 157 136c0 95 -69 147 -188 147zM400 275v282h-81c-119 0 -188 -52 -188 -147c0 -73 50 -136 157 -136c14 0 22 1 36 1h76z" />
    <glyph glyph-name="afii10039" unicode="&#x425;" horiz-adv-x="609" 
d="M263 370l-213 348h84l172 -280l173 280h83l-214 -348l228 -370h-84l-186 301l-188 -301h-84z" />
    <glyph glyph-name="afii10040" unicode="&#x426;" horiz-adv-x="708" 
d="M619 -107v107h-532v718h72v-648h332v648h72v-648h124v-177h-68z" />
    <glyph glyph-name="afii10041" unicode="&#x427;" horiz-adv-x="539" 
d="M246 409h135v309h72v-718h-72v339h-108c-102 0 -171 19 -216 74c-40 48 -42 99 -42 163v142h72v-146c0 -103 27 -163 159 -163z" />
    <glyph glyph-name="afii10042" unicode="&#x428;" horiz-adv-x="1008" 
d="M159 718v-648h307v648h72v-648h312v648h72v-718h-835v718h72z" />
    <glyph glyph-name="afii10043" unicode="&#x429;" horiz-adv-x="1066" 
d="M922 718v-648h124v-177h-68v107h-891v718h72v-648h307v648h72v-648h312v648h72z" />
    <glyph glyph-name="afii10044" unicode="&#x42a;" horiz-adv-x="684" 
d="M165 0v651h-149v67h221v-308h71c40 0 83 -1 123 -3c126 -8 197 -83 197 -196c0 -97 -42 -163 -119 -192c-34 -13 -95 -19 -178 -19h-166zM237 340v-270h77c130 0 239 -5 239 138c0 72 -51 125 -121 128c-29 1 -74 4 -134 4h-61z" />
    <glyph glyph-name="afii10045" unicode="&#x42b;" horiz-adv-x="793" 
d="M635 0v718h72v-718h-72zM87 0v718h72v-308h71c40 0 82 -1 122 -3c126 -8 198 -83 198 -196c0 -96 -42 -163 -119 -192c-34 -13 -95 -19 -178 -19h-166zM159 340v-270h76c129 0 240 -5 240 138c0 73 -52 125 -122 128c-37 2 -74 4 -106 4h-88z" />
    <glyph glyph-name="afii10046" unicode="&#x42c;" horiz-adv-x="606" 
d="M87 0v718h72v-308h71c40 0 82 -1 122 -3c126 -8 198 -83 198 -196c0 -96 -42 -163 -119 -192c-34 -13 -95 -19 -178 -19h-166zM159 340v-270h76c129 0 240 -5 240 138c0 73 -52 125 -122 128c-29 1 -73 4 -133 4h-61z" />
    <glyph glyph-name="afii10047" unicode="&#x42d;" horiz-adv-x="813" 
d="M54 125l57 43c66 -78 152 -119 252 -119c112 0 209 50 264 132c34 50 43 100 51 147h-340v70h337c-8 60 -16 112 -80 175c-62 61 -141 93 -227 93c-103 0 -193 -41 -257 -124l-57 43c70 98 183 151 315 151c224 0 387 -162 387 -373s-147 -380 -388 -380
c-131 0 -240 49 -314 142z" />
    <glyph glyph-name="afii10048" unicode="&#x42e;" horiz-adv-x="1095" 
d="M159 329v-329h-72v718h72v-319h126c12 60 22 117 66 179c69 98 183 158 305 158c218 0 384 -163 384 -377c0 -209 -163 -377 -378 -377c-109 0 -199 37 -274 114c-81 83 -91 155 -103 233h-126zM660 666c-157 0 -302 -126 -302 -310c0 -178 141 -304 302 -304
c168 0 305 129 305 308c0 181 -146 306 -305 306z" />
    <glyph glyph-name="afii10049" unicode="&#x42f;" horiz-adv-x="584" 
d="M332 718h166v-718h-72v323h-68l-231 -323h-89l231 324c-150 5 -221 79 -221 192c0 52 11 93 40 129c54 67 132 73 244 73zM426 393v255h-147c-104 0 -156 -42 -156 -132c0 -16 5 -38 12 -54c27 -58 80 -69 171 -69h120z" />
    <glyph glyph-name="afii10023" unicode="&#x401;" horiz-adv-x="536" 
d="M88 0v718h410v-70h-338v-225h338v-70h-338v-283h338v-70h-410zM198 886c32 0 57 -25 57 -56s-26 -57 -57 -57s-56 26 -56 57s24 56 56 56zM397 886c32 0 57 -25 57 -56s-26 -57 -57 -57s-56 26 -56 57s24 56 56 56z" />
    <glyph glyph-name="afii10051" unicode="&#x402;" horiz-adv-x="671" 
d="M178 0v648h-162v70h394v-70h-160v-231h116c166 0 250 -72 250 -228c0 -80 -20 -136 -67 -173c-38 -30 -74 -31 -120 -31c-29 0 -66 12 -102 46l45 50c15 -13 34 -30 59 -30c74 0 110 47 110 138c0 145 -76 158 -204 158h-87v-347h-72z" />
    <glyph glyph-name="afii10052" unicode="&#x403;" horiz-adv-x="462" 
d="M159 648v-648h-72v718h360v-70h-288zM240 775l107 151h105l-144 -151h-68z" />
    <glyph glyph-name="afii10053" unicode="&#x404;" horiz-adv-x="813" 
d="M758 585l-57 -43c-63 83 -153 124 -256 124c-147 0 -280 -91 -313 -268h336v-70h-336c13 -162 149 -279 317 -279c100 0 186 41 252 119l57 -43c-74 -93 -183 -142 -314 -142c-241 0 -388 170 -388 380c0 212 165 373 388 373c132 0 243 -52 314 -151z" />
    <glyph glyph-name="afii10054" unicode="&#x405;" horiz-adv-x="498" 
d="M421 619l-58 -45c-39 51 -73 88 -132 88c-62 0 -97 -44 -97 -91c0 -39 23 -80 64 -111c135 -100 234 -169 234 -285c0 -101 -85 -193 -202 -193c-99 0 -164 55 -217 152l61 37c43 -79 95 -119 150 -119c75 0 133 55 133 122c0 75 -73 127 -234 255c-36 28 -64 84 -64 139
c0 99 77 168 174 168c88 0 141 -53 188 -117z" />
    <glyph glyph-name="afii10055" unicode="&#x406;" horiz-adv-x="226" 
d="M77 0v718h72v-718h-72z" />
    <glyph glyph-name="afii10056" unicode="&#x407;" horiz-adv-x="226" 
d="M77 0v718h72v-718h-72zM14 886c32 0 56 -25 56 -56s-25 -57 -56 -57s-57 26 -57 57s25 56 57 56zM213 886c32 0 56 -25 56 -56s-25 -57 -56 -57s-57 26 -57 57s25 56 57 56z" />
    <glyph glyph-name="afii10057" unicode="&#x408;" horiz-adv-x="482" 
d="M323 210v508h72v-510c0 -75 -8 -133 -46 -175c-29 -32 -76 -50 -128 -50c-71 0 -124 29 -179 75l38 57c53 -38 98 -66 141 -66c30 0 58 14 76 38c23 31 26 72 26 123z" />
    <glyph glyph-name="afii10058" unicode="&#x409;" horiz-adv-x="1065" 
d="M364 718h17l150 -308h183c93 0 162 -10 206 -36c55 -33 89 -94 89 -163c0 -140 -83 -211 -248 -211h-122l-267 566l-269 -566h-79zM557 340l127 -270h35c118 0 215 5 215 138c0 72 -51 125 -122 128c-31 1 -67 4 -108 4h-147z" />
    <glyph glyph-name="afii10059" unicode="&#x40a;" horiz-adv-x="1043" 
d="M159 718v-300h366v300h72v-300h71c82 0 144 -3 180 -13c91 -24 140 -91 140 -194c0 -97 -43 -163 -120 -192c-34 -13 -95 -19 -178 -19h-165v348h-366v-348h-72v718h72zM597 348v-278h76c130 0 240 -5 240 138c0 66 -29 109 -84 128c-25 9 -84 12 -172 12h-60z" />
    <glyph glyph-name="afii10060" unicode="&#x40b;" horiz-adv-x="679" 
d="M250 347v-347h-72v648h-162v70h394v-70h-160v-231h150c176 0 215 -75 215 -237v-180h-72v184c0 115 -16 163 -141 163h-152z" />
    <glyph glyph-name="afii10061" unicode="&#x40c;" horiz-adv-x="591" 
d="M88 0v718h72v-298l287 298h97l-315 -320l342 -398h-95l-297 348l-19 -18v-330h-72zM270 775l107 151h105l-144 -151h-68z" />
    <glyph glyph-name="afii10062" unicode="&#x40e;" horiz-adv-x="646" 
d="M295 139l-262 578h81l217 -488l199 488h79l-273 -644c-25 -59 -73 -91 -135 -91c-77 0 -116 43 -161 91l52 43c46 -44 65 -68 108 -68c52 0 71 33 95 91zM439 860h62c-14 -57 -71 -103 -171 -103c-94 0 -158 40 -175 103h65c23 -35 59 -51 111 -51c51 0 80 13 108 51z
" />
    <glyph glyph-name="afii10145" unicode="&#x40f;" horiz-adv-x="649" 
d="M292 -107v107h-205v718h72v-648h332v648h72v-718h-203v-107h-68z" />
    <glyph glyph-name="afii10146" unicode="&#x462;" horiz-adv-x="606" 
d="M5 520v67h82v131h72v-131h234v-67h-234v-110h71c40 0 82 -1 122 -3c126 -8 198 -83 198 -196c0 -96 -42 -163 -119 -192c-34 -13 -95 -19 -178 -19h-166v520h-82zM159 340v-270h76c129 0 240 -5 240 138c0 73 -52 125 -122 128c-29 1 -73 4 -133 4h-61z" />
    <glyph glyph-name="afii10147" unicode="&#x472;" horiz-adv-x="869" 
d="M429 736c218 0 384 -163 384 -377c0 -211 -165 -377 -378 -377c-221 0 -379 173 -379 374c0 214 166 380 373 380zM433 52c158 0 287 113 303 275h-604c15 -162 148 -275 301 -275zM433 666c-147 0 -282 -109 -300 -272h603c-17 162 -153 272 -303 272z" />
    <glyph glyph-name="afii10148" unicode="&#x474;" horiz-adv-x="787" 
d="M111 718l238 -555l197 453c35 80 80 123 154 123c63 0 105 -35 143 -83l-49 -44c-23 26 -47 57 -95 57c-40 0 -65 -30 -88 -83l-254 -586h-16l-308 718h78z" />
    <glyph glyph-name="afii10065" unicode="&#x430;" horiz-adv-x="683" 
d="M538 434v97h67v-531h-67v91c-58 -70 -131 -105 -214 -105c-155 0 -272 130 -272 281s120 278 274 278c86 0 159 -37 212 -111zM332 479c-119 0 -210 -96 -210 -214c0 -120 93 -216 209 -216c109 0 212 82 212 214c0 123 -92 216 -211 216z" />
    <glyph glyph-name="afii10066" unicode="&#x431;" horiz-adv-x="669" 
d="M116 444l-7 -75c39 121 122 176 233 176c159 0 277 -129 277 -281c0 -151 -117 -277 -277 -277c-98 0 -184 46 -234 128c-48 78 -57 158 -57 248c0 444 288 352 534 385v-66c-156 -27 -347 19 -423 -98c-25 -39 -41 -87 -46 -140zM342 479c-113 0 -207 -98 -207 -216
c0 -116 87 -213 207 -213c119 0 207 96 207 213c0 119 -94 216 -207 216z" />
    <glyph glyph-name="afii10067" unicode="&#x432;" horiz-adv-x="468" 
d="M231 0h-154v531h151c115 0 162 -64 162 -124c0 -71 -25 -101 -70 -119c69 -24 104 -72 104 -147c0 -85 -59 -141 -193 -141zM247 244h-102v-186h114c53 0 87 40 87 92s-36 94 -99 94zM189 473h-44v-166h44c65 0 131 -6 131 91c0 26 -27 68 -51 70c-10 1 -34 5 -80 5z" />
    <glyph glyph-name="afii10068" unicode="&#x433;" horiz-adv-x="361" 
d="M345 473h-201v-473h-68v531h269v-58z" />
    <glyph glyph-name="afii10098" unicode="&#x491;" horiz-adv-x="356" 
d="M330 473h-186v-473h-68v531h186v66h68v-124z" />
    <glyph glyph-name="afii10069" unicode="&#x434;" horiz-adv-x="605" 
d="M16 58h64l206 473h35l204 -473h65v-126h-68v68h-438v-71h-68v129zM451 58l-149 368l-155 -368h304z" />
    <glyph glyph-name="afii10070" unicode="&#x435;" horiz-adv-x="649" 
d="M599 261h-478c3 -122 86 -212 200 -212c111 0 164 63 203 127l57 -30c-54 -106 -137 -160 -253 -160c-176 0 -277 136 -277 278c0 145 107 281 273 281c151 0 273 -108 275 -284zM128 319h396c-28 110 -107 160 -199 160c-95 0 -166 -52 -197 -160z" />
    <glyph glyph-name="afii10072" unicode="&#x436;" horiz-adv-x="769" 
d="M350 297v234h68v-234l254 234h83l-251 -236l270 -295h-87l-230 257l-39 -33v-224h-68v224l-40 33l-229 -257h-87l267 295l-247 236h84z" />
    <glyph glyph-name="afii10073" unicode="&#x437;" horiz-adv-x="423" 
d="M206 250h-42v58h36c49 0 91 30 91 94c0 36 -29 80 -90 80c-53 0 -83 -21 -114 -44l-38 48c51 40 98 59 134 59c25 0 58 3 98 -17c46 -23 75 -69 75 -110c0 -72 -22 -106 -72 -126c63 -27 94 -72 94 -141c0 -81 -53 -164 -177 -164c-92 0 -135 30 -175 70l43 48
c26 -28 61 -55 126 -55c69 0 113 40 113 101c0 54 -43 99 -102 99z" />
    <glyph glyph-name="afii10074" unicode="&#x438;" horiz-adv-x="616" 
d="M76 531h68v-393l390 393h6v-531h-68v390l-387 -390h-9v531z" />
    <glyph glyph-name="afii10075" unicode="&#x439;" horiz-adv-x="616" 
d="M76 531h68v-395l390 395h6v-531h-68v388l-387 -388h-9v531zM431 745h62c-14 -57 -71 -103 -171 -103c-94 0 -158 40 -175 103h65c23 -35 58 -51 110 -51c51 0 80 13 109 51z" />
    <glyph glyph-name="afii10076" unicode="&#x43a;" horiz-adv-x="502" 
d="M77 0v531h68v-223l245 223h96l-269 -243l290 -288h-97l-243 246l-22 -19v-227h-68z" />
    <glyph glyph-name="afii10077" unicode="&#x43b;" horiz-adv-x="553" 
d="M283 531l244 -531h-73l-180 404l-179 -404h-68l243 531h13z" />
    <glyph glyph-name="afii10078" unicode="&#x43c;" horiz-adv-x="879" 
d="M441 116l212 415h20l180 -531h-71l-131 391l-205 -391h-12l-205 391l-131 -391h-71l181 531h19z" />
    <glyph glyph-name="afii10079" unicode="&#x43d;" horiz-adv-x="598" 
d="M454 0v257h-309v-257h-68v531h68v-211h309v211h68v-531h-68z" />
    <glyph glyph-name="afii10080" unicode="&#x43e;" horiz-adv-x="655" 
d="M328 545c159 0 277 -129 277 -281c0 -151 -117 -277 -277 -277s-277 126 -277 277c0 152 118 281 277 281zM328 479c-114 0 -207 -98 -207 -216c0 -116 87 -213 207 -213c119 0 207 97 207 213c0 118 -94 216 -207 216z" />
    <glyph glyph-name="afii10081" unicode="&#x43f;" horiz-adv-x="598" 
d="M76 0v531h446v-531h-68v468h-310v-468h-68z" />
    <glyph glyph-name="afii10082" unicode="&#x440;" horiz-adv-x="682" 
d="M145 531v-97c53 74 126 111 211 111c155 0 275 -127 275 -278s-117 -281 -273 -281c-83 0 -155 35 -213 105v-285h-68v725h68zM351 479c-119 0 -211 -93 -211 -216c0 -132 102 -214 211 -214c118 0 210 100 210 216c0 114 -88 214 -210 214z" />
    <glyph glyph-name="afii10083" unicode="&#x441;" horiz-adv-x="647" 
d="M537 142l55 -35c-52 -79 -142 -121 -249 -121c-175 0 -292 127 -292 275c0 156 122 284 297 284c102 0 195 -42 244 -124l-55 -34c-47 62 -112 95 -192 95c-135 0 -224 -102 -224 -216c0 -116 88 -217 225 -217c77 0 141 31 191 93z" />
    <glyph glyph-name="afii10084" unicode="&#x442;" horiz-adv-x="383" 
d="M17 473v58h350v-58h-141v-473h-68v473h-141z" />
    <glyph glyph-name="afii10085" unicode="&#x443;" horiz-adv-x="537" 
d="M234 40l-218 491h72l183 -409l177 409h73l-317 -725h-72z" />
    <glyph glyph-name="afii10086" unicode="&#x444;" horiz-adv-x="1082" 
d="M576 80v-274h-68v274c-36 -50 -87 -96 -183 -96c-158 0 -274 117 -274 278c0 167 119 281 272 281c93 0 146 -40 185 -92v285h68v-285c36 46 84 92 184 92c154 0 273 -115 273 -281c0 -162 -117 -278 -275 -278c-83 0 -139 36 -182 96zM331 50c45 0 112 26 145 75
c36 53 35 98 35 141c0 146 -91 214 -181 214c-120 0 -209 -90 -209 -216c0 -114 79 -214 210 -214zM752 50c130 0 211 97 211 215c0 122 -88 215 -210 215c-95 0 -180 -72 -180 -214c0 -40 -2 -81 35 -139c33 -52 96 -77 144 -77z" />
    <glyph glyph-name="afii10087" unicode="&#x445;" horiz-adv-x="480" 
d="M197 279l-182 252h82l141 -196l141 196h81l-181 -252l204 -279h-83l-162 223l-160 -223h-82z" />
    <glyph glyph-name="afii10088" unicode="&#x446;" horiz-adv-x="653" 
d="M573 -84v84h-496v531h68v-468h309v468h68v-468h115v-147h-64z" />
    <glyph glyph-name="afii10089" unicode="&#x447;" horiz-adv-x="479" 
d="M335 0v237h-141c-107 0 -160 58 -160 159v135h68v-94c0 -97 10 -137 112 -137h121v231h68v-531h-68z" />
    <glyph glyph-name="afii10090" unicode="&#x448;" horiz-adv-x="946" 
d="M871 531v-531h-794v531h68v-468h291v468h72v-468h291v468h72z" />
    <glyph glyph-name="afii10091" unicode="&#x449;" horiz-adv-x="1001" 
d="M920 -84v84h-843v531h68v-468h294v468h68v-468h292v468h72v-468h114v-147h-65z" />
    <glyph glyph-name="afii10092" unicode="&#x44a;" horiz-adv-x="519" 
d="M193 531v-210h65c48 0 88 -2 113 -10c73 -22 116 -83 116 -153c0 -82 -57 -158 -186 -158h-176v468h-98v63h166zM250 263h-57v-205h78c92 0 141 30 141 101c0 36 -18 69 -45 86c-26 16 -66 18 -117 18z" />
    <glyph glyph-name="afii10093" unicode="&#x44b;" horiz-adv-x="671" 
d="M533 0v531h68v-531h-68zM144 531v-209h65c48 0 88 -3 113 -11c73 -22 117 -83 117 -153c0 -82 -58 -158 -186 -158h-177v531h68zM204 259h-57v-201h78c92 0 139 31 139 96c0 35 -17 70 -43 86c-25 16 -65 19 -117 19z" />
    <glyph glyph-name="afii10094" unicode="&#x44c;" horiz-adv-x="471" 
d="M144 531v-209h65c48 0 88 -3 113 -11c73 -22 117 -83 117 -153c0 -82 -58 -158 -186 -158h-177v531h68zM204 259h-57v-201h78c92 0 139 31 139 96c0 35 -17 70 -43 86c-25 16 -65 19 -117 19z" />
    <glyph glyph-name="afii10095" unicode="&#x44d;" horiz-adv-x="644" 
d="M53 107l54 35c49 -62 114 -93 192 -93c65 0 125 24 164 65c37 39 50 83 59 132h-239v58h236c-21 116 -115 178 -220 178c-80 0 -145 -33 -192 -95l-56 35c61 83 140 123 245 123c174 0 298 -127 298 -284c0 -148 -117 -275 -292 -275c-107 0 -197 42 -249 121z" />
    <glyph glyph-name="afii10096" unicode="&#x44e;" horiz-adv-x="836" 
d="M145 531v-223h89c9 41 18 88 65 142c55 62 127 95 209 95c159 0 277 -129 277 -281c0 -151 -117 -277 -277 -277c-103 0 -190 53 -239 137c-26 45 -30 83 -35 117h-89v-241h-68v531h68zM508 479c-113 0 -207 -98 -207 -216c0 -115 87 -213 207 -213c119 0 207 96 207 213
c0 119 -94 216 -207 216z" />
    <glyph glyph-name="afii10097" unicode="&#x44f;" horiz-adv-x="445" 
d="M301 0v238h-50l-151 -238h-74l160 245c-33 5 -66 13 -98 46c-32 34 -35 65 -35 107c0 70 54 133 154 133h162v-531h-68zM301 296v177h-46c-74 0 -136 -7 -136 -85c0 -92 62 -92 136 -92h46z" />
    <glyph glyph-name="afii10071" unicode="&#x451;" horiz-adv-x="649" 
d="M599 261h-478c3 -122 86 -212 200 -212c111 0 164 63 203 127l57 -30c-54 -106 -137 -160 -253 -160c-176 0 -277 136 -277 278c0 145 107 281 273 281c151 0 273 -108 275 -284zM128 319h396c-28 110 -107 160 -199 160c-95 0 -166 -52 -197 -160zM226 741
c31 0 56 -26 56 -57s-25 -56 -56 -56s-57 25 -57 56s26 57 57 57zM425 741c31 0 57 -25 57 -57c0 -31 -26 -56 -57 -56s-56 25 -56 56s25 57 56 57z" />
    <glyph glyph-name="afii10099" unicode="&#x452;" horiz-adv-x="627" 
d="M93 736h68v-66h234v-58h-234v-176c55 72 120 109 199 109c115 0 196 -81 196 -240v-305c0 -26 1 -54 1 -80c0 -85 -30 -127 -91 -127c-31 0 -56 7 -77 15v62c12 -6 27 -14 49 -14c48 0 50 42 50 84v349c0 125 -38 193 -141 193c-57 0 -104 -24 -140 -71
c-39 -51 -46 -104 -46 -188v-223h-68v612h-76v58h76v66z" />
    <glyph glyph-name="afii10100" unicode="&#x453;" horiz-adv-x="361" 
d="M149 629l106 151h105l-144 -151h-67zM345 473h-201v-473h-68v531h269v-58z" />
    <glyph glyph-name="afii10101" unicode="&#x454;" horiz-adv-x="642" 
d="M357 246h-236c16 -128 112 -197 225 -197c77 0 142 31 191 93l55 -35c-52 -79 -142 -121 -249 -121c-175 0 -292 127 -292 275c0 156 122 284 297 284c102 0 195 -42 244 -124l-55 -34c-47 62 -112 95 -192 95c-107 0 -197 -65 -224 -178h236v-58z" />
    <glyph glyph-name="afii10102" unicode="&#x455;" horiz-adv-x="388" 
d="M26 62l43 49c34 -38 71 -61 111 -61c52 0 98 40 98 90c0 31 -18 60 -44 74c-122 68 -184 97 -184 190c0 84 65 141 146 141c58 0 102 -28 147 -72l-44 -45c-32 31 -64 54 -107 54c-44 0 -80 -34 -80 -74c0 -27 17 -57 41 -71c122 -71 190 -98 190 -194
c0 -83 -64 -156 -160 -156c-59 0 -119 26 -157 75z" />
    <glyph glyph-name="afii10103" unicode="&#x456;" horiz-adv-x="200" 
d="M67 0v531h68v-531h-68zM100 750c31 0 57 -25 57 -56s-26 -57 -57 -57s-56 26 -56 57c0 32 26 56 56 56z" />
    <glyph glyph-name="afii10104" unicode="&#x457;" horiz-adv-x="200" 
d="M67 0v531h68v-531h-68zM1 741c31 0 56 -26 56 -57s-25 -56 -56 -56s-57 25 -57 56s26 57 57 57zM200 741c31 0 56 -26 56 -57s-25 -56 -56 -56s-57 25 -57 56s26 57 57 57z" />
    <glyph glyph-name="afii10105" unicode="&#x458;" horiz-adv-x="203" 
d="M69 -80v611h68v-611c0 -85 -30 -127 -91 -127c-30 0 -56 7 -77 15v62c12 -6 28 -14 49 -14c32 0 51 22 51 64zM102 750c31 0 57 -25 57 -56s-26 -57 -57 -57s-56 26 -56 57s25 56 56 56z" />
    <glyph glyph-name="afii10106" unicode="&#x459;" horiz-adv-x="792" 
d="M270 531h13l97 -209h152c48 0 88 -3 113 -11c73 -23 116 -83 116 -153c0 -35 -12 -68 -33 -96c-34 -45 -73 -53 -120 -62h-154l-180 404l-179 -404h-68zM527 259h-120l91 -201h49c92 0 139 31 139 96c0 35 -17 70 -42 86c-24 16 -65 19 -117 19z" />
    <glyph glyph-name="afii10107" unicode="&#x45a;" horiz-adv-x="846" 
d="M522 531v-211h62c48 0 88 -2 114 -10c73 -22 116 -83 116 -153c0 -82 -57 -157 -186 -157h-174v257h-309v-257h-68v531h68v-211h309v211h68zM580 257h-58v-199h78c92 0 139 32 139 95c0 34 -17 68 -43 84c-25 16 -64 20 -116 20z" />
    <glyph glyph-name="afii10108" unicode="&#x45b;" horiz-adv-x="627" 
d="M93 0v612h-76v58h76v66h68v-66h234v-58h-234v-176c55 72 120 109 199 109c115 0 196 -81 196 -240v-305h-68v289c0 125 -38 193 -141 193c-57 0 -104 -24 -140 -71c-39 -51 -46 -104 -46 -188v-223h-68z" />
    <glyph glyph-name="afii10109" unicode="&#x45c;" horiz-adv-x="502" 
d="M77 0v531h68v-223l245 223h101l-269 -243l285 -288h-97l-243 246l-22 -19v-227h-68zM212 630l107 151h105l-145 -151h-67z" />
    <glyph glyph-name="afii10110" unicode="&#x45e;" horiz-adv-x="537" 
d="M234 40l-218 491h72l183 -409l177 409h73l-317 -725h-72zM393 745h62c-14 -57 -71 -103 -171 -103c-94 0 -158 40 -175 103h65c23 -35 58 -51 110 -51c51 0 80 12 109 51z" />
    <glyph glyph-name="afii10193" unicode="&#x45f;" horiz-adv-x="599" 
d="M264 -84v84h-187v531h68v-468h309v468h68v-531h-194v-84h-64z" />
    <glyph glyph-name="afii10194" unicode="&#x463;" horiz-adv-x="471" 
d="M13 474v58h63v204h68v-204h171v-58h-171v-152h65c48 0 88 -3 113 -11c73 -22 117 -83 117 -153c0 -82 -58 -158 -186 -158h-177v474h-63zM204 259h-57v-201h78c92 0 139 31 139 96c0 35 -17 70 -43 86c-25 16 -65 19 -117 19z" />
    <glyph glyph-name="afii10195" unicode="&#x473;" horiz-adv-x="655" 
d="M328 545c159 0 277 -129 277 -281c0 -151 -117 -278 -277 -278s-277 127 -277 278c0 152 118 281 277 281zM328 52c109 0 193 80 205 184h-411c13 -104 95 -184 206 -184zM328 479c-104 0 -191 -82 -205 -185h410c-15 103 -102 185 -205 185z" />
    <glyph glyph-name="afii10196" unicode="&#x475;" horiz-adv-x="602" 
d="M100 531l178 -386l152 329c21 44 58 71 104 71c51 0 86 -23 119 -56l-38 -47c-30 31 -46 40 -83 40c-22 0 -38 -23 -53 -56l-195 -426h-12l-245 531h73z" />
    <glyph glyph-name="Euro" unicode="&#x20ac;" horiz-adv-x="554" 
d="M41 471h55c25 82 72 147 139 194c68 48 145 71 233 71c21 0 47 -2 78 -7l-18 -69c-19 4 -39 6 -59 6c-65 0 -124 -17 -177 -52c-53 -34 -92 -82 -116 -143h312l-18 -67h-311c-2 -15 -3 -31 -3 -47c0 -10 1 -23 2 -38h289l-18 -67h-256c22 -64 61 -113 115 -149
s116 -54 185 -54c21 0 44 3 68 8v-68c-21 -4 -45 -6 -73 -6c-92 0 -171 24 -237 71c-67 48 -112 114 -136 198h-72l17 67h43c-1 18 -2 33 -2 44c0 10 1 24 2 41h-60z" />
    <glyph glyph-name="afii61289" unicode="&#x2113;" horiz-adv-x="494" 
d="M416 55c-26 -28 -70 -68 -131 -68c-35 0 -61 12 -80 31c-23 25 -35 66 -35 115v121c-21 -23 -40 -45 -61 -67c-10 12 -21 23 -31 35c30 34 61 68 92 102v235c0 113 45 169 116 169c70 0 94 -60 94 -103c0 -95 -48 -178 -112 -264c-10 -12 -25 -32 -34 -42v-188
c0 -65 27 -91 64 -91s68 28 90 53c9 -13 19 -25 28 -38zM327 618c0 29 -11 57 -39 57c-33 0 -54 -30 -54 -116v-165c7 8 16 21 22 30c42 64 71 134 71 194z" />
    <glyph glyph-name="afii61352" unicode="&#x2116;" horiz-adv-x="1098" 
d="M161 0h-72v718h15l477 -550v550h72v-718h-17l-475 543v-543zM734 0v50h338v-50h-338zM733 310c0 94 76 170 170 170s170 -76 170 -170s-76 -170 -170 -170s-170 76 -170 170zM796 309c0 -59 48 -107 107 -107s107 48 107 107s-48 107 -107 107s-107 -48 -107 -107z" />
    <glyph glyph-name="estimated" unicode="&#x212e;" horiz-adv-x="662" 
d="M621 295h-455v-203c44 -43 98 -66 162 -66c104 0 168 52 218 134c12 -7 24 -15 37 -22c-61 -91 -131 -150 -255 -150c-176 0 -288 138 -288 307c0 171 109 308 289 308c183 0 288 -137 292 -308zM492 333v165c-43 42 -101 68 -164 68s-119 -22 -162 -67v-166h326z" />
    <glyph glyph-name="partialdiff" unicode="&#x2202;" horiz-adv-x="577" 
d="M527 490c0 -58 -9 -126 -26 -194c-37 -145 -128 -306 -278 -306c-103 0 -173 73 -173 186c0 194 135 323 266 323c72 0 118 -37 138 -76h2c2 21 4 44 4 73c0 116 -53 176 -142 176c-31 0 -68 -10 -97 -27c-6 16 -12 33 -18 49c24 15 74 32 123 32c120 0 201 -81 201 -236
zM445 354c-14 51 -55 92 -125 92c-107 0 -203 -120 -203 -272c0 -80 44 -130 108 -130c101 0 184 123 220 310z" />
    <glyph glyph-name="product" unicode="&#x220f;" horiz-adv-x="721" 
d="M633 -230h-68v871h-409v-871h-68v930h545v-930z" />
    <glyph glyph-name="summation" unicode="&#x2211;" horiz-adv-x="632" 
d="M604 -230h-576v30c113 147 226 292 340 439c-106 142 -210 284 -316 425v36h527v-57h-436c100 -134 200 -268 299 -403c-106 -138 -213 -275 -319 -413h481v-57z" />
    <glyph glyph-name="uni2219" unicode="&#x2219;" horiz-adv-x="277" 
d="M138 421c32 0 60 -28 60 -62s-27 -60 -60 -60c-34 0 -60 27 -60 60s27 62 60 62z" />
    <glyph glyph-name="radical" unicode="&#x221a;" horiz-adv-x="515" 
d="M494 728c-66 -247 -131 -493 -198 -740h-56c-47 116 -94 232 -142 348c-18 -10 -37 -21 -55 -32c-8 14 -15 28 -23 42c37 21 74 43 110 65c46 -111 91 -222 137 -333c58 216 115 434 173 650h54z" />
    <glyph glyph-name="infinity" unicode="&#x221e;" horiz-adv-x="785" 
d="M733 294c0 -88 -60 -162 -158 -162c-81 0 -144 52 -182 114h-2c-43 -64 -106 -114 -179 -114c-98 0 -161 67 -161 158c0 94 62 161 158 161c87 0 146 -57 182 -113h2c33 50 93 113 178 113c94 0 162 -62 162 -157zM673 293c0 57 -32 106 -103 106
c-64 0 -110 -45 -150 -107c40 -68 93 -107 149 -107c73 0 104 51 104 108zM364 292c-38 63 -96 107 -151 107c-71 0 -103 -51 -103 -109c0 -62 44 -106 103 -106c63 0 114 50 151 108z" />
    <glyph glyph-name="integral" unicode="&#x222b;" horiz-adv-x="492" 
d="M411 684c-9 4 -28 9 -46 9c-57 0 -86 -37 -86 -102v-657c0 -101 -56 -160 -147 -160c-22 0 -53 5 -67 11c5 18 9 35 14 53c12 -5 27 -9 47 -9c57 0 86 36 86 102v658c0 98 54 160 148 160c25 0 55 -7 66 -13c-5 -17 -10 -35 -15 -52z" />
    <glyph glyph-name="approxequal" unicode="&#x2248;" horiz-adv-x="606" 
d="M531 420c-31 -47 -71 -83 -130 -83c-37 0 -73 12 -105 32c-27 17 -57 32 -88 32c-36 0 -67 -30 -87 -65l-45 50c30 45 68 83 131 83c39 0 73 -13 103 -31c32 -20 59 -33 89 -33c35 0 66 29 87 65zM531 203c-31 -47 -71 -83 -130 -83c-37 0 -73 12 -105 32
c-27 17 -57 32 -88 32c-36 0 -67 -30 -87 -65l-45 51c30 45 68 82 131 82c39 0 73 -13 103 -31c32 -20 59 -33 89 -33c35 0 66 29 87 65z" />
    <glyph glyph-name="notequal" unicode="&#x2260;" horiz-adv-x="606" 
d="M513 152h-242l-58 -126h-73l59 126h-105v68h137l69 150h-206v68h238l61 131h72l-61 -131h109v-68h-141l-70 -150h211v-68z" />
    <glyph glyph-name="lessequal" unicode="&#x2264;" horiz-adv-x="606" 
d="M513 0h-419v68h419v-68zM513 135l-419 194v50l419 194v-74l-321 -144v-2l321 -145v-73z" />
    <glyph glyph-name="greaterequal" unicode="&#x2265;" horiz-adv-x="606" 
d="M512 0h-418v68h418v-68zM513 329l-419 -194v74l321 144v2l-321 145v73l419 -193v-51z" />
    <glyph glyph-name="lozenge" unicode="&#x25ca;" horiz-adv-x="561" 
d="M505 350c-68 -117 -137 -233 -206 -350h-37c-68 116 -137 233 -206 349c69 117 138 234 206 351h37c69 -117 138 -233 206 -350zM445 350c-55 92 -110 185 -164 278c-55 -93 -110 -186 -165 -278c55 -93 109 -185 164 -278c55 93 110 185 165 278z" />
    <glyph glyph-name="uni00A0" unicode="&#xa0;" horiz-adv-x="277" 
 />
    <glyph glyph-name="uni00AD" unicode="&#xad;" 
d="M32 240v60h269v-60h-269z" />
    <glyph glyph-name="uni02C9" unicode="&#x2c9;" horiz-adv-x="485" 
d="M74 663v60h337v-60h-337z" />
    <glyph glyph-name="zero.denominator" 
d="M12 185c0 26 1 52 8 76c18 74 73 117 145 117c57 0 105 -29 132 -78c18 -34 23 -71 23 -115c0 -42 -5 -81 -23 -115c-27 -50 -75 -79 -132 -79c-50 0 -92 20 -119 59h1c-26 34 -35 79 -35 135zM69 184c0 -46 4 -83 23 -108c17 -24 45 -36 73 -36c58 0 99 45 99 144
s-40 147 -99 147c-29 0 -56 -15 -73 -39c-19 -25 -23 -61 -23 -108z" />
    <glyph glyph-name="one.denominator" 
d="M74 321l35 48h92v-369h-54v321h-73z" />
    <glyph glyph-name="two.denominator" 
d="M3 0l175 158c48 43 77 70 77 106s-37 66 -86 66c-52 0 -88 -28 -93 -86h-52c1 84 67 134 147 134c82 0 137 -51 137 -113c0 -51 -34 -86 -86 -133l-93 -84h185v-48h-311z" />
    <glyph glyph-name="three.denominator" 
d="M234 280c0 26 -29 50 -72 50s-62 -23 -77 -57h-55c18 71 66 105 132 105c74 0 128 -45 128 -98c0 -29 -16 -53 -44 -72c44 -21 67 -56 67 -95c0 -61 -56 -122 -150 -122c-79 0 -132 39 -147 118h53c12 -44 38 -70 94 -70c59 0 96 34 96 71c0 47 -46 68 -124 71v46
c66 3 99 22 99 53z" />
    <glyph glyph-name="four.denominator" 
d="M10 83l265 305v-257h51v-48h-51v-83h-54v83h-211zM116 131h105v120z" />
    <glyph glyph-name="five.denominator" 
d="M104 369h195v-47h-153l-18 -84c14 3 28 5 43 5c84 0 139 -54 139 -122c0 -35 -14 -66 -42 -92c-27 -25 -64 -38 -111 -38c-80 0 -131 48 -136 103h55c9 -37 36 -55 83 -55c52 0 96 36 96 84c0 43 -37 72 -94 72c-26 0 -59 -5 -98 -15z" />
    <glyph glyph-name="six.denominator" 
d="M76 217l136 167l49 -26l-107 -136c5 1 15 1 22 1c77 0 131 -52 131 -114c0 -72 -68 -118 -143 -118c-82 0 -138 56 -138 116c0 37 19 72 50 110zM166 177c-45 0 -83 -30 -83 -68c0 -37 38 -67 83 -67c46 0 83 30 83 67c0 38 -36 68 -83 68z" />
    <glyph glyph-name="seven.denominator" 
d="M40 322v47h282l-231 -378l-45 20l189 311h-195z" />
    <glyph glyph-name="eight.denominator" 
d="M239 202c47 -22 71 -54 71 -95c0 -61 -53 -116 -144 -116c-47 0 -82 12 -107 35c-24 24 -36 50 -36 78c0 43 25 75 74 98c-35 18 -53 44 -53 78c0 53 57 98 126 98c35 0 63 -10 86 -30s35 -43 35 -70c0 -33 -17 -58 -52 -76zM236 280c0 29 -26 50 -69 50
c-37 0 -69 -20 -69 -51s34 -56 70 -56c37 0 68 25 68 57zM256 107c0 40 -38 70 -87 70c-48 0 -91 -29 -91 -73s40 -65 89 -65c51 0 89 28 89 68z" />
    <glyph glyph-name="nine.denominator" 
d="M256 151l-135 -166l-50 26l108 136c-7 -1 -14 -2 -23 -2c-77 0 -130 53 -130 115c0 71 66 118 141 118c83 0 139 -55 139 -116c0 -36 -19 -72 -50 -111zM166 193c46 0 83 30 83 67c0 38 -37 68 -83 68s-83 -30 -83 -68c0 -37 37 -67 83 -67z" />
    <glyph glyph-name="zero.numerator" 
d="M10 541c0 26 1 52 8 77c18 74 74 118 147 118c57 0 106 -29 133 -79c18 -34 23 -72 23 -116c0 -43 -5 -82 -23 -116c-27 -51 -76 -80 -133 -80c-51 0 -93 20 -121 59h1c-26 35 -35 80 -35 137zM68 540c0 -47 4 -84 23 -109c17 -24 45 -37 74 -37c58 0 100 46 100 146
s-41 148 -100 148c-30 0 -57 -15 -74 -39c-19 -25 -23 -62 -23 -109z" />
    <glyph glyph-name="one.numerator" 
d="M74 679l35 48h92v-369h-54v321h-73z" />
    <glyph glyph-name="two.numerator" 
d="M3 358l175 158c48 43 77 70 77 106s-37 66 -86 66c-52 0 -88 -28 -93 -86h-52c1 84 67 134 147 134c82 0 137 -51 137 -113c0 -51 -34 -86 -86 -133l-93 -84h185v-48h-311z" />
    <glyph glyph-name="three.numerator" 
d="M234 638c0 26 -29 50 -72 50s-62 -23 -77 -57h-55c18 71 66 105 132 105c74 0 128 -45 128 -98c0 -29 -16 -53 -44 -72c44 -21 67 -56 67 -95c0 -61 -56 -122 -150 -122c-79 0 -132 39 -147 118h53c12 -44 38 -70 94 -70c59 0 96 34 96 71c0 47 -46 68 -124 71v46
c66 3 99 22 99 53z" />
    <glyph glyph-name="four.numerator" 
d="M10 442l265 305v-257h51v-48h-51v-83h-54v83h-211zM116 490h105v120z" />
    <glyph glyph-name="five.numerator" 
d="M104 727h195v-47h-153l-18 -84c14 3 28 5 43 5c84 0 139 -54 139 -122c0 -35 -14 -66 -42 -92c-27 -25 -64 -38 -111 -38c-80 0 -131 48 -136 103h55c9 -37 36 -55 83 -55c52 0 96 36 96 84c0 43 -37 72 -94 72c-26 0 -59 -5 -98 -15z" />
    <glyph glyph-name="six.numerator" 
d="M76 575l136 167l49 -26l-107 -136c5 1 15 1 22 1c77 0 131 -52 131 -114c0 -72 -68 -118 -143 -118c-82 0 -138 56 -138 116c0 37 19 72 50 110zM166 535c-45 0 -83 -30 -83 -68c0 -37 38 -67 83 -67c46 0 83 30 83 67c0 38 -36 68 -83 68z" />
    <glyph glyph-name="seven.numerator" 
d="M40 680v47h282l-231 -378l-45 20l189 311h-195z" />
    <glyph glyph-name="eight.numerator" 
d="M239 560c47 -22 71 -54 71 -95c0 -61 -53 -116 -144 -116c-47 0 -82 12 -107 35c-24 24 -36 50 -36 78c0 43 25 75 74 98c-35 18 -53 44 -53 78c0 53 56 98 125 98c35 0 64 -10 87 -30s35 -43 35 -70c0 -33 -17 -58 -52 -76zM236 638c0 29 -26 50 -69 50
c-37 0 -69 -20 -69 -51s34 -56 70 -56c37 0 68 25 68 57zM256 465c0 40 -38 70 -87 70c-48 0 -91 -29 -91 -73s40 -65 89 -65c51 0 89 28 89 68z" />
    <glyph glyph-name="nine.numerator" 
d="M256 509l-135 -166l-50 26l108 136c-7 -1 -14 -2 -23 -2c-77 0 -130 53 -130 115c0 71 66 118 141 118c83 0 139 -55 139 -116c0 -36 -19 -72 -50 -111zM166 551c46 0 83 30 83 67c0 38 -37 68 -83 68s-83 -30 -83 -68c0 -37 37 -67 83 -67z" />
    <glyph glyph-name="afii10066.ital" horiz-adv-x="669" 
d="M93 596c0 151 153 136 467 148c7 0 20 3 25 4v-66c-80 -17 -199 -3 -335 -18c-59 -7 -87 -30 -87 -65c0 -43 27 -66 72 -66c31 0 68 9 116 9c145 0 267 -124 267 -278c0 -151 -116 -277 -276 -277c-173 0 -279 147 -279 273c0 110 47 169 119 233c-57 19 -89 52 -89 103z
M340 479c-114 0 -207 -95 -207 -216c0 -116 87 -213 207 -213c119 0 208 96 208 213c0 120 -92 216 -208 216z" />
    <glyph glyph-name="uni2215" unicode="&#x2215;" horiz-adv-x="166" 
d="M-116 -18h-54l451 754h54z" />
    <glyph glyph-name="Ycircumflex" unicode="&#x176;" horiz-adv-x="592" 
d="M262 0v343l-231 375h83l184 -296l181 296h83l-228 -375v-343h-72zM114 778l145 125h68l142 -125h-89l-86 74l-89 -74h-91z" />
    <glyph glyph-name="Ygrave" unicode="&#x1ef2;" horiz-adv-x="592" 
d="M262 0v343l-231 375h83l184 -296l181 296h83l-228 -375v-343h-72zM139 931h105l107 -151h-68z" />
    <glyph glyph-name="Idotaccent" unicode="&#x130;" horiz-adv-x="226" 
d="M77 0v718h72v-718h-72zM112 891c31 0 56 -26 56 -57s-25 -56 -56 -56s-57 25 -57 56s26 57 57 57z" />
    <glyph glyph-name="uni03A9" unicode="&#x3a9;" horiz-adv-x="712" 
d="M661 0h-225v57c62 53 155 147 155 320c0 156 -81 276 -232 276c-142 0 -238 -115 -238 -276c0 -168 88 -263 156 -320v-57h-225v57h156c-65 51 -157 153 -157 328c0 187 126 327 308 327c192 0 302 -134 302 -325c0 -159 -85 -272 -158 -330h158v-57z" />
    <glyph glyph-name="uni021A" unicode="&#x21a;" horiz-adv-x="426" 
d="M178 648h-162v70h394v-70h-160v-648h-72v648zM173 -101l6 39c15 5 30 7 46 7c51 0 77 -18 77 -53c0 -45 -44 -78 -112 -78c-21 0 -44 4 -71 11l11 35c22 -5 39 -7 50 -7c43 0 64 11 64 32c0 14 -12 21 -36 21c-9 0 -20 -2 -35 -7z" />
    <glyph glyph-name="uni021B" unicode="&#x21b;" horiz-adv-x="339" 
d="M137 531v198h68v-198h109v-60h-109v-471h-68v471h-94v60h94zM127 -101l6 39c15 5 30 7 46 7c51 0 77 -18 77 -53c0 -45 -44 -78 -112 -78c-21 0 -44 4 -71 11l11 35c22 -5 39 -7 50 -7c43 0 64 11 64 32c0 14 -12 21 -36 21c-9 0 -20 -2 -35 -7z" />
    <glyph glyph-name="i.dot" horiz-adv-x="200" 
d="M67 0v531h68v-531h-68zM100 750c31 0 57 -25 57 -56s-26 -57 -57 -57s-56 26 -56 57c0 32 26 56 56 56z" />
    <glyph glyph-name="uni0400" unicode="&#x400;" horiz-adv-x="536" 
d="M88 0v718h410v-70h-338v-225h338v-70h-338v-283h338v-70h-410zM153 931h105l107 -151h-68z" />
    <glyph glyph-name="uni0450" unicode="&#x450;" horiz-adv-x="650" 
d="M599 260h-478c3 -122 86 -211 200 -211c111 0 164 63 203 127l57 -30c-54 -106 -137 -159 -253 -159c-176 0 -277 135 -277 277c0 145 107 281 273 281c151 0 273 -109 275 -285zM128 320h396c-28 110 -107 159 -199 159c-95 0 -166 -51 -197 -159zM190 781h105l107 -151
h-68z" />
    <glyph glyph-name="uni040D" unicode="&#x40d;" horiz-adv-x="740" 
d="M652 718v-718h-75v550l-473 -550h-16v718h72v-560l476 560h16zM231 931h105l107 -151h-68z" />
    <glyph glyph-name="uni045D" unicode="&#x45d;" horiz-adv-x="616" 
d="M76 531h68v-393l390 393h6v-531h-68v390l-387 -390h-9v531zM190 781h105l107 -151h-68z" />
    <glyph glyph-name="uni0492" unicode="&#x492;" horiz-adv-x="462" 
d="M21 356v67h66v295h360v-70h-288v-225h220v-67h-220v-356h-72v356h-66z" />
    <glyph glyph-name="uni0493" unicode="&#x493;" horiz-adv-x="361" 
d="M14 247v58h62v226h269v-58h-201v-168h163v-58h-163v-247h-68v247h-62z" />
    <glyph glyph-name="uni0496" unicode="&#x496;" horiz-adv-x="935" 
d="M525 353l-22 -19v-334h-72v334l-23 19l-294 -353h-95l343 398l-316 320h97l288 -303v303h72v-303l288 303h97l-316 -320l343 -398v-107h-68v107h-27z" />
    <glyph glyph-name="uni0497" unicode="&#x497;" horiz-adv-x="769" 
d="M350 297v234h68v-234l254 234h83l-251 -236l270 -295v-84h-64v84h-23l-230 257l-39 -33v-224h-68v224l-40 33l-229 -257h-87l267 295l-247 236h84z" />
    <glyph glyph-name="uni049A" unicode="&#x49a;" horiz-adv-x="591" 
d="M87 0v718h74v-269l286 269h97l-345 -322l372 -396v-107h-68v107h-27l-315 335v-335h-74z" />
    <glyph glyph-name="uni049B" unicode="&#x49b;" horiz-adv-x="502" 
d="M77 0v531h68v-223l245 223h96l-269 -243l290 -288v-84h-64v84h-33l-243 246l-22 -19v-227h-68z" />
    <glyph glyph-name="uni04A2" unicode="&#x4a2;" horiz-adv-x="741" 
d="M86 0v718h73v-301h365v301h72v-648h124v-177h-68v107h-128v347h-365v-347h-73z" />
    <glyph glyph-name="uni04A3" unicode="&#x4a3;" horiz-adv-x="653" 
d="M454 0v257h-309v-257h-68v531h68v-211h309v211h68v-468h115v-147h-64v84h-119z" />
    <glyph glyph-name="uni04AE" unicode="&#x4ae;" horiz-adv-x="592" 
d="M262 0v343l-231 375h83l184 -296l181 296h83l-228 -375v-343h-72z" />
    <glyph glyph-name="uni04AF" unicode="&#x4af;" horiz-adv-x="529" 
d="M232 35l-220 496h72l183 -409l177 409h73l-217 -496v-229h-68v229z" />
    <glyph glyph-name="uni04B0" unicode="&#x4b0;" horiz-adv-x="592" 
d="M126 174v57h136v112l-231 375h83l184 -296l181 296h83l-228 -375v-112h136v-57h-136v-174h-72v174h-136z" />
    <glyph glyph-name="uni04B1" unicode="&#x4b1;" horiz-adv-x="529" 
d="M96 -64v58h136v41l-220 496h72l183 -409l177 409h73l-217 -496v-41h137v-58h-137v-130h-68v130h-136z" />
    <glyph glyph-name="uni04B2" unicode="&#x4b2;" horiz-adv-x="609" 
d="M263 370l-213 348h84l172 -280l173 280h83l-214 -348l228 -370v-107h-68v107h-16l-186 301l-188 -301h-84z" />
    <glyph glyph-name="uni04B3" unicode="&#x4b3;" horiz-adv-x="480" 
d="M197 279l-182 252h82l141 -196l141 196h81l-181 -252l204 -279v-84h-64v84h-19l-162 223l-160 -223h-82z" />
    <glyph glyph-name="uni04B6" unicode="&#x4b6;" horiz-adv-x="598" 
d="M246 409h135v309h72v-648h124v-177h-68v107h-128v339h-108c-102 0 -171 19 -216 74c-40 48 -42 99 -42 163v142h72v-146c0 -103 27 -163 159 -163z" />
    <glyph glyph-name="uni04B7" unicode="&#x4b7;" horiz-adv-x="532" 
d="M333 0v237h-139c-107 0 -160 58 -160 159v135h68v-94c0 -97 10 -137 112 -137h119v231h68v-468h115v-147h-64v84h-119z" />
    <glyph glyph-name="uni04BA" unicode="&#x4ba;" horiz-adv-x="539" 
d="M293 349h-135v-349h-72v718h72v-299h108c102 0 177 -12 222 -67c32 -39 36 -119 36 -170v-182h-72v186c0 120 -19 163 -159 163z" />
    <glyph glyph-name="uni04BB" unicode="&#x4bb;" horiz-adv-x="610" 
d="M76 0v736h68v-300c55 72 120 109 199 109c115 0 196 -81 196 -240v-305h-68v289c0 125 -38 194 -141 194c-57 0 -104 -25 -140 -72c-39 -51 -46 -103 -46 -188v-223h-68z" />
    <glyph glyph-name="uni04C0" unicode="&#x4c0;" horiz-adv-x="226" 
d="M77 0v718h72v-718h-72z" />
    <glyph glyph-name="uni04CF" unicode="&#x4cf;" horiz-adv-x="200" 
d="M66 0v736h68v-736h-68z" />
    <glyph glyph-name="uni04D8" unicode="&#x4d8;" horiz-adv-x="849" 
d="M56 345v41h657c-7 68 -17 124 -81 187c-62 61 -141 93 -227 93c-103 0 -193 -41 -257 -124l-57 43c70 98 183 151 315 151c224 0 387 -162 387 -373s-147 -380 -382 -380c-175 0 -355 98 -355 362zM714 316h-586c7 -194 154 -267 284 -267c158 0 283 114 302 267z" />
    <glyph glyph-name="uni04D9" unicode="&#x4d9;" horiz-adv-x="650" 
d="M51 272h478c-3 122 -86 211 -200 211c-111 0 -164 -63 -203 -127l-57 30c54 106 137 159 253 159c176 0 277 -135 277 -277c0 -145 -107 -281 -273 -281c-151 0 -273 109 -275 285zM522 212h-396c28 -110 107 -159 199 -159c95 0 166 51 197 159z" />
    <glyph glyph-name="uni04E2" unicode="&#x4e2;" horiz-adv-x="740" 
d="M652 718v-718h-75v550l-473 -550h-16v718h72v-560l476 560h16zM218 813v60h337v-60h-337z" />
    <glyph glyph-name="uni04E3" unicode="&#x4e3;" horiz-adv-x="616" 
d="M76 531h68v-393l390 393h6v-531h-68v390l-387 -390h-9v531zM156 663v60h337v-60h-337z" />
    <glyph glyph-name="uni04E8" unicode="&#x4e8;" horiz-adv-x="869" 
d="M429 736c218 0 384 -163 384 -377c0 -211 -165 -377 -378 -377c-221 0 -379 173 -379 374c0 214 166 380 373 380zM433 52c158 0 287 113 303 275h-604c15 -162 148 -275 301 -275zM433 666c-147 0 -282 -109 -300 -272h603c-17 162 -153 272 -303 272z" />
    <glyph glyph-name="uni04E9" unicode="&#x4e9;" horiz-adv-x="655" 
d="M328 545c159 0 277 -129 277 -281c0 -151 -117 -278 -277 -278s-277 127 -277 278c0 152 118 281 277 281zM328 52c109 0 193 80 205 184h-411c13 -104 95 -184 206 -184zM328 479c-104 0 -191 -82 -205 -185h410c-15 103 -102 185 -205 185z" />
    <glyph glyph-name="uni04EE" unicode="&#x4ee;" horiz-adv-x="646" 
d="M295 139l-262 578h81l217 -488l199 488h79l-273 -644c-25 -59 -73 -91 -135 -91c-77 0 -116 43 -161 91l52 43c46 -44 65 -68 108 -68c52 0 71 33 95 91zM163 813v60h337v-60h-337z" />
    <glyph glyph-name="uni04EF" unicode="&#x4ef;" horiz-adv-x="537" 
d="M234 40l-218 491h72l183 -409l177 409h73l-317 -725h-72zM110 663v60h337v-60h-337z" />
    <glyph glyph-name="uni20B4" unicode="&#x20b4;" horiz-adv-x="597" 
d="M532 256h-359c-19 -27 -26 -55 -26 -85c0 -77 61 -123 146 -123c81 0 148 41 191 101l48 -39c-61 -89 -152 -129 -244 -129c-134 0 -210 70 -210 185c0 33 8 63 20 90h-48v63h86c37 34 88 63 134 89h-220v63h312c46 37 59 72 59 116c0 33 -22 82 -121 82
c-52 0 -102 -34 -132 -76l-48 38c38 60 110 105 186 105c147 0 184 -90 184 -153c0 -43 -15 -79 -42 -112h84v-63h-142c-31 -20 -65 -37 -100 -56c-20 -11 -44 -23 -58 -33h300v-63z" />
    </font>
</defs>
</svg>
